<?xml version="1.0" encoding="UTF-8" standalone="no"?>
<!-- Generator: Adobe Illustrator 14.0.0, SVG Export Plug-In . SVG Version: 6.00 Build 43363)  -->

<svg
   xmlns:dc="http://purl.org/dc/elements/1.1/"
   xmlns:cc="http://creativecommons.org/ns#"
   xmlns:rdf="http://www.w3.org/1999/02/22-rdf-syntax-ns#"
   xmlns:svg="http://www.w3.org/2000/svg"
   xmlns="http://www.w3.org/2000/svg"
   xmlns:xlink="http://www.w3.org/1999/xlink"
   xmlns:sodipodi="http://sodipodi.sourceforge.net/DTD/sodipodi-0.dtd"
   xmlns:inkscape="http://www.inkscape.org/namespaces/inkscape"
   version="1.1"
   id="Layer_1"
   x="0px"
   y="0px"
   width="351px"
   height="280px"
   viewBox="0 0 351 280"
   enable-background="new 0 0 351 280"
   xml:space="preserve"
   inkscape:version="0.48.4 r9939"
   sodipodi:docname="shanti tree logo-2.svg"
   inkscape:export-filename="/home/bkkoo/Development/GodlySeva/shantitree-web/img/site-logo.png"
   inkscape:export-xdpi="90"
   inkscape:export-ydpi="90"><metadata
     id="metadata53"><rdf:RDF><cc:Work
         rdf:about=""><dc:format>image/svg+xml</dc:format><dc:type
           rdf:resource="http://purl.org/dc/dcmitype/StillImage" /><dc:title></dc:title></cc:Work></rdf:RDF></metadata><defs
     id="defs51"><linearGradient
       id="linearGradient3068"><stop
         style="stop-color:#a17850;stop-opacity:1;"
         offset="0"
         id="stop3070" /><stop
         style="stop-color:#603913;stop-opacity:0;"
         offset="1"
         id="stop3072" /></linearGradient><linearGradient
       inkscape:collect="always"
       xlink:href="#linearGradient3068"
       id="linearGradient3074"
       x1="220.82143"
       y1="199.32143"
       x2="224.67856"
       y2="-4.4642854"
       gradientUnits="userSpaceOnUse" /><linearGradient
       inkscape:collect="always"
       xlink:href="#linearGradient3068"
       id="linearGradient3155"
       gradientUnits="userSpaceOnUse"
       x1="220.82143"
       y1="199.32143"
       x2="223.42818"
       y2="-50.311703"
       gradientTransform="matrix(-0.84826751,0,0,0.84826751,347.98251,22.697567)" /><linearGradient
       inkscape:collect="always"
       xlink:href="#linearGradient3068"
       id="linearGradient3178"
       gradientUnits="userSpaceOnUse"
       gradientTransform="matrix(-0.98787293,0.02103504,0.02103504,0.98787293,396.88845,15.956108)"
       x1="220.82143"
       y1="199.32143"
       x2="223.42818"
       y2="-50.311703" /></defs><sodipodi:namedview
     pagecolor="#ffffff"
     bordercolor="#666666"
     borderopacity="1"
     objecttolerance="10"
     gridtolerance="10"
     guidetolerance="10"
     inkscape:pageopacity="0"
     inkscape:pageshadow="2"
     inkscape:window-width="1855"
     inkscape:window-height="1056"
     id="namedview49"
     showgrid="false"
     inkscape:zoom="1"
     inkscape:cx="34.463899"
     inkscape:cy="115.39809"
     inkscape:window-x="1985"
     inkscape:window-y="24"
     inkscape:window-maximized="1"
     inkscape:current-layer="Layer_1"
     showguides="true"
     inkscape:guide-bbox="true"
     inkscape:snap-global="false" /><g
     id="g3492"
     inkscape:export-filename="/home/bkkoo/Development/GodlySeva/shantitree-web/img/site-logo.png"
     inkscape:export-xdpi="90"
     inkscape:export-ydpi="90"><g
       id="g3204"><path
         clip-rule="evenodd"
         d="m 95.689137,137.31067 c 5.282273,1.38385 15.239693,5.57674 22.987023,10.32442 -1.38213,-7.27833 -1.39636,-12.59606 -4.04298,-18.22948 -3.0515,-6.49521 -11.88485,-8.13678 -13.20237,-17.0056 -0.69032,-4.61755 1.23475,-11.91282 8.11406,-12.30243 12.18025,-0.687301 7.7978,16.16646 0.13078,11.79795 -0.57037,-0.32498 -0.93943,-0.66901 -1.2802,-1.59823 -0.63327,-1.72686 0.96057,-3.48429 3.10678,-2.72369 1.07072,0.9963 -0.22147,1.87864 -0.62673,1.3409 -0.38957,-0.51693 -1.42219,0.4595 -0.59463,1.54485 0.53573,0.70264 1.46948,1.28424 2.51215,0.85272 3.65213,-1.51147 3.73036,-6.35714 1.07393,-8.2119 -3.37153,-2.35406 -10.24465,-0.87162 -9.89685,7.59625 0.41222,10.07606 12.79439,11.90962 14.72991,20.18907 0.69871,-1.96514 1.38513,-2.79085 1.88977,-4.26006 0.95737,-2.78725 1.34672,-7.61423 2.13755,-8.57893 1.50757,3.06571 -1.71316,19.53896 0.53933,25.87357 2.47556,6.9535 13.8552,8.73032 20.94325,10.57779 -0.43184,-8.39845 -22.95918,-9.72345 -19.75799,-19.98021 1.04387,-3.33212 9.81439,-5.13477 10.30648,-0.21946 0.30952,3.07203 -6.08002,5.48321 -5.142,0.66096 1.25044,0.19576 0.11197,2.52476 2.61058,1.59789 1.90182,-1.19288 -0.17229,-3.5444 -1.37033,-3.83022 -8.51372,2.72326 -0.0539,11.48839 6.04524,11.44947 5.15397,-12.6308 -16.68111,-21.61164 -13.51501,-33.51617 0.83368,-0.1632 2.08801,-7.32019 1.21698,0.42647 -0.43489,6.96111 16.63902,19.45726 15.41095,28.06302 3.25734,-1.77125 3.98024,-4.67817 8.05463,-7.34178 4.00588,-1.64079 5.80203,-1.47296 3.48531,0.13285 -2.49485,1.72928 -7.59688,6.24674 -7.37225,11.10511 0.15687,3.39305 3.58828,6.01954 6.40763,8.55683 5.00651,-4.47626 -1.56843,0.65946 7.48626,-5.82026 4.78452,-3.03511 8.74005,-0.35784 13.00066,-7.04362 0,0 1.57367,-1.16921 1.53523,-0.53229 -2.27875,7.53406 -21.22398,10.76947 -17.4049,18.2612 2.21563,4.34625 11.26629,1.70056 14.50511,-1.9476 7.32507,-8.25087 10.6061,-22.8405 0.4877,-33.09631 -5.55072,-3.80064 -17.87913,-7.97819 -26.52881,-15.64925 -17.12079,-11.824027 -9.69095,-8.423591 -2.09013,-3.5615 6.97302,4.46052 11.43682,2.22069 11.24252,1.86842 -5.42834,-9.842106 -4.3348,-7.571173 -7.4596,-14.478554 -1.76284,-6.554868 -0.55642,-2.973815 2.76712,1.830026 2.65763,3.841356 4.98015,9.552408 7.25852,12.619428 4.94705,6.65943 5.80167,4.3677 7.02489,5.39426 5.6443,-22.26676 -5.54628,8.34962 17.10255,8.45704 5.59608,-8.40344 -2.91237,-17.972376 -2.03974,-24.252013 1.50514,-10.831211 3.40001,-8.222923 2.25294,-16.428746 -1.12824,-8.071148 -6.77452,-16.733754 -13.45269,-18.337025 -13.21213,-3.49024 5.03846,1.633978 10.79495,6.130426 3.7833,3.113398 4.77602,8.769627 5.69842,14.47 1.45261,8.976958 -4.84503,11.811204 1.74542,23.538058 8.70631,-13.061227 10.9919,-18.594764 21.38084,-29.338016 9.13921,-9.45091 10.36606,-5.823961 20.46492,-12.673344 8.45582,-5.735032 5.53731,-3.80669 -8.36173,4.322327 -5.07082,2.965729 0.4207,-0.90563 -11.32913,11.183711 -6.96793,7.169279 -15.4991,19.759507 -15.75225,29.275232 24.07035,-7.088635 15.46538,-15.896842 16.60264,-17.386529 10.50898,11.193305 -4.59732,16.572349 -15.9135,22.624609 -9.97283,5.3338 -7.77736,18.97138 -8.97001,32.72158 12.38467,-4.25658 16.82577,-10.57574 16.82577,-10.57574 0,0 3.34704,-3.96089 4.28587,-8.5562 0.94969,-4.64845 -0.54808,-9.92202 -7.51658,-8.17328 -16.88911,12.67399 13.62151,-10.56626 12.73757,6.80142 -1.52022,13.59115 -15.19951,20.37162 -27.41739,29.89914 12.86528,-4.25588 24.85918,-14.16365 31.0548,-24.86292 -1.82967,-8.65813 3.11065,-10.54056 -5.03674,-15.43451 -5.68128,-3.41263 1.60126,-0.30245 5.19353,2.72656 4.83084,4.07343 2.50377,8.8586 3.37191,8.09995 4.54041,-6.35523 7.53616,-6.34337 6.79293,-11.21776 -0.26379,-1.74709 -5.32502,-3.99921 -6.65973,-6.15111 -4.08327,-7.360515 0.41767,-11.878395 -1.02423,-8.672075 -0.14156,0.314776 -0.33502,1.602906 -0.12238,2.741915 1.0305,5.51996 0.94336,5.19398 10.93096,9.5418 5.15853,-11.343335 1.82294,-3.28077 4.33954,-10.161305 1.51435,-4.140333 -1.33134,-8.182989 -4.31361,-12.197725 -14.09248,-27.811804 4.89391,14.89873 8.88798,2.038637 4.84255,-8.30641 21.66217,-19.116618 14.49174,-13.604292 -12.02295,13.115735 -13.99768,18.18626 -17.98459,28.744035 -4.9129,12.81357 -3.29382,10.89905 -9.29952,19.42906 11.26892,-3.52315 16.47034,-17.70858 29.04299,-21.80242 15.18793,-3.876161 22.86154,-7.953326 9.8007,0.0209 7.14149,3.91315 14.74006,12.84081 12.90965,13.70096 -2.79398,-5.29079 -7.36518,-8.45578 -11.48619,-10.68737 -8.18845,-4.43418 -14.2998,-0.11123 -19.02456,4.36147 -3.20428,3.03334 -0.25582,5.3665 6.06397,4.95114 2.97879,-0.19578 6.36937,0.84172 10.29599,0.42132 3.90848,-0.41845 9.12893,5.35934 11.59221,9.8277 -15.59745,-16.20067 -23.51132,-13.31989 -34.4852,-6.06733 -3.4104,3.35582 -9.25503,5.08729 -13.99512,8.56333 -6.514,4.78184 -15.59538,16.67792 -3.45374,19.37544 13.05557,-2.47222 19.80319,-21.35519 29.17058,-22.126 6.65579,-0.0449 21.36257,5.18918 19.37662,4.82296 -13.43618,-2.47764 -13.00119,-3.31295 -20.40881,-2.51995 -6.80112,0.7281 -10.23411,9.18793 -14.93432,14.07247 15.25977,-0.14712 30.49263,8.9096 39.90871,-2.39848 0.29167,5.94644 -12.31285,8.33873 -22.74142,5.60867 8.57114,5.91446 17.10606,8.17882 18.57325,13.58729 -4.16938,-6.46747 -37.46802,-22.81175 -43.07946,-7.86888 5.48147,0.754 17.93557,24.44967 43.59404,15.61625 -11.17921,-0.8228 -9.85279,6.1918 -47.09847,-13.4276 -5.66793,-1.15622 -12.04424,-9.01202 -22.01988,3.01281 -6e-4,3.95071 6.2093,4.34627 12.35576,9.85115 6.15519,5.51271 11.5212,8.71763 23.08266,11.38022 46.05819,7.03461 -9.17615,1.29693 -17.65487,-2.29277 -7.08176,-2.29837 -16.65641,-12.37481 -21.45396,-10.1563 -10.42035,4.81862 -6.30576,20.72621 -5.13312,31.20088 0.7679,6.85918 3.15726,14.0717 7.79616,19.18235 3.17197,3.49457 4.2904,6.19964 12.54053,6.57237 9.35919,0.42284 38.27903,5.01205 41.08226,3.89059 -32.00458,-0.15246 -45.8598,1.14777 -46.51756,0.77857 -0.65776,-0.36919 -12.05657,3.03295 -19.61475,-2.00069 -13.81985,-9.20384 -16.16445,2.9928 -38.19947,0.63341 -8.01131,-0.85782 -29.97319,1.33999 -40.33604,0.51643 10.12407,-1.70074 22.53481,-1.87371 30.87714,-2.45683 19.92331,-1.39262 27.02672,-14.04484 28.1084,-24.18503 1.74984,-16.4039 0.11847,-24.72653 -10.83756,-30.07987 -19.88931,-7.38501 -17.78827,-4.09234 -30.57236,-1.81655 -14.65154,3.49178 -17.33862,7.06695 -27.746558,5.59098 12.837028,-2.72633 7.781538,-2.35578 14.299678,-6.29424 8.12886,-4.9117 16.87216,-5.46272 18.98803,-7.46282 -8.86563,-2.73133 -9.99689,-3.55159 -16.70033,-8.1907 -5.73543,-4.0341 -11.08425,-7.95919 -14.744271,-10.56965 -0.940762,-0.67097 -1.244864,-0.97291 -3.708665,-1.99502 z"
         inkscape:connector-curvature="0"
         style="fill:url(#linearGradient3178);fill-opacity:1;fill-rule:evenodd"
         id="path15"
         sodipodi:nodetypes="ccaccsscssssccscccccccccccccssccccaaccsscssccssccscssssccsccsccccsscccsscsccccccccsssscccccssccccccccsccsaasczsscsscccsccsc" /><path
         style="fill:#b0967d;fill-opacity:0.69803922"
         d="m 248.77221,151.75833 c -10.88851,-8.25258 -13.20401,-3.57349 -18.93952,-1.9659 -7.04732,1.97524 1.30786,-1.94947 8.03409,5.8722 8.02297,9.32956 13.3385,5.18965 19.89281,-2.35316 4.06262,-4.6754 -0.7658,4.67813 -8.98738,-1.55314 z"
         id="path3957"
         inkscape:connector-curvature="0"
         sodipodi:nodetypes="sssss"
         inkscape:transform-center-y="0.41923764"
         inkscape:transform-center-x="2.2843236" /><path
         style="opacity:0.64319249;fill:#bd9062;fill-opacity:0.69803922"
         d="m 272.49365,149.95485 c -6.08606,-6.36111 -8.06631,-3.6461 -11.90704,-3.23221 -4.71915,0.50851 1.04455,-1.09513 4.51375,4.55639 4.13797,6.74098 7.98003,4.68203 12.9774,0.60176 3.09761,-2.52914 -0.98871,2.87715 -5.58411,-1.92594 z"
         id="path3957-2"
         inkscape:connector-curvature="0"
         sodipodi:nodetypes="sssss"
         inkscape:transform-center-y="-0.039519158"
         inkscape:transform-center-x="1.2474958" /><path
         style="opacity:0.78403751;fill:#c9a784;fill-opacity:0.69803922"
         d="m 253.56835,131.86502 c -12.63201,-2.39232 -12.62292,2.52037 -16.78227,6.27765 -5.11071,4.61663 0.28528,-2.19054 9.22963,1.58238 10.66864,4.50012 13.41329,-1.21494 15.77619,-10.31633 1.46461,-5.6415 1.31449,4.26265 -8.22355,2.4563 z"
         id="path3957-2-8"
         inkscape:connector-curvature="0"
         sodipodi:nodetypes="sssss"
         inkscape:transform-center-y="3.3909199"
         inkscape:transform-center-x="-3.8296101" /><path
         style="fill:#bd9771;fill-opacity:0.69803922"
         d="m 197.29075,170.53939 c 3.21549,8.13823 6.14086,6.38124 9.90914,7.4403 4.63019,1.30131 -1.4002,1.1105 -2.4376,-5.39325 -1.23745,-7.75749 -6.94571,-9.99294 -11.95764,-5.91394 -3.15837,2.57047 2.05811,-2.27808 4.48609,3.86688 z"
         id="path3957-2-8-9"
         inkscape:connector-curvature="0"
         sodipodi:nodetypes="cssssc"
         inkscape:transform-center-y="1.2542397"
         inkscape:transform-center-x="-0.59155408" /><path
         style="fill:#d3a897;fill-opacity:0.69803922"
         d="m 209.65756,159.18956 c 3.67318,11.59875 11.76621,6.79508 19.50272,8.13868 9.50598,1.65089 -3.07936,0.49922 -4.08655,-6.01642 -1.20149,-7.77161 -12.00212,-12.55625 -24.15538,-6.29998 -7.5231,3.87275 4.74181,-2.09207 8.7392,4.17768 z"
         id="path3957-2-8-9-7"
         inkscape:connector-curvature="0"
         sodipodi:nodetypes="cssssc"
         inkscape:transform-center-x="-7.8522396"
         inkscape:transform-center-y="2.6408299" /><path
         style="fill:#b7caa2;fill-opacity:0.69803922"
         d="m 226.68468,130.37863 c -12.82665,2.66098 -10.16395,6.53777 -11.93168,11.00362 -2.17206,5.48727 -0.92311,-1.83285 9.28233,-2.07502 12.17279,-0.28891 11.59098,-5.79145 8.83089,-13.83097 -1.71082,-4.98328 3.50341,2.89314 -6.18154,4.90237 z"
         id="path3957-2-8-2"
         inkscape:connector-curvature="0"
         sodipodi:nodetypes="sssss" /><path
         style="opacity:0.65258215;fill:#9d6f41;fill-opacity:0.69803922"
         d="m 257.92396,107.45913 c -8.45455,-2.30237 -8.84595,0.4556 -11.99765,2.24843 -3.87256,2.20285 0.3726,-1.20779 6.19076,1.5893 6.93979,3.33625 9.28141,0.33714 11.63575,-4.59159 1.45931,-3.05507 0.55492,2.49231 -5.82886,0.75386 z"
         id="path3957-2-8-2-9"
         inkscape:connector-curvature="0"
         sodipodi:nodetypes="sssss" /><path
         style="opacity:0.83568073;fill:#bf9266;fill-opacity:0.69803922"
         d="m 255.1374,119.32648 c -3.91451,-5.72293 -6.2045,-3.61188 -9.61536,-3.54633 -4.19103,0.0802 1.13632,-0.83373 2.93745,4.11044 2.14839,5.89726 5.90983,4.46581 11.10018,1.43957 3.21724,-1.87581 -1.46656,2.31752 -4.42227,-2.00368 z"
         id="path3957-2-8-2-9-1"
         inkscape:connector-curvature="0"
         sodipodi:nodetypes="sssss" /><path
         style="opacity:0.9201878;fill:#d5a474;fill-opacity:0.69803922"
         d="m 268.95793,104.27452 c 5.80909,4.86605 7.2183,2.33647 10.43912,1.6009 3.9575,-0.90382 -0.77719,1.04465 -4.29208,-3.47024 -4.19254,-5.385217 -7.24913,-3.235469 -11.08396,0.76604 -2.37697,2.48035 0.55061,-2.57093 4.93692,1.10329 z"
         id="path3957-2-8-9-1"
         inkscape:connector-curvature="0"
         sodipodi:nodetypes="sssss"
         inkscape:transform-center-y="-0.1547736"
         inkscape:transform-center-x="-1.2113141" /><path
         style="opacity:0.69136155;fill:#bdd396;fill-opacity:0.69804131"
         d="m 242.543,93.280971 c -11.80559,7.543809 -8.20081,10.823049 -8.75979,16.346929 -0.68684,6.78728 -1.377,-1.67167 8.50455,-5.62268 11.78655,-4.712704 9.78585,-10.522014 5.00158,-18.319895 -2.96555,-4.833446 4.1677,1.899552 -4.74634,7.595646 z"
         id="path3957-5"
         inkscape:connector-curvature="0"
         sodipodi:nodetypes="sssss"
         inkscape:transform-center-x="10.014778"
         inkscape:transform-center-y="7.0706555" /><path
         style="opacity:0.65258215;fill:#cba074;fill-opacity:0.69803922"
         d="m 264.44925,88.783393 c -9.79293,1.859772 -8.39579,5.429055 -10.33383,9.345979 -2.38132,4.812778 -0.41413,-1.673978 7.10839,-1.479265 8.97271,0.232248 9.33566,-4.705078 8.46462,-11.995706 -0.53996,-4.519046 2.15517,2.72473 -5.23918,4.128992 z"
         id="path3957-5-8"
         inkscape:connector-curvature="0"
         sodipodi:nodetypes="sssss"
         inkscape:transform-center-y="0.25029645"
         inkscape:transform-center-x="2.048543" /><path
         style="opacity:0.36619717;fill:#9d6f41;fill-opacity:0.69803922"
         d="m 167.62853,64.256826 c 7.59565,-0.137411 7.10187,2.723195 9.15096,5.325295 2.5178,3.197234 0.0515,-1.304291 -5.53334,0.0039 -6.66162,1.56042 -7.69202,-2.04139 -8.16336,-7.577659 -0.29212,-3.431621 -1.18951,2.352173 4.54574,2.248435 z"
         id="path3957-5-8-9"
         inkscape:connector-curvature="0"
         sodipodi:nodetypes="sssss"
         inkscape:transform-center-y="-0.15551479"
         inkscape:transform-center-x="-1.6732206" /><path
         style="opacity:0.46478876;fill:#9d6f41;fill-opacity:0.69803922"
         d="m 172.89967,76.189463 c -9.488,-1.439627 -7.98526,4.127995 -9.72495,8.805775 -2.13761,5.747628 -0.46937,-2.511716 6.88202,0.864156 8.76865,4.026711 8.93097,-2.727821 7.7971,-13.282271 -0.70285,-6.54213 2.20995,4.699369 -4.95417,3.61234 z"
         id="path3957-5-0"
         inkscape:connector-curvature="0"
         sodipodi:nodetypes="sssss" /><path
         style="opacity:0.82159627;fill:#d3a896;fill-opacity:0.69803922"
         d="m 217.37752,94.700725 c -3.08875,9.216375 1.70405,9.387215 5.12058,12.586175 4.19795,3.93064 -2.11977,-0.28924 2.09528,-6.73996 5.02754,-7.694268 -0.38335,-9.922127 -9.12037,-11.991226 -5.41563,-1.282516 4.23672,-0.814001 1.90451,6.145011 z"
         id="path3957-2-8-2-2"
         inkscape:connector-curvature="0"
         sodipodi:nodetypes="sssss" /><path
         style="opacity:0.69136155;fill:#b3895e;fill-opacity:0.69803922"
         d="m 242.3155,121.41266 c -5.24724,-2.89501 -6.35299,0.14027 -9.10765,1.99452 -3.38469,2.2781 0.62555,-1.32099 3.87136,2.01295 3.8714,3.97669 6.42019,0.75457 9.55913,-4.60197 1.94562,-3.32022 -0.36083,2.78041 -4.32282,0.59452 z"
         id="path3957-5-7-4-7"
         inkscape:connector-curvature="0"
         sodipodi:nodetypes="sssss" /><path
         style="opacity:0.69136155;fill:#cb9763;fill-opacity:0.5372549"
         d="m 199.80969,90.080492 c -6.97344,3.061137 -4.71188,7.174111 -4.91964,11.990678 -0.25535,5.91813 -0.87389,-1.9499 5.01908,-2.37543 7.02898,-0.507424 5.67923,-6.397215 2.59602,-14.971449 -1.91112,-5.314676 2.56991,3.044826 -2.69551,5.356189 z"
         id="path3957-5-7-4-9-8"
         inkscape:connector-curvature="0"
         sodipodi:nodetypes="sssss"
         inkscape:transform-center-y="-0.91759453"
         inkscape:transform-center-x="-0.63985737" /><path
         style="opacity:0.69136155;fill:#e1bb95;fill-opacity:0.69803922"
         d="m 215.3767,60.741624 c -0.79935,-7.356231 3.32598,-8.310103 6.88023,-11.620045 4.36713,-4.066948 -1.86711,0.604543 0.44498,5.407228 2.7579,5.728506 -2.30526,8.544622 -10.17602,11.785653 -4.87861,2.008975 3.45439,-0.01844 2.8508,-5.572868 z"
         id="path3957-5-7-4-9-8-6-3"
         inkscape:connector-curvature="0"
         sodipodi:nodetypes="sssss"
         inkscape:transform-center-y="0.10663573"
         inkscape:transform-center-x="0.98818922" /><path
         style="opacity:0.69136155;fill:#c3a383;fill-opacity:0.69803922"
         d="m 249.17117,73.264789 c 4.25158,-1.571057 3.21769,-4.412264 3.66361,-7.560158 0.5479,-3.867832 0.37507,1.33454 -3.07168,1.243754 -4.11125,-0.108349 -3.72628,3.841667 -2.5172,9.662244 0.7494,3.607833 -1.28492,-2.159586 1.9253,-3.345835 z"
         id="path3957-5-7-4-9-8-6-3-4-5"
         inkscape:connector-curvature="0"
         sodipodi:nodetypes="sssss"
         inkscape:transform-center-y="0.64437679"
         inkscape:transform-center-x="0.12228501" /><path
         style="opacity:0.69136155;fill:#d2a87d;fill-opacity:0.69803922"
         d="m 202.80473,67.860372 c -4.62588,-5.156649 -1.6603,-7.79331 -0.44195,-11.934932 1.497,-5.088839 -1.24935,1.323225 3.28006,3.856776 5.40263,3.021911 2.64684,7.494578 -2.24773,13.593146 -3.03382,3.780158 2.90243,-1.621404 -0.5904,-5.515002 z"
         id="path3957-5-7-4-9-8-6-3-9"
         inkscape:connector-curvature="0"
         sodipodi:nodetypes="sssss"
         inkscape:transform-center-y="0.54416726"
         inkscape:transform-center-x="-0.73159603" /><path
         style="opacity:0.69136155;fill:#dab692;fill-opacity:0.69803922"
         d="m 166.71763,56.123578 c -5.56929,1.420793 -6.38147,-2.122516 -8.97073,-4.933061 -3.18142,-3.453316 0.49877,1.586877 4.09678,-0.91866 4.29154,-2.988599 6.53789,1.20001 9.16671,7.821935 1.62945,4.104541 -0.0875,-3.042992 -4.29276,-1.970183 z"
         id="path3957-5-7-4-9-8-1"
         inkscape:connector-curvature="0"
         sodipodi:nodetypes="sssss"
         inkscape:transform-center-y="3.6290316"
         inkscape:transform-center-x="6.4228841" /><path
         style="opacity:0.69136155;fill:#d9a26b;fill-opacity:0.69803922"
         d="m 192.49163,49.897566 c -1.90852,7.371965 -5.36541,6.295792 -9.19446,7.732119 -4.70478,1.764852 1.62365,0.322993 1.51111,-5.350259 -0.13509,-6.766833 4.67099,-7.009051 11.7523,-6.305825 4.38929,0.435922 -2.62786,-1.642316 -4.06894,3.923995 z"
         id="path3957-5-7-4-9-9"
         inkscape:connector-curvature="0"
         sodipodi:nodetypes="sssss" /><path
         style="opacity:0.69136155;fill:#cf9d6b;fill-opacity:0.69803922"
         d="m 174.58705,101.28042 c 6.68327,6.16616 3.57323,9.21246 2.89998,14.06631 -0.82717,5.96392 1.26834,-1.53354 -4.77842,-4.60825 -7.21242,-3.66731 -4.72215,-8.88036 0.0655,-15.965675 2.96764,-4.391779 -3.23334,1.851764 1.81294,6.507615 z"
         id="path3957-5-7-4-9-9-8"
         inkscape:connector-curvature="0"
         sodipodi:nodetypes="sssss" /><path
         style="opacity:0.69136155;fill:#e1b486;fill-opacity:0.69803922"
         d="m 221.24534,70.326161 c 3.87242,3.940737 6.5139,1.370703 10.23627,0.292372 4.57369,-1.32496 -1.29601,1.084268 -2.91857,-2.792745 -1.93532,-4.624508 -6.13389,-2.221407 -11.99983,2.033154 -3.63597,2.637129 1.75828,-2.508221 4.68215,0.467265 z"
         id="path3957-5-7-4-9-8-6-3-4-5-1"
         inkscape:connector-curvature="0"
         sodipodi:nodetypes="sssss"
         inkscape:transform-center-y="-0.63841432"
         inkscape:transform-center-x="0.55632753" /><path
         style="opacity:0.69136155;fill:#cc9ede;fill-opacity:0.69803922"
         d="m 210.57543,81.302993 c 6.23585,4.243714 9.98808,0.510964 15.51828,-1.5435 6.79497,-2.524345 -1.85784,1.608727 -4.68295,-2.97492 -3.36965,-5.467376 -9.49417,-1.654179 -17.9653,4.804102 -5.25081,4.00308 2.42158,-3.489877 7.12998,-0.285621 z"
         id="path3957-5-7-4-9-8-6-3-4-5-1-1"
         inkscape:connector-curvature="0"
         sodipodi:nodetypes="sssss"
         inkscape:transform-center-y="-10.239454"
         inkscape:transform-center-x="-9.8542141" /><path
         style="opacity:0.69136155;fill:#ddc7af;fill-opacity:0.69803922"
         d="m 230.10549,58.298634 c 4.44963,0.863094 5.04009,-2.102159 7.0547,-4.561723 2.47534,-3.022085 -0.37185,1.335445 -3.27117,-0.53065 -3.45824,-2.225909 -5.17877,1.350485 -7.16544,6.95353 -1.23145,3.472988 0.0222,-2.51283 3.38194,-1.861133 z"
         id="path3957-5-7-4-9-8-6-3-4-5-1-1-6"
         inkscape:connector-curvature="0"
         sodipodi:nodetypes="sssss"
         inkscape:transform-center-y="-7.0463362"
         inkscape:transform-center-x="-2.0095984" /><path
         style="opacity:0.69136155;fill:#d7af86;fill-opacity:0.69803922"
         d="m 194.10878,59.151373 c 3.73981,8.121151 -2.3602,10.565637 -6.77099,15.50765 -5.42012,6.072172 2.702,-1.303321 -2.52691,-6.016399 -6.23709,-5.621557 0.69103,-10.497144 11.84639,-16.780863 6.91452,-3.894918 -5.37223,1.157665 -2.54838,7.289677 z"
         id="path3957-5-7-4-9-8-6-3-1-8"
         inkscape:connector-curvature="0"
         sodipodi:nodetypes="sssss"
         inkscape:transform-center-y="-0.44945572"
         inkscape:transform-center-x="-0.23088363" /><path
         style="opacity:0.69136155;fill:#d4a06b;fill-opacity:0.69803922"
         d="m 208.31561,55.497042 c -6.12304,-2.694262 -4.1889,-6.005611 -4.41914,-9.959221 -0.28287,-4.857831 -0.74362,1.575157 4.40875,2.080303 6.14574,0.602463 5.02614,5.394461 2.4193,12.340878 -1.61581,4.305688 2.21429,-2.427656 -2.40897,-4.461958 z"
         id="path3957-5-7-4-9-8-6-3-4-5-1-1-1"
         inkscape:connector-curvature="0"
         sodipodi:nodetypes="sssss"
         inkscape:transform-center-y="-8.3139533"
         inkscape:transform-center-x="-4.9046089" /><path
         style="opacity:0.69136155;fill:#cba074;fill-opacity:0.69803922"
         d="m 242.00753,74.97782 c 2.27722,-6.390541 -0.0592,-7.258842 -1.47035,-10.170987 -1.7338,-3.578173 1.01567,0.543317 -1.58513,4.698711 -3.10224,4.956489 -0.63266,7.453266 3.48131,10.345976 2.54999,1.793051 -2.14525,-0.04852 -0.42582,-4.873731 z"
         id="path3957-5-7-4-9-8-6-3-4-5-1-1-1-1"
         inkscape:connector-curvature="0"
         sodipodi:nodetypes="sssss"
         inkscape:transform-center-y="-2.9383758"
         inkscape:transform-center-x="6.3129182" /><path
         style="opacity:0.69136155;fill:#e8b989;fill-opacity:0.69803922"
         d="m 234.68044,85.582688 c 4.22619,-5.735096 0.91604,-6.520969 -0.75309,-9.140564 -2.05087,-3.218714 1.41599,0.490624 -2.97636,4.217018 -5.23916,4.444766 -1.95869,6.693879 3.68113,9.302786 3.4958,1.617138 -3.14261,-0.04895 0.0484,-4.379266 z"
         id="path3957-5-7-4-9-8-6-3-4-5-1-1-1-1-1"
         inkscape:connector-curvature="0"
         sodipodi:nodetypes="sssss"
         inkscape:transform-center-y="-2.6552132"
         inkscape:transform-center-x="9.0391259" /><path
         style="opacity:0.69136155;fill:#a29d97;fill-opacity:0.69803922"
         d="m 178.57251,58.366686 c 5.80643,-4.468261 2.59314,-6.183262 1.53508,-9.244751 -1.30071,-3.761514 1.33515,0.886445 -4.13421,3.322765 -6.52431,2.906167 -3.71162,6.058451 1.44205,10.235187 3.19445,2.588943 -3.22698,-0.939393 1.15719,-4.313172 z"
         id="path3957-5-7-4-9-8-6-3-4-5-1-1-1-2-7-0-2-7"
         inkscape:connector-curvature="0"
         sodipodi:nodetypes="sssss" /><path
         style="opacity:0.69136155;fill:#e59592;fill-opacity:0.69803922"
         d="m 190.46394,88.534464 c 8.3635,-4.013991 6.4603,-9.785929 7.45839,-16.452228 1.22634,-8.190935 0.6781,2.729965 -6.04684,3.127591 -8.02144,0.47417 -7.42999,8.678088 -5.30556,20.657581 1.31675,7.425412 -2.42081,-4.302132 3.8941,-7.332942 z"
         id="path3957-5-7-4-9-8-6-3-4-5-1-1-14"
         inkscape:connector-curvature="0"
         sodipodi:nodetypes="sssss"
         inkscape:transform-center-y="2.024612"
         inkscape:transform-center-x="0.12912803" /><path
         style="opacity:0.69136155;fill:#deb78f;fill-opacity:0.69803922"
         d="m 176.89925,46.648639 c -0.0264,4.248125 -2.95706,4.793628 -5.6781,6.700134 -3.34336,2.342557 1.34002,-0.346678 0.11814,-3.12241 -1.45751,-3.310838 2.26904,-4.930325 7.97246,-6.79161 3.5352,-1.153739 -2.39253,0.0063 -2.41246,3.21391 z"
         id="path3957-5-7-4-9-8-6-3-4-5-1-1-14-7-1"
         inkscape:connector-curvature="0"
         sodipodi:nodetypes="sssss"
         inkscape:transform-center-y="-0.21869041"
         inkscape:transform-center-x="-1.0155582" /><path
         style="fill:#ce9760;fill-opacity:0.69803922"
         d="m 257.96294,163.10712 c 4.36113,1.90538 7.4483,3.00494 11.87392,1.29294 3.62509,-1.40234 -2.01821,-0.46057 -5.80307,-3.7404 -4.93847,-4.27955 -7.56489,-1.63846 -11.75836,1.3527 -2.67798,1.91017 0.66709,-1.09861 5.68751,1.09476 z"
         id="path3957-92"
         inkscape:connector-curvature="0"
         sodipodi:nodetypes="sssss"
         inkscape:transform-center-y="-0.6536292"
         inkscape:transform-center-x="-1.2297639" /><path
         style="opacity:0.9201878;fill:#d5a474;fill-opacity:0.69803922"
         d="m 244.93193,170.37095 c -2.23235,-9.78484 -7.15572,-8.30664 -12.44872,-10.16697 -6.50364,-2.28591 2.30141,-0.45141 1.79713,7.09969 -0.60137,9.0068 7.19311,9.35848 17.18685,8.32829 6.1946,-0.63861 -4.84958,2.12727 -6.53526,-5.26098 z"
         id="path3957-2-8-9-1-2"
         inkscape:connector-curvature="0"
         sodipodi:nodetypes="cssssc"
         inkscape:transform-center-y="-2.071695"
         inkscape:transform-center-x="0.099215836" /><path
         style="fill:#bd946c;fill-opacity:0.69803922"
         d="m 261.38618,172.44234 c -4.04198,-6.62206 -8.32104,-2.41434 -13.31619,-2.06726 -6.13759,0.42643 1.83065,-0.77841 3.44723,3.10251 1.92831,4.62902 9.34511,5.94567 15.91685,0.21974 4.06805,-3.54445 -2.61723,2.018 -6.04787,-1.25497 z"
         id="path3957-2-8-9-7-8"
         inkscape:connector-curvature="0"
         sodipodi:nodetypes="cssssc" /><path
         style="opacity:0.76995305;fill:#ca9662;fill-opacity:0.69803922"
         d="m 272.36591,131.81021 c -8.40313,0.31876 -7.64609,3.35277 -9.71804,6.26584 -2.54581,3.57937 -0.15345,-1.39398 6.11446,-0.33517 7.47621,1.26285 8.34862,-2.65865 8.46035,-8.61803 0.0692,-3.69393 1.4882,2.44673 -4.85673,2.6874 z"
         id="path3957-9-5"
         inkscape:connector-curvature="0"
         sodipodi:nodetypes="sssss" /><path
         style="opacity:0.9201878;fill:#d5a474;fill-opacity:0.69803922"
         d="m 269.67287,119.72714 c 2.71114,7.07628 5.17229,5.55069 8.34454,6.47351 3.89781,1.13392 -1.18699,0.53512 -2.06396,-5.11903 -1.04609,-6.74415 -4.76225,-6.35131 -10.05865,-4.71852 -3.28295,1.01212 1.73091,-1.97907 3.77807,3.36402 z"
         id="path3957-2-8-9-1-1"
         inkscape:connector-curvature="0"
         sodipodi:nodetypes="sssss"
         inkscape:transform-center-y="1.0815733"
         inkscape:transform-center-x="-0.48615529" /><path
         style="opacity:0.65258215;fill:#ce9660;fill-opacity:0.69803922"
         d="m 254.85867,79.602457 c -8.01028,0.144809 -7.65347,3.877024 -9.96612,7.378902 -2.84164,4.302809 0.0206,-1.709144 5.84093,-0.231666 6.94251,1.762301 8.23725,-3.007688 9.05305,-10.291922 0.50561,-4.515088 1.12047,3.035344 -4.92786,3.144689 z"
         id="path3957-5-8-7"
         inkscape:connector-curvature="0"
         sodipodi:nodetypes="sssss"
         inkscape:transform-center-y="-0.13196633"
         inkscape:transform-center-x="1.758855" /><path
         style="opacity:0.69136155;fill:#d58a71;fill-opacity:0.69803922"
         d="m 191.64593,125.41681 c -9.69556,5.29272 -6.13595,8.53595 -6.04051,13.28389 0.11722,5.83378 -1.40479,-1.60353 6.96431,-3.9767 9.98243,-2.83047 7.57861,-8.103 2.48445,-15.40665 -3.15763,-4.52709 3.91248,2.1031 -3.40831,6.09944 z"
         id="path3957-5-7-4-9-9-8-8"
         inkscape:connector-curvature="0"
         sodipodi:nodetypes="sssss" /><path
         style="opacity:0.69136155;fill:#b88c5d;fill-opacity:0.69803922"
         d="m 209.20299,111.81124 c 6.178,5.43931 7.7756,1.96782 11.29257,0.54961 4.32132,-1.74254 -0.87168,1.46201 -4.56801,-3.85737 -4.40874,-6.34484 -7.78511,-3.12418 -12.05581,2.60081 -2.6472,3.54856 0.6665,-3.40011 5.33128,0.70696 z"
         id="path3957-5-7-4-9-9-8-8-1"
         inkscape:connector-curvature="0"
         sodipodi:nodetypes="sssss" /><path
         style="font-size:medium;font-style:normal;font-variant:normal;font-weight:normal;font-stretch:normal;text-indent:0;text-align:start;text-decoration:none;line-height:normal;letter-spacing:normal;word-spacing:normal;text-transform:none;direction:ltr;block-progression:tb;writing-mode:lr-tb;text-anchor:start;baseline-shift:baseline;color:#000000;fill:#cdad92;fill-opacity:1;stroke:none;stroke-width:1px;marker:none;visibility:visible;display:inline;overflow:visible;enable-background:accumulate;font-family:Sans;-inkscape-font-specification:Sans"
         d="m 99.142053,172.14525 c -1.570733,-0.3034 -3.079065,-0.92565 -4.414508,-1.87805 -4.446707,-3.17122 -5.518731,-9.44914 -1.560064,-13.84921 3.18315,-3.53811 9.055519,-4.68646 12.772579,-1.71807 2.84155,2.2692 3.43426,6.6476 0.4565,9.47909 -1.05071,0.99912 -2.41118,1.6289 -3.85496,1.75535 -1.4438,0.12637 -3.017005,-0.26942 -4.030736,-1.38583 -0.624151,-0.68738 -0.944211,-1.63319 -0.883385,-2.58599 0.06084,-0.9528 0.641798,-1.98437 1.783719,-2.51018 0.745722,-0.34342 1.390472,-0.30977 2.048722,-0.0738 0.32913,0.11801 0.65127,0.31226 0.86063,0.75272 0.20936,0.44046 0.0975,1.01506 -0.17849,1.40938 l -1.66899,-0.91181 c 0.0205,-0.0292 -0.0601,0.18979 0.0187,0.35554 0.0788,0.16575 0.14506,0.19718 0.10433,0.18258 -0.0814,-0.0292 -0.5483,0.003 -0.37251,-0.0779 -0.402563,0.18539 -0.526579,0.41587 -0.554834,0.85848 -0.02824,0.44256 0.199611,1.02656 0.469634,1.32393 0.58574,0.64505 1.40942,0.84781 2.32455,0.76767 0.91514,-0.0802 1.89921,-0.48076 2.56255,-1.11152 2.05316,-1.95236 1.56953,-5.12347 -0.482,-6.7618 -2.80464,-2.23973 -7.330284,-1.34962 -9.800114,1.39561 -3.155029,3.50684 -2.293576,8.66134 1.31737,11.23653 4.417104,3.15013 9.442694,0.79753 14.720584,-2.50605 1.69597,-1.06157 5.91139,-1.65735 5.94956,-1.70432 l -4.21724,2.61933 c -0.0453,0.0557 -0.10288,0.11498 -0.14898,0.16977 -3.1963,3.80772 -8.51043,5.67871 -13.222637,4.76851 z"
         id="path3045-27-4-9-2-7"
         inkscape:connector-curvature="0"
         sodipodi:nodetypes="csssssssssscccccssssssssccscc" /><path
         style="font-size:medium;font-style:normal;font-variant:normal;font-weight:normal;font-stretch:normal;text-indent:0;text-align:start;text-decoration:none;line-height:normal;letter-spacing:normal;word-spacing:normal;text-transform:none;direction:ltr;block-progression:tb;writing-mode:lr-tb;text-anchor:start;baseline-shift:baseline;color:#000000;fill:#ac9393;fill-opacity:1;stroke:none;stroke-width:1px;marker:none;visibility:visible;display:inline;overflow:visible;enable-background:accumulate;font-family:Sans;-inkscape-font-specification:Sans"
         d="m 132.7133,122.08214 c 0.21184,-0.4884 0.52342,-0.92639 0.9305,-1.27653 1.35547,-1.16591 3.48426,-0.93017 4.63845,0.78489 0.92807,1.37907 0.88216,3.41901 -0.35467,4.36385 -0.9455,0.72229 -2.41908,0.50687 -3.13094,-0.73836 -0.25118,-0.4394 -0.35943,-0.9461 -0.29721,-1.43302 0.0623,-0.48693 0.30449,-0.96748 0.7421,-1.19639 0.26943,-0.14095 0.60151,-0.1576 0.90858,-0.0483 0.30706,0.10938 0.60254,0.3972 0.6925,0.82224 0.0587,0.27757 0.001,0.48657 -0.12288,0.68103 -0.0621,0.0973 -0.14878,0.18503 -0.30776,0.21263 -0.15898,0.0276 -0.33877,-0.063 -0.44785,-0.19084 l 0.41775,-0.46371 c 0.008,0.009 -0.0578,-0.0376 -0.11756,-0.0272 -0.0599,0.0103 -0.0749,0.0293 -0.067,0.0172 0.0155,-0.0239 0.0384,-0.1807 0.0522,-0.11529 -0.0316,-0.14984 -0.098,-0.21225 -0.24076,-0.26303 -0.14264,-0.0508 -0.34986,-0.0306 -0.46643,0.0304 -0.25285,0.13226 -0.3782,0.38428 -0.41765,0.69291 -0.0394,0.30864 0.0213,0.66999 0.17946,0.9474 0.49084,0.8586 1.64568,1.11464 2.24465,0.47526 0.86887,-0.92753 0.85124,-1.27162 0.66552,-1.9327 -0.20967,-0.74621 -0.27765,-0.99917 -0.7281,-1.33543 -5.25618,-3.9239 -3.83137,6.09557 -4.62239,4.80054 -1.01525,-1.40866 -0.78584,-3.34244 -0.15028,-4.80767 z"
         id="path3045-27-4-6-5"
         inkscape:connector-curvature="0"
         sodipodi:nodetypes="csssscssccscccccscccsssccc" /><path
         style="font-size:medium;font-style:normal;font-variant:normal;font-weight:normal;font-stretch:normal;text-indent:0;text-align:start;text-decoration:none;line-height:normal;letter-spacing:normal;word-spacing:normal;text-transform:none;direction:ltr;block-progression:tb;writing-mode:lr-tb;text-anchor:start;baseline-shift:baseline;color:#000000;fill:#cbbcc4;fill-opacity:1;stroke:none;stroke-width:1px;marker:none;visibility:visible;display:inline;overflow:visible;enable-background:accumulate;font-family:Sans;-inkscape-font-specification:Sans"
         d="m 92.95705,136.30047 c -1.276605,0.0972 -2.512235,0.46768 -3.618065,1.13172 -3.682154,2.21109 -4.732304,7.35964 -1.667112,11.43816 2.464713,3.27952 7.170176,4.82682 10.257485,2.71275 2.360132,-1.61613 2.967482,-5.22234 0.647729,-7.88984 -0.818545,-0.94126 -1.897953,-1.60421 -3.059433,-1.85414 -1.161548,-0.24963 -2.442806,-0.0755 -3.293834,0.75795 -0.523972,0.51314 -0.810145,1.27298 -0.789128,2.0767 0.02092,0.80371 0.459491,1.72524 1.365587,2.27939 0.591715,0.36186 1.113055,0.39804 1.651248,0.26612 0.2691,-0.0659 0.534809,-0.19642 0.716754,-0.54427 0.181947,-0.34784 0.108612,-0.84004 -0.102529,-1.19766 l -1.373825,0.59677 c 0.01567,0.0266 -0.0429,-0.16486 0.02558,-0.29577 0.06847,-0.13091 0.122872,-0.15059 0.0896,-0.14243 -0.06659,0.0163 -0.442415,-0.0573 -0.302935,0.0282 -0.319427,-0.19536 -0.412722,-0.40068 -0.422484,-0.77401 -0.0096,-0.37333 0.191344,-0.83948 0.418029,-1.06149 0.491728,-0.48156 1.162451,-0.56909 1.898649,-0.41068 0.736307,0.15793 1.518585,0.59196 2.03535,1.1862 1.59949,1.83925 1.115726,4.44569 -0.588229,5.61249 -2.282514,1.56299 -5.811895,0.4493 -7.752844,-1.98919 l -0.115216,-0.15699 c -2.442936,-3.25056 -1.595821,-7.47968 1.394266,-9.27519 3.657642,-2.19634 6.691305,-1.8162 11.016337,1.69075 1.17558,0.95053 1.418,1.11122 2.08536,1.48642 l 0.79078,0.59228 c -0.0348,-0.0511 -0.74066,-0.90217 -0.77629,-0.95274 -2.46737,-3.50656 -6.701016,-5.60311 -10.530817,-5.31135 z"
         id="path3045-27-4-1"
         inkscape:connector-curvature="0"
         sodipodi:nodetypes="csssscssccscccccsscssccscccccc" /><path
         style="font-size:medium;font-style:normal;font-variant:normal;font-weight:normal;font-stretch:normal;text-indent:0;text-align:start;text-decoration:none;line-height:normal;letter-spacing:normal;word-spacing:normal;text-transform:none;direction:ltr;block-progression:tb;writing-mode:lr-tb;text-anchor:start;baseline-shift:baseline;color:#000000;fill:#c1c1d9;fill-opacity:1;stroke:none;stroke-width:1px;marker:none;visibility:visible;display:inline;overflow:visible;enable-background:accumulate;font-family:Sans;-inkscape-font-specification:Sans"
         d="m 92.915155,113.91904 c -1.183994,0.51545 -2.270903,1.27145 -3.189522,2.23339 l -0.08637,0.0739 c -3.113622,3.34231 -3.062074,8.53621 0.760785,11.30971 3.073948,2.23015 7.962257,2.06341 10.518772,-0.98319 1.95436,-2.32901 1.79384,-5.92286 -1.012158,-7.62844 -0.990123,-0.60182 -2.17553,-0.8527 -3.354693,-0.68765 -1.179164,0.16508 -2.386381,0.76969 -3.038957,1.84481 -0.401789,0.66194 -0.521498,1.4736 -0.333963,2.22075 0.187536,0.74716 0.804706,1.46125 1.799288,1.6696 0.649503,0.13607 1.16297,-0.009 1.657839,-0.31838 0.247434,-0.1545 0.47817,-0.36838 0.582405,-0.75747 0.104241,-0.38911 -0.06929,-0.82585 -0.348562,-1.08889 l -1.209156,1.03287 c -0.452131,0.12299 -0.772897,-0.12344 -0.838505,-0.90149 -0.08711,-0.34704 0.01111,-0.85379 0.184943,-1.14016 0.377062,-0.6212 1.009777,-0.93416 1.757184,-1.03879 0.732338,-0.10251 1.550397,0.0636 2.17149,0.42727 l 0.05045,-0.0143 c 1.934755,1.17601 2.007305,3.78892 0.596312,5.47041 -1.928976,2.29877 -5.696979,2.42319 -8.082076,0.6928 -3.046792,-2.21046 -3.171176,-6.71712 -0.642765,-9.43127 3.092898,-3.32008 8.05528,-3.43319 11.463254,-0.48264 0.89704,0.77663 0.8524,1.01331 1.74484,2.27383 l 1.76005,1.75353 c -0.63904,-1.52831 -1.16247,-3.86761 -2.35625,-5.0593 -2.80627,-2.80136 -6.898589,-3.06252 -10.554633,-1.4709 z"
         id="path3045-27-4-7"
         inkscape:connector-curvature="0"
         sodipodi:nodetypes="sccssssssssscccssccssssccss" /><path
         style="font-size:medium;font-style:normal;font-variant:normal;font-weight:normal;font-stretch:normal;text-indent:0;text-align:start;text-decoration:none;line-height:normal;letter-spacing:normal;word-spacing:normal;text-transform:none;direction:ltr;block-progression:tb;writing-mode:lr-tb;text-anchor:start;baseline-shift:baseline;color:#000000;fill:#c7acac;fill-opacity:1;stroke:none;stroke-width:1px;marker:none;visibility:visible;display:inline;overflow:visible;enable-background:accumulate;font-family:Sans;-inkscape-font-specification:Sans"
         d="m 147.47495,131.83892 c -1.31966,-0.36481 -2.57467,-1.01999 -3.67055,-1.97137 -3.64897,-3.16783 -4.32046,-9.02521 -0.79915,-12.87843 2.83148,-3.0984 7.85192,-3.845 10.89015,-0.90363 2.32263,2.24855 2.6596,6.32536 0.0289,8.78193 -0.92826,0.86683 -2.1051,1.37582 -3.33353,1.41538 -1.22844,0.0396 -2.54685,-0.41041 -3.36386,-1.49608 -0.50302,-0.66847 -0.73858,-1.55939 -0.65103,-2.4364 0.0876,-0.87704 0.61889,-1.79895 1.60657,-2.22364 0.645,-0.27732 1.19018,-0.21175 1.73917,0.0415 0.27449,0.1266 0.54017,0.32336 0.70097,0.7415 0.16081,0.41813 0.0443,0.943 -0.2045,1.29252 -1.64579,-1.12156 -2.34802,0.01 -1.76351,1.4916 0.47207,0.62732 1.16252,0.85871 1.94117,0.83365 0.77862,-0.0256 1.6278,-0.34249 2.21383,-0.88974 1.81388,-1.69382 1.52375,-4.64941 -0.15317,-6.27284 -2.29247,-2.21935 -6.16175,-1.63926 -8.35871,0.76481 -2.80644,3.071 -2.27101,7.87923 0.69215,10.45165 8.28664,4.28872 13.0491,-2.90006 12.50352,-0.9058 -0.39028,1.24953 -5.37087,5.44253 -10.01843,4.16315 z"
         id="path3045-27-4-7-2-0"
         inkscape:connector-curvature="0"
         sodipodi:nodetypes="csssssssscsccsssscccc" /><path
         style="font-size:medium;font-style:normal;font-variant:normal;font-weight:normal;font-stretch:normal;text-indent:0;text-align:start;text-decoration:none;line-height:normal;letter-spacing:normal;word-spacing:normal;text-transform:none;direction:ltr;block-progression:tb;writing-mode:lr-tb;text-anchor:start;baseline-shift:baseline;color:#000000;fill:#d9d9d9;fill-opacity:1;stroke:none;stroke-width:1px;marker:none;visibility:visible;display:inline;overflow:visible;enable-background:accumulate;font-family:Sans;-inkscape-font-specification:Sans"
         d="m 98.030487,135.38208 c -0.171907,-0.98283 -0.123146,-2.01323 0.179446,-3.03062 1.007551,-3.38768 4.813187,-5.64763 8.583867,-4.52259 3.03199,0.90462 5.14971,3.98154 4.10233,6.89646 -0.80071,2.22834 -3.49117,3.71536 -6.01843,2.74391 -0.89177,-0.34279 -1.61743,-0.96041 -2.03737,-1.7577 -0.41995,-0.7973 -0.53265,-1.80578 -0.0491,-2.68106 0.29797,-0.53891 0.83417,-0.97059 1.46412,-1.18502 0.62995,-0.21442 1.43263,-0.15031 2.03993,0.36882 0.3966,0.33903 0.52589,0.71866 0.52757,1.15905 6.8e-4,0.2202 -0.0492,0.45631 -0.28482,0.69203 -0.23557,0.23572 -0.63308,0.32182 -0.95253,0.26627 l 0.19822,-1.1986 c 0.0237,0.005 -0.13671,0.0151 -0.22537,0.10382 -0.0886,0.0887 -0.0934,0.13505 -0.0935,0.10779 -2.4e-4,-0.0544 -0.13039,-0.31457 -0.0369,-0.23466 -0.21409,-0.18301 -0.39209,-0.194 -0.6847,-0.0944 -0.29262,0.0997 -0.61662,0.38354 -0.74552,0.61667 -0.27962,0.50576 -0.21768,1.03257 0.0485,1.53793 0.26618,0.50538 0.75557,0.9665 1.31856,1.18292 1.74257,0.66983 3.67844,-0.43845 4.25652,-2.04726 0.77437,-2.15506 -0.77754,-4.47635 -3.053,-5.23003 l -0.14458,-0.0413 c -3.00521,-0.89665 -6.13424,0.94812 -6.95242,3.69908 -1.000844,3.36513 1.48176,6.87015 5.06785,7.8106 0.0392,0.01 0.44833,0.14752 0.48774,0.15719 -0.7697,-0.0677 -1.71037,-0.38655 -0.1878,0.0492 -3.20929,-0.84169 -6.293172,-2.42032 -6.80889,-5.36883 z"
         id="path3045-27-4-1-9"
         inkscape:connector-curvature="0"
         sodipodi:nodetypes="csssssssscsccsccsscssccsccccc" /><path
         style="font-size:medium;font-style:normal;font-variant:normal;font-weight:normal;font-stretch:normal;text-indent:0;text-align:start;text-decoration:none;line-height:normal;letter-spacing:normal;word-spacing:normal;text-transform:none;direction:ltr;block-progression:tb;writing-mode:lr-tb;text-anchor:start;baseline-shift:baseline;color:#000000;fill:#aa8679;fill-opacity:1;stroke:none;stroke-width:1px;marker:none;visibility:visible;display:inline;overflow:visible;enable-background:accumulate;font-family:Sans;-inkscape-font-specification:Sans"
         d="m 172.80261,138.48966 c 0.5818,-1.43608 0.86509,-3.00097 0.78176,-4.61199 -0.27744,-5.36432 -4.93308,-9.75451 -10.698,-9.03635 -4.63554,0.57749 -8.71055,4.6642 -8.21438,9.32666 0.37933,3.56427 3.70862,6.50124 7.64694,5.69236 1.38968,-0.2854 2.63647,-1.02788 3.50862,-2.12019 0.87215,-1.09232 1.3783,-2.58233 0.98753,-4.02627 -0.24054,-0.88902 -0.85773,-1.67818 -1.68306,-2.16438 -0.82532,-0.48619 -1.9925,-0.5975 -3.0367,0.0272 -0.6819,0.40798 -0.99638,0.9464 -1.14956,1.60939 -0.0769,0.33146 -0.0861,0.70019 0.16936,1.1163 0.25539,0.4161 0.79304,0.64874 1.26783,0.64782 l 0.12761,-1.85697 c 0.4927,0.49517 0.88787,0.0119 1.52453,0.0925 0.38337,0.22582 0.74839,0.73748 0.85245,1.12209 0.22577,0.83431 -0.0429,1.61189 -0.59577,2.30425 -0.55281,0.69238 -1.40891,1.26028 -2.28625,1.44047 -2.71552,0.55773 -5.09794,-1.61325 -5.37179,-4.18657 -0.3744,-3.51798 2.77032,-6.6646 6.3671,-7.11267 4.59458,-0.57237 8.42707,3.01712 8.65237,7.37321 0.27558,5.32863 -4.99842,8.13741 -10.49451,10.45814 5.53475,-0.75213 0.46317,1.78682 0.81657,2.70511 2.99182,-1.73484 7.45498,-3.62406 10.82713,-8.80027 z"
         id="path3045-27-4-7-2-0-1"
         inkscape:connector-curvature="0"
         sodipodi:nodetypes="csssssssscsccccssssscccc" /><path
         style="font-size:medium;font-style:normal;font-variant:normal;font-weight:normal;font-stretch:normal;text-indent:0;text-align:start;text-decoration:none;line-height:normal;letter-spacing:normal;word-spacing:normal;text-transform:none;direction:ltr;block-progression:tb;writing-mode:lr-tb;text-anchor:start;baseline-shift:baseline;color:#000000;fill:#d1c2c2;fill-opacity:1;stroke:none;stroke-width:1px;marker:none;visibility:visible;display:inline;overflow:visible;enable-background:accumulate;font-family:Sans;-inkscape-font-specification:Sans"
         d="m 144.44357,111.59564 c -0.32818,-1.00071 -0.86917,-1.93918 -1.6233,-2.74237 -2.51104,-2.6744 -6.89071,-2.94007 -9.60014,-0.0625 -2.17863,2.31384 -2.51563,6.21261 -0.19925,8.42634 1.77077,1.69232 4.81343,1.77681 6.52406,-0.35483 0.60361,-0.75215 0.93067,-1.6804 0.90682,-2.62824 -0.0232,-0.94785 -0.41519,-1.94394 -1.25699,-2.52657 -0.51829,-0.35873 -1.19024,-0.5019 -1.83786,-0.39682 -0.64761,0.10511 -1.30936,0.55391 -1.582,1.33285 -0.17803,0.50869 -0.10569,0.92577 0.1063,1.33771 0.10598,0.20597 0.26335,0.40231 0.58111,0.50806 0.31756,0.1059 0.70236,-0.006 0.95117,-0.21301 -0.90438,-1.21941 -0.0942,-1.80887 1.03149,-1.42228 0.48639,0.33664 0.68816,0.85849 0.7033,1.45928 0.0148,0.60078 -0.18385,1.26842 -0.56493,1.74328 -1.17948,1.46977 -3.38734,1.37322 -4.6658,0.15126 -1.74778,-1.67034 -1.48457,-4.67536 0.20584,-6.47067 2.15939,-2.29337 5.75393,-2.08746 7.79301,0.0843 3.54454,6.19817 -1.58858,10.17486 -0.13098,9.66904 0.91119,-0.35425 3.80972,-4.37031 2.65808,-7.89492 z"
         id="path3045-27-4-7-2-0-9"
         inkscape:connector-curvature="0"
         sodipodi:nodetypes="csssssssscsccsssscccc" /><path
         style="font-size:medium;font-style:normal;font-variant:normal;font-weight:normal;font-stretch:normal;text-indent:0;text-align:start;text-decoration:none;line-height:normal;letter-spacing:normal;word-spacing:normal;text-transform:none;direction:ltr;block-progression:tb;writing-mode:lr-tb;text-anchor:start;baseline-shift:baseline;color:#000000;fill:#b89481;fill-opacity:1;stroke:none;stroke-width:1px;marker:none;visibility:visible;display:inline;overflow:visible;enable-background:accumulate;font-family:Sans;-inkscape-font-specification:Sans"
         d="m 153.53449,169.21569 c -0.99088,0.3568 -1.91342,0.92452 -2.69461,1.70141 -2.60116,2.58681 -2.74093,6.97232 0.21337,9.59797 2.37547,2.11128 6.2823,2.33614 8.42858,-0.0429 1.64077,-1.81865 1.63782,-4.86249 -0.54205,-6.51118 -0.7692,-0.58176 -1.70647,-0.88203 -2.65322,-0.83096 -0.94674,0.0514 -1.93122,0.47087 -2.48943,1.32905 -0.34369,0.52837 -0.4675,1.20416 -0.34385,1.8485 0.1237,0.64432 0.59129,1.29291 1.37773,1.54305 0.51359,0.16335 0.92842,0.0791 1.3341,-0.14468 0.20286,-0.11185 0.3946,-0.2748 0.49116,-0.59547 0.0968,-0.32046 -0.0266,-0.70188 -0.24024,-0.94464 -1.19292,0.93903 -1.80541,0.14622 -1.45132,-0.99021 0.32254,-0.49588 0.83837,-0.71255 1.43848,-0.74493 0.60011,-0.032 1.27317,0.14733 1.75878,0.51462 1.50305,1.13676 1.46996,3.34649 0.28529,4.65954 -1.61944,1.79502 -4.63078,1.61824 -6.47391,-0.0199 -2.35444,-2.09259 -2.25187,-5.69156 -0.13961,-7.79219 6.09379,-3.72111 10.21628,1.29565 9.6688,-0.14677 -0.38028,-0.90065 -4.47793,-3.68263 -7.96801,-2.43022 z"
         id="path3045-27-4-7-2-0-9-0"
         inkscape:connector-curvature="0"
         sodipodi:nodetypes="csssssssscsccsssscccc" /><path
         style="font-size:medium;font-style:normal;font-variant:normal;font-weight:normal;font-stretch:normal;text-indent:0;text-align:start;text-decoration:none;line-height:normal;letter-spacing:normal;word-spacing:normal;text-transform:none;direction:ltr;block-progression:tb;writing-mode:lr-tb;text-anchor:start;baseline-shift:baseline;color:#000000;fill:#ac9393;fill-opacity:1;stroke:none;stroke-width:1px;marker:none;visibility:visible;display:inline;overflow:visible;enable-background:accumulate;font-family:Sans;-inkscape-font-specification:Sans"
         d="m 123.09579,119.45831 c 0.0148,-3.59374 -2.5775,-6.80029 -5.99168,-6.66688 -2.74534,0.10727 -5.27744,2.58821 -5.14034,5.72701 0.10481,2.39953 1.96531,4.55753 4.30829,4.25418 0.82674,-0.10712 1.58463,-0.52742 2.13379,-1.20355 0.54914,-0.67612 0.89626,-1.63936 0.71437,-2.62565 -0.11205,-0.60727 -0.44878,-1.17049 -0.91802,-1.54417 -0.46925,-0.37365 -1.15193,-0.51785 -1.78679,-0.16381 -0.41453,0.23119 -0.61736,0.57138 -0.72946,1.00429 -0.0556,0.21655 -0.0738,0.46175 0.0621,0.75457 0.13641,0.29278 0.44491,0.48013 0.72413,0.50798 0.15783,-1.47261 1.0174,-1.32394 1.4943,-0.27823 0.10495,0.56989 -0.0788,1.07229 -0.42689,1.50084 -0.34806,0.42857 -0.87038,0.75597 -1.39232,0.82353 -1.61551,0.20918 -2.94458,-1.38129 -3.02025,-3.11369 -0.10355,-2.36835 1.85035,-4.27817 3.98049,-4.36138 1.5447,-0.0604 3.54999,0.88541 4.33781,2.77725 0.59992,1.44072 0.11491,3.67284 0.11007,4.93444 1.233,-1.55073 0.8547,0.48136 1.32758,0.62749 0.038,-1.33999 0.20657,-1.78922 0.21266,-2.95418 z"
         id="path3045-27-4-7-2-0-19"
         inkscape:connector-curvature="0"
         sodipodi:nodetypes="cssssssscsccsssssccc" /><path
         style="font-size:medium;font-style:normal;font-variant:normal;font-weight:normal;font-stretch:normal;text-indent:0;text-align:start;text-decoration:none;line-height:normal;letter-spacing:normal;word-spacing:normal;text-transform:none;direction:ltr;block-progression:tb;writing-mode:lr-tb;text-anchor:start;baseline-shift:baseline;color:#000000;fill:#c3baba;fill-opacity:1;stroke:none;stroke-width:1px;marker:none;visibility:visible;display:inline;overflow:visible;enable-background:accumulate;font-family:Sans;-inkscape-font-specification:Sans"
         d="m 125.11767,92.66432 c -1.13815,0.126147 -2.25589,0.471184 -3.27532,1.049502 -3.3945,1.925664 -4.62344,6.132379 -2.13941,9.321218 1.99741,2.56413 6.08283,3.64335 8.94398,1.81814 2.18723,-1.39531 2.9343,-4.33709 1.03018,-6.411104 -0.67194,-0.731815 -1.59132,-1.228751 -2.60735,-1.388294 -1.0161,-0.159256 -2.16291,0.0289 -2.96608,0.734974 -0.49452,0.434736 -0.79228,1.06041 -0.82002,1.710281 -0.0278,0.649863 0.30805,1.379743 1.07995,1.794973 0.5041,0.27113 0.96455,0.28122 1.44967,0.15456 0.24256,-0.0633 0.48593,-0.17847 0.66734,-0.46702 0.18151,-0.28831 0.14487,-0.68405 -0.0216,-0.96578 -1.49579,0.64417 -1.94957,-0.257072 -1.29422,-1.276995 0.46407,-0.407978 1.0642,-0.503532 1.70823,-0.402431 0.64394,0.101459 1.31313,0.423261 1.73731,0.885292 1.31295,1.429994 0.73324,3.557904 -0.84594,4.565284 -2.15885,1.37717 -5.30697,0.54197 -6.8568,-1.44754 -1.97972,-2.541467 -0.98399,-5.996391 1.77249,-7.560117 7.37588,-2.251126 10.50893,3.505915 10.28414,1.991327 -0.18111,-0.954153 -3.83856,-4.546323 -7.84633,-4.106164 z"
         id="path3045-27-4-7-2-0-9-08"
         inkscape:connector-curvature="0"
         sodipodi:nodetypes="csssssssscsccsssscccc" /><path
         style="font-size:medium;font-style:normal;font-variant:normal;font-weight:normal;font-stretch:normal;text-indent:0;text-align:start;text-decoration:none;line-height:normal;letter-spacing:normal;word-spacing:normal;text-transform:none;direction:ltr;block-progression:tb;writing-mode:lr-tb;text-anchor:start;baseline-shift:baseline;color:#000000;fill:#a7a7a7;fill-opacity:1;stroke:none;stroke-width:1px;marker:none;visibility:visible;display:inline;overflow:visible;enable-background:accumulate;font-family:Sans;-inkscape-font-specification:Sans"
         d="m 128.7696,92.702973 c -0.16127,-1.214795 -0.0714,-2.480714 0.30468,-3.722104 1.2527,-4.133577 5.63014,-6.786089 9.85434,-5.275745 3.39663,1.214461 5.68685,5.070484 4.405,8.621153 -0.97984,2.714371 -4.07089,4.453441 -6.89481,3.173706 -0.99644,-0.451615 -1.79588,-1.235678 -2.24375,-2.230529 -0.44757,-0.995005 -0.54134,-2.239192 0.0351,-3.299716 0.35495,-0.652953 0.97548,-1.166018 1.69472,-1.408681 0.7192,-0.242723 1.62434,-0.136907 2.29333,0.522053 0.43687,0.430345 0.57026,0.901684 0.55731,1.443493 -0.006,0.270867 -0.0708,0.559677 -0.34508,0.841793 -0.27422,0.282079 -0.72642,0.374655 -1.08563,0.295621 0.32346,-1.754161 -0.80448,-1.925074 -1.77101,-0.913539 -0.33308,0.612757 -0.2807,1.262908 0.003,1.893495 0.28424,0.630403 0.82151,1.214238 1.45061,1.49934 1.94705,0.882445 4.17241,-0.416079 4.87992,-2.375795 0.96715,-2.679133 -0.80166,-5.649307 -3.43708,-6.591624 -3.36661,-1.203703 -6.96537,0.960748 -7.98261,4.317404 -0.5606,8.345025 9.81493,10.496706 8.06189,10.763852 -1.11483,0.12761 -9.20897,-3.277747 -9.77985,-7.554204 z"
         id="path3045-27-4-7-2-0-9-08-3"
         inkscape:connector-curvature="0"
         sodipodi:nodetypes="csssssssscsccsssscccc" /><path
         style="font-size:medium;font-style:normal;font-variant:normal;font-weight:normal;font-stretch:normal;text-indent:0;text-align:start;text-decoration:none;line-height:normal;letter-spacing:normal;word-spacing:normal;text-transform:none;direction:ltr;block-progression:tb;writing-mode:lr-tb;text-anchor:start;baseline-shift:baseline;color:#000000;fill:#dfcdcd;fill-opacity:1;stroke:none;stroke-width:1px;marker:none;visibility:visible;display:inline;overflow:visible;enable-background:accumulate;font-family:Sans;-inkscape-font-specification:Sans"
         d="m 127.69842,80.821203 c -0.94885,-0.747614 -2.091,-1.314758 -3.38342,-1.632889 -4.30349,-1.059328 -9.19922,1.208216 -10.42283,5.456663 -0.98399,3.416129 0.96499,7.256995 4.78454,7.997203 2.91987,0.565853 6.26167,-1.103072 6.8474,-4.079901 0.20659,-1.050431 0.01,-2.106677 -0.57858,-2.979662 -0.58853,-0.872819 -1.60266,-1.579989 -2.85907,-1.641462 -0.7736,-0.03783 -1.58549,0.21427 -2.22373,0.684616 -0.63831,0.470306 -1.08786,1.270374 -0.92064,2.155673 0.10934,0.578139 0.43501,0.926772 0.90876,1.190371 0.23683,0.131833 0.52364,0.225052 0.93016,0.141456 0.40638,-0.08335 0.75605,-0.409439 0.90266,-0.745621 -1.70198,-0.62117 -1.17533,-1.638017 0.27192,-1.923098 0.72598,0.0355 1.25391,0.407775 1.62677,0.961095 0.3725,0.553546 0.55381,1.292214 0.42329,1.955375 -0.40378,2.052554 -2.84967,3.230601 -4.9578,2.822047 -2.88196,-0.558525 -4.38036,-3.520902 -3.61695,-6.171517 0.97529,-3.385939 4.98614,-5.258312 8.48075,-4.398097 7.51256,3.762039 4.31911,10.431102 5.59584,9.120535 0.77553,-0.854871 1.52819,-6.277007 -1.80916,-8.912633 z"
         id="path3045-27-4-7-2-0-9-08-4"
         inkscape:connector-curvature="0"
         sodipodi:nodetypes="csssssssscsccsssscccc" /><path
         style="font-size:medium;font-style:normal;font-variant:normal;font-weight:normal;font-stretch:normal;text-indent:0;text-align:start;text-decoration:none;line-height:normal;letter-spacing:normal;word-spacing:normal;text-transform:none;direction:ltr;block-progression:tb;writing-mode:lr-tb;text-anchor:start;baseline-shift:baseline;color:#000000;fill:#cecece;fill-opacity:1;stroke:none;stroke-width:1px;marker:none;visibility:visible;display:inline;overflow:visible;enable-background:accumulate;font-family:Sans;-inkscape-font-specification:Sans"
         d="m 123.03746,63.74539 c -0.0672,-0.66528 -0.28092,-1.317742 -0.65218,-1.91175 -1.23622,-1.977905 -4.03045,-2.679685 -6.20025,-1.213531 -1.74473,1.178887 -2.52818,3.573217 -1.35104,5.239533 0.89988,1.273838 2.85559,1.698847 4.2712,0.576506 0.49948,-0.396066 0.84571,-0.935871 0.96772,-1.530932 0.12187,-0.595064 0.0134,-1.265161 -0.44658,-1.732123 -0.28321,-0.287513 -0.69707,-0.459125 -1.13119,-0.472733 -0.43412,-0.01363 -0.92722,0.185792 -1.21654,0.639067 -0.18887,0.296043 -0.20266,0.565397 -0.12528,0.848663 0.0385,0.141684 0.11194,0.283558 0.30214,0.388489 0.19003,0.105089 0.45521,0.082 0.64612,-0.01666 -0.40812,-0.872392 0.20138,-1.141514 0.87345,-0.762281 0.26579,0.269815 0.32061,0.620492 0.2432,0.997654 -0.0776,0.377126 -0.30283,0.769915 -0.61824,1.019913 -0.97604,0.773903 -2.39009,0.443419 -3.03978,-0.476304 -0.88818,-1.25727 -0.28207,-3.102312 1.07165,-4.017032 1.72933,-1.168474 4.02439,-0.600076 5.02826,1.006064 1.39362,4.305644 -2.50326,6.161895 -1.48712,6.024203 0.64075,-0.109816 3.09799,-2.264033 2.86432,-4.606741 z"
         id="path3045-27-4-7-2-0-9-08-4-6"
         inkscape:connector-curvature="0"
         sodipodi:nodetypes="csssssssscsccsssscccc" /><path
         style="font-size:medium;font-style:normal;font-variant:normal;font-weight:normal;font-stretch:normal;text-indent:0;text-align:start;text-decoration:none;line-height:normal;letter-spacing:normal;word-spacing:normal;text-transform:none;direction:ltr;block-progression:tb;writing-mode:lr-tb;text-anchor:start;baseline-shift:baseline;color:#000000;fill:#d4d4d4;fill-opacity:1;stroke:none;stroke-width:1px;marker:none;visibility:visible;display:inline;overflow:visible;enable-background:accumulate;font-family:Sans;-inkscape-font-specification:Sans"
         d="m 118.44348,73.099454 c -0.0762,-1.149095 0.0991,-2.338533 0.5575,-3.496035 1.52638,-3.854243 6.05182,-6.217009 10.13983,-4.663917 3.28719,1.248736 5.29536,4.951212 3.77997,8.255598 -1.15839,2.526052 -4.34475,4.068335 -7.05907,2.775739 -0.95778,-0.456154 -1.69735,-1.219235 -2.07351,-2.170105 -0.37596,-0.950887 -0.38368,-2.125595 0.26097,-3.106559 0.39694,-0.604 1.0479,-1.067977 1.77821,-1.274294 0.73031,-0.206311 1.62119,-0.07869 2.23985,0.562565 0.40397,0.418824 0.50405,0.866833 0.45399,1.376724 -0.0243,0.255037 -0.10844,0.52498 -0.40018,0.782111 -0.29138,0.257317 -0.74647,0.330466 -1.09747,0.244938 0.44128,-1.64205 -0.66634,-1.837891 -1.69472,-0.915143 -0.37251,0.566812 -0.36515,1.180729 -0.12665,1.783397 0.2388,0.602543 0.73195,1.168968 1.33663,1.456909 1.87152,0.891313 4.16871,-0.262803 5.00506,-2.086675 1.14338,-2.493233 -0.40815,-5.34529 -2.95865,-6.314253 -3.25809,-1.237707 -6.9774,0.689449 -8.2169,3.819233 -1.12834,7.842016 5.99184,9.322583 4.23403,9.519979 -1.11498,0.08568 -5.88546,-2.505054 -6.15876,-6.550249 z"
         id="path3045-27-4-7-2-0-9-08-4-6-8"
         inkscape:connector-curvature="0"
         sodipodi:nodetypes="csssssssscsccsssscccc" /><path
         style="font-size:medium;font-style:normal;font-variant:normal;font-weight:normal;font-stretch:normal;text-indent:0;text-align:start;text-decoration:none;line-height:normal;letter-spacing:normal;word-spacing:normal;text-transform:none;direction:ltr;block-progression:tb;writing-mode:lr-tb;text-anchor:start;baseline-shift:baseline;color:#000000;fill:#c0b6ac;fill-opacity:1;stroke:none;stroke-width:1px;marker:none;visibility:visible;display:inline;overflow:visible;enable-background:accumulate;font-family:Sans;-inkscape-font-specification:Sans"
         d="m 141.74004,68.794194 c -1.73679,0.02139 -3.47545,0.613677 -4.90124,1.895696 -2.62053,2.356279 -3.26476,6.569751 -0.79396,9.127989 1.88879,1.955679 5.30397,2.250214 7.38279,0.05899 0.73354,-0.77317 1.17019,-1.74597 1.20719,-2.774472 0.037,-1.028498 -0.32135,-2.156701 -1.23423,-2.846026 -0.56206,-0.424435 -1.31035,-0.612273 -2.04997,-0.543166 -0.73964,0.06911 -1.52545,0.512276 -1.8864,1.337339 -0.23566,0.538801 -0.18108,0.990045 0.0309,1.450939 0.10592,0.23046 0.27852,0.46762 0.63056,0.604273 0.35205,0.136637 0.78179,0.02932 1.0772,-0.177361 L 140.437,75.771071 c -0.0219,0.01529 0.14537,-0.05732 0.27784,-0.0059 0.13255,0.05147 0.13863,0.118516 0.12545,0.08999 -0.0195,-0.04276 -0.0147,-0.265468 -0.0375,-0.308053 0.12573,-0.259182 0.28246,-0.353039 0.60954,-0.383599 0.34355,-0.03213 0.81302,0.102764 1.05619,0.286361 0.52745,0.398306 0.70721,1.00132 0.68378,1.653231 -0.0235,0.651913 -0.26995,1.349689 -0.73299,1.837824 -1.43336,1.510858 -3.92115,1.246522 -5.28487,-0.165433 -1.86427,-1.93028 -1.3792,-5.16569 0.6541,-6.993943 2.59741,-2.335449 6.65602,-1.847432 8.81598,0.646175 1.76239,2.034593 1.58812,4.310439 0.60704,6.750894 -0.5265,0.550868 -0.99411,1.157749 -1.35174,1.78923 -0.71362,1.26005 -1.08716,2.660659 -1.14873,4.070398 -0.002,0.04102 0.006,0.08328 0.003,0.123484 -0.007,0.247618 -0.0275,0.493704 -0.0151,0.741563 4.6e-4,0.05447 0.003,0.137513 0.004,0.185226 0.004,0.238826 0.0174,0.394206 0.009,0.401324 l 0.0296,-0.0624 c 0.20387,1.878008 1.00747,3.731909 2.33578,5.262487 0.0383,0.04412 0.0565,0.108877 0.0959,0.152385 l 2.21292,3.844393 c 0.98035,1.115239 -1.09181,-3.328172 -1.64609,-4.783013 -1.49334,-3.919501 -1.72213,-7.760377 0.54959,-10.450843 0.12457,-0.147535 0.24803,-0.299102 0.39212,-0.440739 0.26346,-0.258986 0.54678,-0.521788 0.87949,-0.759967 3.13324,-2.243058 7.93939,-1.961859 10.33721,1.015288 1.87703,2.330586 1.63462,5.857645 -1.0127,7.557509 -1.93652,1.243403 -4.8975,1.052956 -6.16373,-0.826189 -0.40898,-0.607113 -0.52537,-1.424908 -0.38493,-2.122871 0.14039,-0.69796 0.52116,-1.277691 1.23218,-1.601373 0.32782,-0.14919 0.87551,-0.218896 1.26375,-0.11957 0.37155,0.09505 0.5514,0.239564 0.62925,0.542532 -0.0378,0.04089 -0.11478,0.239345 -0.14843,0.281126 -0.0225,0.02783 0.0493,-0.006 0.21543,-0.03547 0.16607,-0.02962 0.33132,0.07561 0.31003,0.05517 l -1.21249,1.075909 c 0.28781,0.275912 0.77111,0.454278 1.21252,0.375685 0.44137,-0.0786 0.70398,-0.257051 0.8854,-0.482128 0.36277,-0.450143 0.53285,-0.934865 0.39932,-1.552753 -0.20467,-0.946177 -0.99344,-1.569461 -1.8293,-1.783265 -0.83586,-0.213813 -1.73958,-0.137311 -2.49727,0.2076 -1.2306,0.560173 -1.94336,1.662837 -2.16486,2.763978 -0.22149,1.101154 0.007,2.23645 0.65491,3.198099 1.83636,2.725353 5.90132,3.05283 8.58349,1.330595 3.50856,-2.252854 3.84628,-6.848136 1.42712,-9.851826 -2.71925,-3.376291 -7.76926,-3.93745 -11.56223,-1.977525 0.0318,-0.796122 -0.0961,-1.694948 -0.39939,-2.802032 -0.30329,-1.106922 -0.84197,-2.162231 -1.64081,-3.08445 -1.49617,-1.727298 -3.72186,-2.649476 -5.95487,-2.621968 z"
         id="path3045-27-4-9-2-7-1"
         inkscape:connector-curvature="0"
         sodipodi:nodetypes="ssccccsccccccccccccssscscccccccccscsssccccccccccccccsccsscccs" /><path
         style="font-size:medium;font-style:normal;font-variant:normal;font-weight:normal;font-stretch:normal;text-indent:0;text-align:start;text-decoration:none;line-height:normal;letter-spacing:normal;word-spacing:normal;text-transform:none;direction:ltr;block-progression:tb;writing-mode:lr-tb;text-anchor:start;baseline-shift:baseline;color:#000000;fill:#b29b88;fill-opacity:1;stroke:none;stroke-width:1px;marker:none;visibility:visible;display:inline;overflow:visible;enable-background:accumulate;font-family:Sans;-inkscape-font-specification:Sans"
         d="m 154.45241,95.220104 c 0.42716,-1.021445 1.06581,-1.961769 1.90841,-2.745105 2.8057,-2.608321 7.28847,-2.561434 9.77754,0.645871 2.00144,2.578992 1.98032,6.677577 -0.58418,8.81897 -1.96047,1.63705 -5.06541,1.49992 -6.60748,-0.85405 -0.54417,-0.8306 -0.79039,-1.824709 -0.67758,-2.813284 0.11282,-0.98857 0.60418,-2.000374 1.51541,-2.546767 0.56108,-0.336427 1.25842,-0.436221 1.90778,-0.278459 0.64937,0.157755 1.28104,0.675751 1.48576,1.50983 0.13368,0.544684 0.0212,0.975102 -0.23303,1.389826 -0.12706,0.207363 -0.30585,0.400675 -0.63895,0.487796 -0.3331,0.08711 -0.71429,-0.05868 -0.94827,-0.293027 l 0.86082,-1.013111 c 0.0174,0.01736 -0.12267,-0.06376 -0.24804,-0.03094 -0.12537,0.0328 -0.15624,0.07358 -0.14051,0.04794 0.0315,-0.05134 0.074,-0.369875 0.10542,-0.241516 -0.0722,-0.294044 -0.21413,-0.405868 -0.51578,-0.479157 -0.30162,-0.07331 -0.73639,0.0088 -0.97912,0.154258 -0.52652,0.315721 -0.78065,0.846014 -0.85216,1.472618 -0.0715,0.626605 0.0686,1.33894 0.4122,1.863313 1.06329,1.62306 3.31962,1.68574 4.73506,0.50385 1.93499,-1.615764 1.94775,-4.77503 0.3948,-6.77609 -1.98378,-2.5562 -5.66176,-2.607321 -7.94013,-0.489236 -2.787,2.590956 -1.85937,6.266411 -0.31014,10.228456 0.4978,1.27316 0.32455,4.18729 0.35201,4.21875 l -1.22385,-3.16335 c -0.0324,-0.0371 -0.0652,-0.0834 -0.0966,-0.12119 -2.18579,-2.62092 -2.74095,-6.431815 -1.45943,-9.49617 z"
         id="path3045-27-4-9-2-7-1-1"
         inkscape:connector-curvature="0"
         sodipodi:nodetypes="csssssssssscccccssssssssccscc" /><path
         style="font-size:medium;font-style:normal;font-variant:normal;font-weight:normal;font-stretch:normal;text-indent:0;text-align:start;text-decoration:none;line-height:normal;letter-spacing:normal;word-spacing:normal;text-transform:none;direction:ltr;block-progression:tb;writing-mode:lr-tb;text-anchor:start;baseline-shift:baseline;color:#000000;fill:#dbcccc;fill-opacity:1;stroke:none;stroke-width:1px;marker:none;visibility:visible;display:inline;overflow:visible;enable-background:accumulate;font-family:Sans;-inkscape-font-specification:Sans"
         d="m 145.64426,66.362661 c 0.42435,-1.059621 1.08648,-2.057297 1.98319,-2.91594 2.98589,-2.859088 7.96422,-3.211629 10.88519,-0.22498 2.34883,2.401352 2.52723,6.50303 -0.21391,8.873603 -2.09553,1.812191 -5.54888,1.951676 -7.37666,-0.265553 -0.64487,-0.782407 -0.96727,-1.754805 -0.89066,-2.753754 0.0769,-0.99892 0.57211,-2.054744 1.55664,-2.682528 0.60626,-0.386514 1.37538,-0.548426 2.10398,-0.448521 0.72863,0.09989 1.45531,0.561699 1.72369,1.377838 0.17528,0.532927 0.0714,0.973522 -0.1904,1.410981 -0.13101,0.21875 -0.3195,0.428214 -0.68519,0.544886 -0.36549,0.117023 -0.79584,0.005 -1.06707,-0.208528 1.08878,-1.299607 0.20133,-1.907135 -1.09499,-1.481227 -0.5689,0.362728 -0.82486,0.915815 -0.8733,1.54898 -0.048,0.633178 0.14221,1.333208 0.54936,1.827138 1.2602,1.528841 3.76794,1.390415 5.28091,0.08198 2.06828,-1.788637 1.92676,-4.95001 0.10436,-6.813277 -2.32802,-2.380125 -6.41319,-2.103562 -8.83791,0.218115 -4.34131,6.588433 1.26961,10.692622 -0.35619,10.183885 -1.01434,-0.358048 -4.09029,-4.540771 -2.60093,-8.272958 z"
         id="path3045-27-4-7-2-0-9-08-4-6-5"
         inkscape:connector-curvature="0"
         sodipodi:nodetypes="csssssssscsccsssscccc" /><path
         style="font-size:medium;font-style:normal;font-variant:normal;font-weight:normal;font-stretch:normal;text-indent:0;text-align:start;text-decoration:none;line-height:normal;letter-spacing:normal;word-spacing:normal;text-transform:none;direction:ltr;block-progression:tb;writing-mode:lr-tb;text-anchor:start;baseline-shift:baseline;color:#000000;fill:#bad3d3;fill-opacity:1;stroke:none;stroke-width:1px;marker:none;visibility:visible;display:inline;overflow:visible;enable-background:accumulate;font-family:Sans;-inkscape-font-specification:Sans"
         d="m 133.37212,67.856238 c -0.67129,-0.765201 -1.19235,-1.674419 -1.50282,-2.691857 -1.03374,-3.387887 0.7856,-7.1193 4.41615,-7.921679 2.91912,-0.645368 6.2864,1.007741 7.0314,4.007569 0.56955,2.29325 -0.77683,4.835991 -3.32816,5.186808 -0.90028,0.123726 -1.81685,-0.06687 -2.58622,-0.555752 -0.76929,-0.489063 -1.40749,-1.3036 -1.49559,-2.283918 -0.0541,-0.603617 0.14062,-1.22676 0.52851,-1.707074 0.38783,-0.480346 1.06537,-0.802096 1.83369,-0.640546 0.50174,0.105478 0.81151,0.371463 1.05208,0.749597 0.12031,0.189121 0.20875,0.415613 0.14796,0.729146 -0.0604,0.31354 -0.33185,0.574323 -0.61797,0.676422 -0.58325,-1.347006 -1.44563,-0.972938 -1.65121,0.143747 0.0509,0.566443 0.38669,0.990622 0.87442,1.300436 0.48787,0.309552 1.13003,0.476843 1.69838,0.398645 1.7592,-0.241826 2.70708,-2.104443 2.29588,-3.76016 -0.5621,-2.263431 -3.15912,-3.534705 -5.42411,-3.03404 -2.89332,0.639642 -4.39647,3.696089 -3.55637,6.447597 3.4545,5.981795 9.11788,3.731271 8.02299,4.6789 -0.7157,0.573587 -5.37159,0.96794 -7.73804,-1.723474 z"
         id="path3045-27-4-7-2-0-9-08-4-6-5-1"
         inkscape:connector-curvature="0"
         sodipodi:nodetypes="csssssssscsccsssscccc" /><path
         style="font-size:medium;font-style:normal;font-variant:normal;font-weight:normal;font-stretch:normal;text-indent:0;text-align:start;text-decoration:none;line-height:normal;letter-spacing:normal;word-spacing:normal;text-transform:none;direction:ltr;block-progression:tb;writing-mode:lr-tb;text-anchor:start;baseline-shift:baseline;color:#000000;fill:#e2c0c0;fill-opacity:1;stroke:none;stroke-width:1px;marker:none;visibility:visible;display:inline;overflow:visible;enable-background:accumulate;font-family:Sans;-inkscape-font-specification:Sans"
         d="m 116.13045,68.896947 c -0.90517,-0.29081 -1.88855,-0.382381 -2.8981,-0.234619 -3.36151,0.492102 -6.07776,3.749656 -5.5819,7.424041 0.39855,2.954508 2.99328,5.342702 5.91297,4.750589 2.23201,-0.452632 4.04743,-2.770324 3.50921,-5.261872 -0.18996,-0.879125 -0.66527,-1.639549 -1.35714,-2.137925 -0.69198,-0.49822 -1.6303,-0.737166 -2.53243,-0.40151 -0.55559,0.206991 -1.04552,0.650934 -1.34392,1.211352 -0.29846,0.560385 -0.35909,1.319286 0.0409,1.955949 0.26121,0.415774 0.60134,0.587005 1.01827,0.647019 0.2085,0.03001 0.43969,0.01482 0.69862,-0.174374 0.25909,-0.188805 0.4008,-0.548971 0.39631,-0.855064 -1.39393,0.03748 -1.34836,-0.913339 -0.42248,-1.577085 0.52137,-0.194243 1.01107,-0.06622 1.44953,0.249594 0.43835,0.316177 0.80139,0.834603 0.92124,1.389659 0.37117,1.717931 -0.97145,3.380481 -2.58296,3.707291 -2.20295,0.446768 -4.20086,-1.396703 -4.51015,-3.689088 -0.39503,-2.928366 1.82555,-5.60854 4.55578,-6.007733 6.47846,0.626904 6.36254,6.783606 6.84137,5.375347 0.27216,-0.901067 -0.92893,-5.343267 -4.11459,-6.37095 z"
         id="path3045-27-4-7-2-0-9-08-4-6-5-1-8"
         inkscape:connector-curvature="0"
         sodipodi:nodetypes="csssssssscsccsssscccc" /><path
         style="font-size:medium;font-style:normal;font-variant:normal;font-weight:normal;font-stretch:normal;text-indent:0;text-align:start;text-decoration:none;line-height:normal;letter-spacing:normal;word-spacing:normal;text-transform:none;direction:ltr;block-progression:tb;writing-mode:lr-tb;text-anchor:start;baseline-shift:baseline;color:#000000;fill:#d5c3c3;fill-opacity:1;stroke:none;stroke-width:1px;marker:none;visibility:visible;display:inline;overflow:visible;enable-background:accumulate;font-family:Sans;-inkscape-font-specification:Sans"
         d="m 95.191378,91.452719 c 0.09772,-0.777798 0.363884,-1.542051 0.790366,-2.245342 l 0.0297,-0.06317 c 1.496603,-2.398316 4.746886,-3.29096 7.200146,-1.567841 1.97265,1.385557 2.79291,4.248445 1.37548,6.271334 -1.08357,1.546422 -3.35617,2.091709 -4.950881,0.768286 -0.562699,-0.466979 -0.943357,-1.109485 -1.063332,-1.822251 -0.119979,-0.712761 0.02899,-1.519858 0.576386,-2.08905 0.337016,-0.350451 0.820799,-0.563999 1.322417,-0.588009 0.50161,-0.02401 1.06384,0.20687 1.3819,0.746322 0.20769,0.352286 0.21404,0.675725 0.11478,1.017438 -0.0496,0.170857 -0.13942,0.342579 -0.36248,0.472103 -0.22305,0.129527 -0.52836,0.106522 -0.74527,-0.0086 l 0.41579,-0.884284 c -0.009,-0.283889 -0.22315,-0.426049 -0.72099,-0.325881 -0.23301,0.01116 -0.5306,0.158087 -0.676405,0.309705 -0.31628,0.328881 -0.391897,0.75119 -0.315852,1.202973 0.07454,0.442671 0.332786,0.887327 0.677167,1.182712 l 6.7e-4,0.03175 c 1.09956,0.912509 2.74351,0.490466 3.52583,-0.626013 1.06949,-1.526337 0.43467,-3.732384 -1.09593,-4.807444 -1.95522,-1.373312 -4.790522,-0.644947 -6.005836,1.302602 -1.486639,2.382352 -0.618913,5.278651 1.866355,6.729854 0.654173,0.381982 0.793389,0.314072 1.748591,0.607445 l 1.42685,0.708673 c -1.07437,-0.09893 -2.632868,0.01318 -3.602099,-0.467065 -2.27842,-1.128956 -3.215147,-3.454482 -2.913397,-5.856232 z"
         id="path3045-27-4-7-9"
         inkscape:connector-curvature="0"
         sodipodi:nodetypes="sccssssssssscccssccssssccss" /><path
         style="font-size:medium;font-style:normal;font-variant:normal;font-weight:normal;font-stretch:normal;text-indent:0;text-align:start;text-decoration:none;line-height:normal;letter-spacing:normal;word-spacing:normal;text-transform:none;direction:ltr;block-progression:tb;writing-mode:lr-tb;text-anchor:start;baseline-shift:baseline;color:#000000;fill:#c3bab1;fill-opacity:1;stroke:none;stroke-width:1px;marker:none;visibility:visible;display:inline;overflow:visible;enable-background:accumulate;font-family:Sans;-inkscape-font-specification:Sans"
         d="M 100.10991,96.994061 C 99.291711,96.567052 98.373432,96.30344 97.406423,96.227273 l -0.08106,-0.01473 c -3.326006,-0.221024 -6.373496,2.165455 -6.354626,5.558627 0.01519,2.72844 2.234008,5.38175 5.143582,5.426 2.224257,0.0337 4.278781,-1.68717 4.069771,-4.02791 -0.0738,-0.82594 -0.439634,-1.60159 -1.04865,-2.18495 -0.609014,-0.58336 -1.489998,-0.98286 -2.408496,-0.85914 -0.565514,0.0762 -1.097177,0.3778 -1.457434,0.82165 -0.360258,0.44385 -0.514634,1.11255 -0.20639,1.76238 0.201297,0.42437 0.509975,0.64499 0.907263,0.78099 0.198637,0.068 0.425136,0.0997 0.700321,-0.0189 0.275188,-0.11845 0.45806,-0.41358 0.492388,-0.68888 l -1.134939,-0.20619 c -0.2688,-0.19657 -0.262285,-0.4875 0.169123,-0.87731 0.167366,-0.20616 0.509451,-0.38137 0.754111,-0.41432 0.530713,-0.0715 0.99012,0.13968 1.376141,0.50944 0.378244,0.36231 0.634924,0.89437 0.689344,1.40622 l 0.03028,0.0217 c 0.144107,1.61395 -1.368786,2.84055 -2.974648,2.81613 -2.195369,-0.0334 -3.903273,-2.08045 -3.915047,-4.19747 -0.01503,-2.704337 2.594681,-4.819526 5.295562,-4.640043 3.303861,0.219554 5.523121,2.938553 5.257401,6.180473 -0.07,0.85333 -0.22919,0.93585 -0.58713,2.00628 l -0.27301,1.77857 c 0.62612,-1.05052 1.78173,-2.40464 1.96829,-3.61204 0.43853,-2.83829 -1.18213,-5.24145 -3.70865,-6.560004 z"
         id="path3045-27-4-7-9-0"
         inkscape:connector-curvature="0"
         sodipodi:nodetypes="sccssssssssscccssccssssccss" /><path
         style="font-size:medium;font-style:normal;font-variant:normal;font-weight:normal;font-stretch:normal;text-indent:0;text-align:start;text-decoration:none;line-height:normal;letter-spacing:normal;word-spacing:normal;text-transform:none;direction:ltr;block-progression:tb;writing-mode:lr-tb;text-anchor:start;baseline-shift:baseline;color:#000000;fill:#ceb9b9;fill-opacity:1;stroke:none;stroke-width:1px;marker:none;visibility:visible;display:inline;overflow:visible;enable-background:accumulate;font-family:Sans;-inkscape-font-specification:Sans"
         d="m 116.08577,95.522668 c 0.0169,-0.759925 -0.14419,-1.540873 -0.48218,-2.296094 l -0.0214,-0.06613 c -1.19678,-2.583905 -4.45657,-4.087978 -7.28391,-2.942079 -2.27346,0.921409 -3.56887,3.480892 -2.39737,5.691551 0.89557,1.689964 3.18691,2.666576 5.05592,1.728186 0.65948,-0.331122 1.15561,-0.865948 1.39008,-1.520145 0.23458,-0.654176 0.20229,-1.452332 -0.2825,-2.104259 -0.29852,-0.401395 -0.77136,-0.702051 -1.29187,-0.825919 -0.52049,-0.123916 -1.14335,-0.01735 -1.55829,0.432006 -0.27099,0.29344 -0.32685,0.60013 -0.27581,0.945174 0.0258,0.172645 0.0933,0.354116 0.30651,0.522309 0.21325,0.168188 0.53583,0.207771 0.78012,0.141857 l -0.29913,-0.92532 c 0.0534,-0.268276 0.29843,-0.360532 0.80333,-0.164951 0.24175,0.0576 0.53023,0.257295 0.65938,0.430959 0.28016,0.376697 0.29454,0.793845 0.1459,1.208499 -0.14562,0.406312 -0.48361,0.777458 -0.88866,0.989245 l -0.005,0.03002 c -1.2887,0.647024 -2.94197,-0.08569 -3.58855,-1.30581 -0.88394,-1.668012 0.11715,-3.639708 1.88113,-4.35464 2.25337,-0.913268 5.1047,0.350896 6.07651,2.449146 1.18879,2.566703 -0.16132,5.148424 -2.98048,6.02909 -0.74209,0.231801 -0.87717,0.139134 -1.92025,0.225981 l -1.59948,0.387126 c 1.13783,0.12219 2.74925,0.54274 3.83557,0.28086 2.55372,-0.615621 3.88855,-2.640244 3.94091,-4.986789 z"
         id="path3045-27-4-7-9-02"
         inkscape:connector-curvature="0"
         sodipodi:nodetypes="sccssssssssscccssccssssccss" /><path
         style="font-size:medium;font-style:normal;font-variant:normal;font-weight:normal;font-stretch:normal;text-indent:0;text-align:start;text-decoration:none;line-height:normal;letter-spacing:normal;word-spacing:normal;text-transform:none;direction:ltr;block-progression:tb;writing-mode:lr-tb;text-anchor:start;baseline-shift:baseline;color:#000000;fill:#c3bcc7;fill-opacity:1;stroke:none;stroke-width:1px;marker:none;visibility:visible;display:inline;overflow:visible;enable-background:accumulate;font-family:Sans;-inkscape-font-specification:Sans"
         d="m 154.38028,57.255 c 0.0426,-0.828375 -0.091,-1.669146 -0.42203,-2.468462 -1.10229,-2.661514 -4.28608,-4.057455 -7.12781,-2.676229 -2.28501,1.110591 -3.65361,3.895356 -2.56412,6.163603 0.83287,1.733996 3.07342,2.629909 4.95782,1.525535 0.66491,-0.389732 1.17452,-0.985059 1.42848,-1.691084 0.2538,-0.706071 0.24827,-1.548271 -0.21129,-2.20886 -0.28291,-0.40676 -0.74208,-0.696419 -1.25423,-0.796332 -0.51217,-0.09993 -1.13342,0.04998 -1.55966,0.550134 -0.27828,0.326681 -0.34411,0.654217 -0.30442,1.016271 0.0199,0.181056 0.0807,0.369041 0.28686,0.534134 0.20596,0.165286 0.5246,0.187793 0.76905,0.103464 -0.32359,-1.147618 0.44843,-1.360657 1.17555,-0.766945 0.26553,0.381697 0.26611,0.822066 0.10495,1.269549 -0.16126,0.44741 -0.50045,0.885705 -0.9203,1.131683 -1.2993,0.761531 -2.91502,0.08534 -3.51632,-1.166625 -0.82204,-1.71144 0.23542,-3.856889 2.00836,-4.718631 2.26482,-1.100773 4.88132,0.03597 5.77643,2.197232 0.86134,5.545037 -4.09954,7.073339 -2.86957,7.099364 0.7798,-0.0118 4.08867,-2.181321 4.24196,-5.097803 z"
         id="path3045-27-4-7-2-0-9-08-4-6-6-3"
         inkscape:connector-curvature="0"
         sodipodi:nodetypes="csssssssscsccsssscccc" /></g><g
       transform="matrix(1.1648411,0,0,1.1648411,-4.303549,-3.915461)"
       id="g4169"><flowRoot
         xml:space="preserve"
         id="flowRoot3110-6-8"
         style="font-size:46.77364349px;font-style:normal;font-variant:normal;font-weight:bold;font-stretch:normal;line-height:125%;letter-spacing:0px;word-spacing:0px;fill:#916f6f;fill-opacity:1;stroke:none;font-family:EQ Feel Good;-inkscape-font-specification:EQ Feel Good Bold"
         transform="matrix(1.1290391,0,0,0.67921476,96.091173,102.83351)"><flowRegion
           id="flowRegion3112-3-9"><rect
             id="rect3114-0-6"
             width="316.27631"
             height="59.785713"
             x="70.071426"
             y="75.89286"
             style="font-size:46.77364349px;font-style:normal;font-variant:normal;font-weight:bold;font-stretch:normal;fill:#916f6f;stroke:none;font-family:EQ Feel Good;-inkscape-font-specification:EQ Feel Good Bold" /></flowRegion><flowPara
           id="flowPara3116-2-4">T</flowPara></flowRoot><flowRoot
         xml:space="preserve"
         id="flowRoot3110-6"
         style="font-size:46.77364349px;font-style:normal;font-variant:normal;font-weight:bold;font-stretch:normal;line-height:125%;letter-spacing:0px;word-spacing:0px;fill:#916f6f;fill-opacity:1;stroke:#ffffff;stroke-width:0.42593914;stroke-miterlimit:4;stroke-opacity:1;stroke-dasharray:none;font-family:EQ Feel Good;-inkscape-font-specification:EQ Feel Good Bold"
         transform="matrix(1.1882508,0,0,0.75125471,104.94096,94.387906)"><flowRegion
           id="flowRegion3112-3"><rect
             id="rect3114-0"
             width="316.27631"
             height="59.785713"
             x="70.071426"
             y="75.89286"
             style="font-size:46.77364349px;font-style:normal;font-variant:normal;font-weight:bold;font-stretch:normal;fill:#916f6f;stroke:#ffffff;stroke-width:0.42593914;stroke-miterlimit:4;stroke-opacity:1;stroke-dasharray:none;font-family:EQ Feel Good;-inkscape-font-specification:EQ Feel Good Bold" /></flowRegion><flowPara
           id="flowPara3116-2">r</flowPara></flowRoot><flowRoot
         xml:space="preserve"
         id="flowRoot3110-6-0"
         style="font-size:46.77364349px;font-style:normal;font-variant:normal;font-weight:bold;font-stretch:normal;line-height:125%;letter-spacing:0px;word-spacing:0px;fill:#916f6f;fill-opacity:1;stroke:#916f6f;stroke-width:0.28824788;stroke-miterlimit:4;stroke-opacity:1;stroke-dasharray:none;font-family:EQ Feel Good;-inkscape-font-specification:EQ Feel Good Bold"
         transform="matrix(0.62211471,0,0,0.64987104,153.72047,106.00789)"><flowRegion
           id="flowRegion3112-3-47"><rect
             id="rect3114-0-0"
             width="316.27631"
             height="59.785713"
             x="70.071426"
             y="75.89286"
             style="font-size:46.77364349px;font-style:normal;font-variant:normal;font-weight:bold;font-stretch:normal;fill:#916f6f;stroke:#916f6f;stroke-width:0.28824788;stroke-miterlimit:4;stroke-opacity:1;stroke-dasharray:none;font-family:EQ Feel Good;-inkscape-font-specification:EQ Feel Good Bold" /></flowRegion><flowPara
           id="flowPara3116-2-2">ee</flowPara></flowRoot></g><g
       transform="matrix(1.1648411,0,0,1.2409802,-3.3145024,-17.918544)"
       id="g4183"><flowRoot
         xml:space="preserve"
         id="flowRoot3110-6-2"
         style="font-size:46.77364349px;font-style:normal;font-variant:normal;font-weight:bold;font-stretch:normal;line-height:125%;letter-spacing:0px;word-spacing:0px;fill:#916f6f;fill-opacity:1;stroke:none;font-family:EQ Feel Good;-inkscape-font-specification:EQ Feel Good Bold"
         transform="matrix(0.66001727,0,0,0.70915674,28.60927,98.982274)"><flowRegion
           id="flowRegion3112-3-4"><rect
             id="rect3114-0-7"
             width="316.27631"
             height="59.785713"
             x="70.071426"
             y="75.89286"
             style="font-size:46.77364349px;font-style:normal;font-variant:normal;font-weight:bold;font-stretch:normal;fill:#916f6f;stroke:none;font-family:EQ Feel Good;-inkscape-font-specification:EQ Feel Good Bold" /></flowRegion><flowPara
           id="flowPara3116-2-1">S</flowPara></flowRoot><flowRoot
         xml:space="preserve"
         id="flowRoot3110-6-2-2"
         style="font-size:46.77364349px;font-style:normal;font-variant:normal;font-weight:bold;font-stretch:normal;line-height:125%;letter-spacing:0px;word-spacing:0px;fill:#916f6f;fill-opacity:1;stroke:#916f6f;stroke-width:0.32479161;stroke-miterlimit:4;stroke-opacity:1;stroke-dasharray:none;font-family:EQ Feel Good;-inkscape-font-specification:EQ Feel Good Bold"
         transform="matrix(0.63534028,0,0,0.63803614,44.237738,107.56777)"><flowRegion
           id="flowRegion3112-3-4-7"><rect
             id="rect3114-0-7-1"
             width="316.27631"
             height="59.785713"
             x="70.071426"
             y="75.89286"
             style="font-size:46.77364349px;font-style:normal;font-variant:normal;font-weight:bold;font-stretch:normal;fill:#916f6f;stroke:#916f6f;stroke-width:0.32479161;stroke-miterlimit:4;stroke-opacity:1;stroke-dasharray:none;font-family:EQ Feel Good;-inkscape-font-specification:EQ Feel Good Bold" /></flowRegion><flowPara
           id="flowPara3116-2-1-6">hanti</flowPara></flowRoot></g></g><flowRoot
     xml:space="preserve"
     id="flowRoot3083"
     style="font-size:40px;font-style:normal;font-variant:normal;font-weight:normal;font-stretch:normal;line-height:125%;letter-spacing:0px;word-spacing:0px;fill:#6c5353;fill-opacity:1;stroke:none;font-family:UPC-Orchid;-inkscape-font-specification:UPC-Orchid"
     transform="matrix(0.87429498,0,0,0.68685944,-583.84851,205.13806)"><flowRegion
       id="flowRegion3085"><rect
         id="rect3087"
         width="452"
         height="67"
         x="91"
         y="233"
         style="font-style:normal;font-variant:normal;font-weight:normal;font-stretch:normal;fill:#6c5353;font-family:UPC-Orchid;-inkscape-font-specification:UPC-Orchid" /></flowRegion><flowPara
       id="flowPara3089"></flowPara></flowRoot></svg>