<?xml version="1.0" encoding="utf-8"?>
<!-- Generator: Adobe Illustrator 14.0.0, SVG Export Plug-In . SVG Version: 6.00 Build 43363)  -->
<!DOCTYPE svg PUBLIC "-//W3C//DTD SVG 1.1//EN" "http://www.w3.org/Graphics/SVG/1.1/DTD/svg11.dtd">
<svg version="1.1" id="Layer_1" xmlns="http://www.w3.org/2000/svg" xmlns:xlink="http://www.w3.org/1999/xlink" x="0px" y="0px"
	 width="351px" height="280px" viewBox="0 0 351 280" enable-background="new 0 0 351 280" xml:space="preserve">
<g>
	<g>
		<path fill-rule="evenodd" clip-rule="evenodd" fill="#603913" d="M183.416,50.453c-0.235-0.378-0.381-0.803-0.409-1.253
			c-3.741-1.381-6.313-3.698-5.844-8.378c0.54-5.371,10.433-11.292,9.249-2.819c-3.627,1.217-3.639-1.345-4.95-0.256
			c4.838,9.891,12.471-6.327,1.954-6.665c-4.038-0.129-6.552,3.486-7.554,4.741C171.964,40.708,175.691,48.009,183.416,50.453z"/>
		<path fill-rule="evenodd" clip-rule="evenodd" fill="#603913" d="M205.264,40.905c2.081,0.206,4.98-1.857,2.937-4.304
			c0.063,1.247-0.68,3.313-2.528,3.082c-4.363-5.227,1.639-8.399,5.064-5.313c4.31,3.882,0.48,10.831-5.018,13.836
			c0.417,1.006,0.058,2.042-0.683,2.725c7.499-2.414,14.466-11.505,8.248-17.942C208.96,28.51,197.831,32.099,205.264,40.905z"/>
		<path fill-rule="evenodd" clip-rule="evenodd" fill="#603913" d="M229.051,38.328c1.212,0.504,3.48-0.149,2.85-1.944
			c-0.273,0.731-1.235,1.791-2.294,1.314c-1.354-3.834,3.074-4.554,4.384-2.134c1.649,3.046-2.398,6.352-6.475,7.071
			c0,0.659-0.472,1.191-1.088,1.448c5.145-0.001,11.618-3.969,9.448-8.844C234.367,31.847,226.733,31.855,229.051,38.328z"/>
		<path fill-rule="evenodd" clip-rule="evenodd" fill="#603913" d="M296.449,77.475c1.304-0.144,2.957-1.806,1.515-3.069
			c0.127,0.77-0.185,2.158-1.348,2.253c-3.086-2.695,0.415-5.453,2.764-3.973c2.954,1.859,1.071,6.691-2.124,9.283
			c0.328,0.576,0.179,1.268-0.234,1.788c4.489-2.48,8.159-9.058,3.841-12.263C297.86,69.26,291.207,72.946,296.449,77.475z"/>
		<path fill-rule="evenodd" clip-rule="evenodd" fill="#603913" d="M307.55,115.769c8.359-1.217,10.922-16.599,1.958-16.179
			c-3.164,0.145-5.622,2.587-3.915,6.138c1.768,0.622,4.496,1.087,3.915-1.677c-1.025,0.24-0.559,1.754-2.608,1.117
			c0.103-0.645-0.147-0.99-0.657-1.117c0.009-1.667,1.175-2.34,2.612-2.792c8.443,2.311,1.66,12.337-3.262,13.392
			c2.38-13.694-23.554-3.13-7.825,0.558c0.789-0.865,2.085-2.172,0.653-3.349c-2.634-0.439,0.976,2.67-2.608,2.233
			c-4.325-4.819,5.938-5.921,7.171-1.112c1.705,6.623-11.704,11.336-15.647,13.385c-2.211-0.895-1.969-3.894-1.952-6.693
			c1.843-1.544,2.712,2.487,5.864,1.67c2.266-0.949,0.859-4.898-1.305-3.343c-0.472,2.446,1.295-0.45,1.305,1.115
			c-4.327,0.537-4.897-2.139-5.214-3.906c-1.37-7.668,13.85-14.989,14.992-23.991c0.599-4.687-1.506-12.027-8.475-12.273
			c-12.339-0.433-11.126,17.854,0,11.163c-0.086-1.788,0.646-4.27-1.952-3.91c0.944,1.4,1.577,2.194,0.648,3.91
			c-0.758-0.091-1.16,0.119-1.305,0.558c-13.099-5.626,8.781-16.449,8.478-1.117c-0.2,10.204-12.564,14.451-14.344,22.87
			c-2.119-3.343-5.717-11.931,0-13.948c2.464-0.475,2.309,2.501,1.307,3.348c-1.963,0.565-1.157-1.244-1.307-2.229
			c-4.719,8.861,11.148-2.183,0.65-3.349c-11.624-1.285-1.116,20.882-3.259,27.34c-2.355,7.089-15.687,9.132-22.819,11.154
			c0.256-8.507,23.021-10.333,19.561-20.642c-1.128-3.349-10.041-4.984-10.433,0c-0.247,3.115,6.27,5.417,5.217,0.558
			c-1.261,0.225-0.059,2.557-2.607,1.673c-1.95-1.166,0.098-3.59,1.304-3.905c8.673,2.572,0.302,11.623-5.87,11.715
			c-5.487-12.669,16.501-23.729,13.041-35.706c-0.853-2.946-7.14-6.723-11.737-3.902c-4.2,2.582-3.596,12.677,5.216,9.482
			c0.475-1.299,1.783-4.76-1.304-4.459c1.664,1.039,1.647,3.458-0.649,3.907c-12.593-1.468,4.993-14.258,6.517-3.348
			c1.215,8.659-15.77,20.326-14.342,29.007c-3.334-1.722-8.872-3.131-10.433-7.255c-1.849-4.889,1.506-10.225,5.216-10.042
			c3.449,0.176,6.461,4.636,1.305,6.14c-2.721-0.015-2.934-2.175-1.955-3.908c-4.298,1.087-1.03,5.209,1.302,5.581
			c6.598,1.049,7.738-9.029,1.307-10.042c-4.551-0.718-8.938,2.7-9.781,5.578c-2.767,9.442,7.36,12.19,9.781,17.855
			c-1.258,3.944-4.376,6.293-7.174,8.921c-6.626-0.276-0.575-11.408-5.217-13.384c-4.277-0.502-6.589,0.678-6.517,3.902
			c0.849,0.979,4.137,2.04,3.909-0.559c-0.857,0.197-1.025,0.982-1.957,1.12c-0.208-1.298,0.109-2.145,0.653-2.791
			c6.209-0.633,3.688,6.991,1.954,8.921c-6.01-4.084-13.486-6.031-13.691-12.829c-0.126-4.218,4.192-8.195,7.174-8.366
			c8.279-0.481,8.294,9.576-0.65,7.251c-0.273-1.907,0.196-3.18,2.608-2.791c-1.866-3.067-5.659,1.47-3.265,3.905
			c11.613,3.918,12.672-10.104,2.611-10.597c-6.869-0.339-12.574,6.238-10.433,13.388c2.343,7.824,14.546,10.736,18.254,17.852
			c-3.837,2.571-12.274,3.242-18.254,2.231c-4.246-13.21-8.063-27.896,1.954-38.491c11.08-11.721,30.518-12.655,33.255-27.896
			c1.33-7.413-6.045-22.029-17.606-15.062c-5.488,3.307-3.105,13.981,4.563,13.386c4.805-0.367,5.922-6.864,0-6.693
			c1.215,0.968,4.079,2.368,2.611,3.902c-8.337,4.268-10.496-8.313-3.259-9.482c5.677-0.915,9.821,4.349,10.429,7.813
			c1.958,11.168-9.174,16.826-15.645,20.642c0.244-4.226-2.355-8.062-5.217-11.159c-0.743-2.968,5.115-4.615,6.517-2.233
			c-0.146,3.04-3.523,0.412-3.911,1.119c0.178,3.27,5.749,1.25,5.869-0.559c0.567-2.157-1.595-1.986-1.958-3.349
			c-5.278-0.43-7.513,1.757-7.823,5.58c-9.958-6.005-17.914,12.049-3.913,11.16c0.193-1.139,1.765-1.097,1.955-2.235
			c0.127-2.154-1.033-3.204-3.259-3.345c0.529,1.813,2.951,1.604,1.304,3.903c-7.931,0.892-5.823-7.41,0-7.806
			c4.206-0.292,10.165,4.437,7.825,9.483c-1.213,2.616-14.745,10.726-20.865,10.595c-9.779-14.028,15.317-29.153,14.345-38.489
			c-0.582-5.591-17.051-11.743-5.867-16.74c0.965,0.291,1.644,0.826,2.608,1.117c0.271,1.907-0.195,3.175-2.608,2.791
			c2.019,2.669,4.969-1.119,4.563-2.791c-0.993-4.121-10.072-3.506-11.082,1.672c-0.712,3.647,1.856,4.35,4.563,7.81
			c-13.352-0.528-1.071,15.804,0,5.021c-1.117,0.717-0.807,2.66-2.608,2.79c-4.427-2.189-0.915-5.915,1.957-6.139
			c9.299-0.725,4.048,12.503-0.653,16.181c-2.734-14.196-25.234,3.902-7.17,3.35c-0.006-1.484,0.247-3.187-0.651-3.908
			c-3.098-0.13,1.932,2.076-0.653,3.349c-3.069,0.58-3.279-1.286-4.563-2.231c1.157-2.623,2.233-4.461,5.216-4.461
			c10.718,0,0.363,17.143-3.915,19.525c-3.308-9.829-15.263-22.021-13.691-31.804c0.812-5.051,14.152-10.523,14.344-2.23
			c0.101,4.22-6.267,6.581-7.823,2.23c-0.476-1.52,1.298-1.119,1.304-2.23c1.393-0.254,1.243,0.799,1.304,1.677
			c4.551-1.436-2.945-5.082-4.563-0.56c-2.545,7.126,10.749,6.615,12.387,1.673c1.754-5.29-1.261-9.08-9.779-8.923
			c0.055-0.069,0.098-0.151,0.15-0.221c-0.312,0.135-0.668,0.216-1.082,0.216c-0.524,0-0.939-0.154-1.299-0.364
			c-1.076,1.258-2.49,2.204-4.292,2.597c5.361-7.449-9.568-15.012-10.429-5.578c1.479,2.402,5.334,2.284,7.171,2.231
			c-0.36-1.553-2.677-1.426-2.608-3.345c-1.825,0.542,0.95,1.49-0.65,2.231c-4.808-4.756,4.811-4.058,5.867,0.558
			c0.754,3.277-1.687,4.502-3.259,7.251c-2.954-3.636-10.419-3.954-16.802-5.202c-0.204,0.338-0.475,0.626-0.842,0.826
			c-1.246,3.188-3.076,3.336-3.22,5.49c-0.705,10.354,19.804,8.708,11.735,0c-0.947,0.307-3.369-0.648-3.261,0.559
			c1.962-2.093,6.136,4.792,0.652,5.582c-6.602,0.943-8.035-9.573,0.654-10.042c2.267-0.125,6.649,1.217,8.475,2.788
			c6.27,5.389,9.992,23.847,13.04,33.471c-7.703-1.687-20.382-8.794-13.04-16.175c3.271-0.012,5.579,0.803,5.216,3.902
			c-0.011,1.625-3.684,1.323-4.565,0.56c-0.115-1.217,0.536-1.775,1.958-1.673c-1.157-1.661-3.475,0.321-2.608,2.232
			c1.053,0.954,2.727,1.385,5.216,1.114c4.094-3.2,0.703-9.327-6.522-7.813c-10.392,11.552,9.203,16.38,14.998,23.433
			c7.487,9.114,8.278,19.028,9.781,32.915c-5.797,0.121-12.143-4.112-16.302-7.251c-0.469-4.121,0.63-6.896,4.563-7.25
			c2.372,0.014,2.867,1.64,2.611,3.902c-0.757-0.091-1.16,0.125-1.305,0.558c-3.316,0.133-0.253-3.073-2.607-2.791
			c-1.408,1.199-0.334,3.121,0.65,3.908c17.77-3.754-9.301-14.111-5.216,0c-8.653-2.162-10.834-21.631,3.262-18.411
			c11.682,2.671-6.495,13.823-4.563,3.349c-5.988,5.386,10.141,8.672,10.429,0.552c0.331-9.341-19.908-7.334-18.254,5.023
			c1.831,13.719,19,17.81,28.032,27.894c-13.109-4.029-24.751-14.149-33.902-23.427c1.045-5.785,8.49-17.836-0.652-19.53
			c-3.664-0.674-3.277,2.241-6.52,1.117c0.185,2.26,4.596,8.315,5.868,2.791c-1.232,0.063-0.452,1.844-1.958,1.672
			c-1.967-0.81-1.159-3.382,0.653-3.901c8.599,0.574,3.291,12.389,0,14.502c-1.106-3.145-8.469-8.996-7.822-13.944
			c0.408-3.156,10.893-6.548,11.735-12.279c1.797-12.219-19.635-9.801-11.735,0.559c5.993,1.779,7.296-5.61,2.606-3.902
			c0.068,1.526,2.458,0.486,0.652,2.791c-2.048,0.262-2.665-0.7-3.258-1.679c0.022-3.229,1.337-3.818,3.911-3.902
			c10.915-0.362-1.05,14.923-4.564,16.175c-2.989-5.621-3.902-13.024-7.173-18.408c10.795,0.082,12.191-16.602,2.609-16.178
			c-3.201,0.141-5.298,2.1-5.217,6.137c1.4,0.846,1.949,2.427,4.565,2.231c1.198-0.721,2.869-2.501,1.305-3.908
			c-2.567-0.893-0.228,2.41-1.958,2.238c-0.856-0.201-1.026-0.988-1.955-1.121c5.958-10.552,12.24,8.55,1.303,8.373
			c-2.907-4.267-12.315-10.556-14.343-15.07c-1.216-2.702-0.564-7.396,5.217-7.247c0.938,0.31,1.59,0.868,1.956,1.673
			c0.168,1.817-0.774,2.685-2.61,2.788c-3.664-0.784,1.767-2.255,0-2.788c-8.895,2.292,7.272,7.204,4.564-1.12
			c-2.377-7.315-17.943,1.363-9.779,8.93c-12.384,0.193-12.778,13.978-3.26,13.386c8.56-0.53,3.612-11.577-1.304-5.576
			c1.944-0.777,3.991-0.658,4.564,1.115c-0.249,3.958-6.456,2.83-7.824,0.559c2.33-15.894,25.509,2.529,21.516,13.391
			c-2.248,6.106-14.173,3.172-14.346-2.231c-0.23-7.287,11.563-5.159,8.478-0.56c-0.411,1.353-3.295,0.292-2.61-1.117
			c-2.834,3.479,4.36,3.316,4.564,0.559c0.961-6.133-9.862-6.614-11.735-1.672c-3.181,8.393,10.821,13.403,16.951,7.807
			c4.422,6.445,4.729,16.41,9.781,22.319c-11.478-3.322-16.751-14.597-26.732-19.529c-5.564-2.748-14.621-1.015-16.3-8.365
			c1.753-2.733,2.343,1.336,3.913,0c-5.761-6.767-7.703,6.126-0.653,6.692c-11.509,1.553,0.531,16.471,3.912,5.583
			c-0.987-1.605-3.799-2.247-5.215-0.559c0.464,1.414,3.721-1.35,3.911,1.117c0.475,1.52-1.297,1.123-1.304,2.231
			c-2.379,0.361-3.473-0.379-4.564-1.12c-1.346-9.477,15.342-6.143,17.603-1.669c-12.62-1.584-11.658,15.745,0.653,10.041
			c4.941-5.166-8.08-9.176-5.216-2.791c3.051,0.148-0.847-2.162,1.956-2.231c2.43,0.367,2.377,3.463,0.652,4.463
			c-11.889,0.541-3.201-11.742,5.216-6.692c2.607,1.563,3.727,4.553,7.171,7.81c3.523,3.322,9.474,4.948,14.345,8.363
			c6.694,4.698,16.139,16.539,3.912,19.53c12.38-6.055-8.485-21.44-9.129-6.139c1.805,2.106,6.413,3.178,7.825,0
			c0.149-1.984-0.937-2.914-3.259-2.788c-0.489,1.719,2.247,0.679,1.303,2.788c-4.699,1.009-3.456-3.839-1.303-4.461
			c7.455,0.078,7.031,8.36,1.303,8.924c-11.778,1.166-9.451-28.181-26.732-20.083c-4.459,3.803-0.784,12.072,6.521,8.927
			c-0.106-0.652,0.144-0.99,0.65-1.117c0.98-3.343-4.108-5.245-5.868-2.791c0.088,2.62,1.48-1.139,3.916,0
			c-0.187,0.904,0.614,0.962,0.648,1.674c-6.338,5.63-8.583-5.873-0.648-6.135c9.177-0.304,8.178,12.451,13.039,17.292
			c-9.055-1.186-40.647,0.757-29.339-10.041c2.526-0.426,3.952,3.563,0.65,3.349c6.286,1.817,3.505-4.479,0.654-5.019
			c-3.849-0.74-6.455,2.632-6.522,5.019c-0.167,6.023,10.138,8.422,18.256,7.81c-5.42,2.294-5.632,11.144,0,12.273
			c5.257,1.051,9.263-4.383,5.215-7.81h-3.911c-0.275,1.901,5.185-0.685,4.564,2.792c0.378,2.366-1.757,2.584-3.261,3.342
			c-15.203-8.073,16.134-16.192,19.562-4.464c-9.405,1.631-27.747,18.674-15.649,25.664c9.495,5.487,18.083-11.439,7.172-11.714
			c-4.693-0.12-7.788,4.98-3.261,7.255c2.088-0.075,2.871-1.264,2.609-3.348c-1.677,0.04-0.931,2.599-2.609,1.116
			c-0.863-2.602,1.454-2.481,2.609-3.35c10.244,3.178-6.336,14.425-7.826,3.35c-0.309-2.311,0.944-5.06,2.61-7.254
			c2.943-3.887,21.514-11.155,28.688-12.83c8.71-2.042,10.228,0.636,14.345,5.574c-0.548,2.136-1.538,3.893-3.913,4.466
			c-4.513,0.121-7.076-7.977-13.04-6.139c-2.692,0.832-4.768,5.935,1.304,6.691c0.823-0.835,2.663-1.676,1.304-2.784
			c0.02,0.599-1.106,2.672-3.259,1.114c1.27-6.71,7.922,0.746,10.429,1.67c-7.846,2.657-19.394,3.952-16.298,13.392
			c1.726,5.271,14.375,6.077,14.994-0.558c0.432-4.58-7.088-8.142-9.779-2.784c-0.316,1.434,2.306,3.161,3.261,1.672
			c1.638-2.715-1.635,1.592-1.956-1.12c-0.475-1.52,1.295-1.122,1.304-2.228c3.273-0.196,4.096,1.701,5.213,3.348
			c-0.608,4.925-8.854,5.023-10.43,1.111c-3.038-7.545,13.179-13.271,21.519-10.044c7.467,2.896,6.407,18.527,5.866,28.459
			c-0.726,13.346,0.185,24.938,0.65,35.702c-0.006,0.021-0.014,0.048-0.02,0.074c0.129,0.282,0.236,0.587,0.262,0.947
			c0.276,4.102-1.301,8.46-2.988,12.137c-0.984,2.145-2.188,4.524-3.857,6.394c0.028-0.012,0.058-0.019,0.087-0.028
			c-0.093,0.071-0.179,0.149-0.271,0.224c-0.523,0.559-1.082,1.076-1.704,1.511c-3.485,3.291-7.228,7.398-14.327,5.517
			c-1.215-2.203-0.831-5.731,2.608-5.576c3.599,0.714-1.646,2.855,0,3.349c2.087-0.076,2.87-1.264,2.605-3.349
			c-7.734-4.323-11.328,6.106-4.562,8.365c9.363,3.138,14.752,0.352,10.434,5.023c2.075,1.014,4.646,0.043,6.758-0.768
			c1.555-10.229,21.366-11.084,25.402-2.693c21.48,0.504,41.032-1.304,30.874-0.967c-6.645-2.508-19.93-3.178-28.527-12.102
			c-2.738-2.778-4.506-8.173-5.473-10.689c-0.771-2.343-0.968-11.017-1.002-12.389c-0.507-21.22-2.39-55.139,20.214-55.231
			c3.823-0.014,10.571,1.995,11.733,5.582c2.395,7.356-6.759,11.331-10.433,5.018c0.115-1.946,1.504-2.811,3.263-3.349
			c2.037-0.256,2.084,1.195,1.957,2.79c3.025-0.962,0.003-3.299-1.304-3.906c-16.262,3.924,6.194,17.604,10.432,6.14
			c0.317-3.811-0.109-6.975-1.957-8.923c6.78,0.53,19.774,1.439,20.865,7.249c1.18,6.298-7.715,8.402-10.433,2.786
			c0.081-1.416,0.95-2.164,2.608-2.228c3.92-0.438-0.453,2.99,2.607,2.786c0.749-0.656,0.737-1.969,0.651-3.345
			c-10.255-4.635-10.503,8.472-0.651,8.924c5.947,0.276,8.896-3.714,9.126-6.69c1.18-15.228-27.414-6.799-33.249-16.181
			c3.652-3.374,19.892-7.461,22.816-1.114c-0.284,1.609-1.37,2.539-3.258,2.787c-0.94-0.311-1.591-0.87-1.955-1.672
			c1.015-2.151,2.265,0.394,2.608-0.562c-1.368-3.73-4.558,0.121-4.563,1.12c-0.023,3.653,6.552,4.338,9.126,1.114
			c0.271-2.464-0.176-4.313-1.305-5.576c5.279,1.621,14.339,0.009,15.648,5.02c-0.124,1.75-1.212,2.681-3.262,2.79
			c-5.044,0.018-2.019-5.527,0.656-2.233c2.108-2.182-3.915-2.911-5.216-1.114c-1.653,9.52,15.188,4.358,9.125-1.672
			c11.809,0.207,12.379-18.835-0.65-12.278c-0.265,2.459-0.176,4.615,3.259,3.908c1.014-1.985-2.217-0.34-1.957-1.67
			c0.127-0.456,0.652-0.558,0.652-1.121c1.114-1.451,4.575-0.241,5.214,0.563c0.247,11.15-16.299,7.201-23.47,4.46
			c3.575-6.185,12.496-7.549,18.256-11.715c3.869-2.799,5.959-7.077,11.087-8.37c2.435,0.148,3.8,1.209,3.259,3.902
			c-1.394,0.261-1.244-0.793-1.304-1.67c-2.347,0.39-0.919,2.617,0,3.349C315.052,123.146,313.163,114.876,307.55,115.769z"/>
		<path fill-rule="evenodd" clip-rule="evenodd" fill="#603913" d="M273.334,59.022c-1.272-0.012-1.909-0.012-2.947,0.266
			c-0.116,0.03-0.536,0.085-0.945,0.142c-0.8,0.3-1.437,0.387-2.372,0.987c-1.583,1.163-2.68,2.097-4.267,3.257
			c-0.674,0.491-1.347,0.823-2.021,1.087c0.582,1.1,1.111,2.326,1.563,3.731c0.66,0.195,1.282,0.43,1.874,0.69
			c0.081-1.006,0.237-1.986,0.548-2.913c1.623-4.856,15.68-8.151,14.52,0.065c-0.593,4.182-7.26,5.508-8.089,0.964
			c-0.219-1.575,1.463-0.898,1.652-1.994c1.416-0.032,1.098,0.984,1.014,1.861c4.728-0.701-2.078-5.482-4.41-1.273
			c-3.679,6.631,9.531,8.229,11.952,3.609c2.591-4.946,1.482-9.292-6.952-10.479C274.496,58.982,273.287,59.063,273.334,59.022z"/>
		<path fill-rule="evenodd" clip-rule="evenodd" fill="#603913" d="M242.313,52.48c2.196,2.723,5.372,4.16,7.076,5.141
			c0.722,0.415,1.203,0.152,1.716,0.658c0.8-0.958,2.38,0.335,3.518-0.625c-0.078-0.673-0.55-0.563-0.538-1.202
			c-0.974,0.321-1.797-0.373-2.784-0.288c-5.176,0.435-14.03-12.327-5.898-14.501c4.143-1.109,8.553,4.613,4.626,7.147
			c-1.381,0.816-2.343-0.097-3.057-0.922c-0.588-1.268,0.489-1.379,1.341-1.648c-2.513-4.003-4.313,4.034,0.541,4.492
			c7.641,0.722,3.947-11.857-1.321-12.235c-5.642-0.4-8.662,3.384-6.457,11.483C241.02,49.958,241.553,51.543,242.313,52.48z"/>
		<path fill-rule="evenodd" clip-rule="evenodd" fill="#603913" d="M261.202,51.539c-1.203-0.571-2.734,0.697-3.776-0.751
			c-0.389-4.863,4.67-3.833,6.351-1.53c3.766,5.155-1.874,7.899-7.571,8.424c-0.034,0.123-0.037,0.25-0.075,0.367
			c0.562,0.644,0.968,1.376,1.275,2.146c2.871,0.038,5.277-0.309,6.872-1.49c4.559-3.383,1.388-20.432,11.521-13.604
			c0.247,0.963,0.133,1.812,0.38,2.775c-1.521,1.216-2.864,1.476-3.776-0.752c-1.278,3.081,3.541,3.603,4.786,2.396
			c3.07-2.969-2.162-10.294-7.19-8.465c-3.538,1.29-2.824,3.814-4.43,7.883C259.118,37.426,251.265,56.215,261.202,51.539z"/>
	</g>
	<g>
		<g>
			<path fill="#603913" d="M109.368,158.529l0.304,2.737l-0.878,0.48l-0.177,1.761l-0.449,0.205
				c-0.04,0.497-0.237,0.995-0.592,1.492c-1.238,0.325-2.589,0.491-4.052,0.501c-1.463,0.01-3.482-0.426-6.056-1.312
				c-0.325-0.269-0.738-0.694-1.242-1.276l-0.512-0.133l-0.597-0.672l-1.779-0.191l-1.419,0.958l0.077,0.27l-0.338,0.002l0.22,1.487
				l-0.416,0.205l0.211,0.743c-0.189,1.803-0.396,3.627-0.617,5.474l-0.679,0.477c-0.009,0.767,0.204,1.755,0.639,2.968l-0.121,1.25
				l0.325,1.146l-0.389,0.543l0.211,0.741c-0.313,0.813-0.576,1.4-0.789,1.762l0.218,1.483l0.413,0.74l0.456-0.539
				c1.013-0.165,1.774-0.662,2.283-1.495l0.619-0.206l0.67-1.213l0.676-0.005l0.658-0.541l0.406-0.003l0.609-0.475l2.09-0.148
				l2.004,1.341l0.077,0.27l0.347,0.269l0.943,1.413l0.347,0.27l0.133,1.419c-0.547,0.523-0.874,1.112-0.98,1.766l-0.336,0.003
				c-0.042,0.723,0.172,1.714,0.642,2.973l-0.192,0.272l0.268,0.945l-0.326,0.273c0.047,1.826-0.24,2.989-0.861,3.49l0.085,1.014
				l0.413,0.742l0.749-0.209c0.253-0.294,0.857-0.817,1.811-1.568l0.271-0.002l0.076,0.271l0.075,1.218l-0.464,0.273l0.058,0.203
				c-0.235,0.361-0.611,0.905-1.128,1.631l-1.497,0.688c-0.296-0.088-1.006-0.129-2.132-0.122l-1.793-1.069
				c-0.847-1.076-1.379-1.998-1.597-2.764l0.31-0.34l-0.395-0.675c-0.031-0.27-0.124-0.676-0.277-1.216l0.126-0.271l-0.134-0.473
				c0.255-0.452,0.481-1.306,0.678-2.559c0.196-1.253,0.219-2.149,0.065-2.69l0.466-1.695l-0.134-0.472l0.337-0.002l-0.153-0.541
				l0.348-0.205l-0.077-0.27l0.27-0.002l0.136-0.475l-0.558-1.012l-1.217,0.008c-0.455,0.228-0.798,0.609-1.029,1.148l-1.394,0.814
				l0.122,0.671l-0.986,0.342l0.076,0.269l-0.127,0.27c-0.184,0.068-0.456,0.182-0.818,0.341c-0.361,0.159-0.633,0.273-0.817,0.341
				l-0.137,0.476l-0.203,0.002l-0.049,0.544l0.058,0.203l-0.736,0.276l0.174,0.611c-0.212,1.245-0.169,2.195,0.13,2.85l-0.261,0.273
				l0.058,0.203c0.005,0.814-0.167,1.325-0.516,1.531l0.134,0.474l-0.388,0.547l0.007,1.697c-0.427,0.477-0.657,1.132-0.69,1.968
				c-0.257,0.361-0.7,0.862-1.33,1.497l0.076,0.271l-0.741,0.478c-1.428-0.192-2.33-0.435-2.704-0.725l-0.057-0.202l-0.625-0.538
				l0.002-0.947l0.126-0.271l0.203-0.002l-0.077-0.271l0.542-0.95c-0.481-2.253-0.796-4.156-0.944-5.712
				c0.055-0.203,0.255-0.453,0.6-0.749l-0.008-0.743l0.541-0.479l-0.077-0.27l-0.26-0.201l-0.153-0.54l0.6-0.749l0.069-0.475
				c0.315-0.158,0.56-0.408,0.735-0.748l-0.211-0.743c0.6-0.905,0.601-2.056,0.001-3.45c0.249-0.791,0.685-1.562,1.307-2.311
				l-0.056-0.675l0.27-0.002l-0.327-0.675l0.175-0.577l-0.211-0.742l0.348-0.206l-0.288-1.013l0.194-0.271l-0.191-0.675l0.591-1.494
				l-0.153-0.54l0.331-1.22l-0.077-0.27l0.337-0.003l-0.135-0.474l0.205-0.948l-0.701-1.754l-0.008-0.744l0.202-0.001l-0.134-0.473
				l1.149-0.481l0.049-0.542l0.802-0.75l0.473-0.003l0.068-0.474l0.474-0.479c0.869-0.433,1.519-0.606,1.95-0.521l1.13-0.549
				c0.338-0.002,1.064,0.016,2.182,0.054c0.884,0.017,1.594,0.012,2.128-0.015l0.531-0.273l1.284-0.009
				c0.112-0.001,0.861,0.213,2.247,0.644c1.386,0.431,2.17,0.69,2.354,0.779l0.954,0.738l0.888,0.264l0.975-0.142l0.726-0.546
				c0.342-0.859,0.464-1.662,0.366-2.404l-0.663-1.62l0.049-0.541l0.619-0.207l0.944,0.467L109.368,158.529z"/>
			<path fill="#603913" d="M130.951,178.41l-0.135,0.476l-0.394,0.272l0.077,0.271l-1.893,0.216l-0.118,0.542l0.192,0.675
				l-0.127,0.272l0.211,0.742l-0.271,0.002l0.077,0.271l-0.272,0.475l0.037,0.609l-0.427,0.408l0.338,0.472
				c-0.102,0.361-0.154,1.174-0.158,2.438l-0.672,1.223l0.271-0.002l0.076,0.27c-0.605,0.501-1.049,1.011-1.332,1.531l-0.021,0.406
				l0.23,0.336l0.364,2.231l-0.201,0.002l0.135,0.473l-0.258,0.746l0.336,0.471l0.8,0.197c0.4-0.656,1.153-1.226,2.257-1.707
				l0.616,0.74l-0.278,1.288c-0.812,0.637-1.415,1.454-1.81,2.448c-1.242,0.392-2.099,0.556-2.567,0.49l-0.058-0.202l-0.743,0.005
				c-0.574-0.515-1.191-0.938-1.85-1.272c-0.103-0.518-0.375-1.237-0.817-2.16l-0.693-0.536l-0.203,0.001
				c-0.787,0.885-1.187,1.542-1.201,1.971l-1.139,0.278l-0.262,0.746l-1.266,0.55l-0.921-0.264l-0.772,0.139
				c-0.98-0.512-1.784-0.799-2.411-0.861l-1.157-0.737c-1.11-1.525-1.761-2.628-1.953-3.302c-0.102-0.36-0.14-0.812-0.113-1.354
				l0.203-0.001c0.023-0.315,0.018-0.891-0.016-1.725l-0.356-0.539l-0.077-0.271c-0.063-0.225-0.016-0.553,0.145-0.982
				c0.16-0.429,0.219-0.757,0.178-0.982c1.083-0.955,1.498-2.354,1.244-4.203c0.383-0.318,0.66-0.658,0.827-1.021
				c0.734-0.274,1.255-0.504,1.564-0.687l0.271-0.002c0.329-0.588,0.751-1.087,1.267-1.497l0.117-0.542l2.018-0.758l2.037,0.257
				l0.876,0.468l0.946-0.006l0.744-0.953l0.946-0.007l1.418,0.465l0.902-0.277l0.617,0.267l0.337,0.472l1.699-0.215l0.59-0.545
				l0.549,0.267l0.667-0.275C130.451,177.603,130.704,177.938,130.951,178.41z M123.571,179.476l-1.639-0.529
				c-0.831,0.254-1.616,0.349-2.355,0.286l-1.545,0.755l-0.678,0.95c0.034,0.362-0.059,1.445-0.279,3.251s-0.386,2.755-0.495,2.846
				l0.076,0.743l-0.503,0.612l0,0.474l0.269,0.472l-0.445,1.051l0.249,0.879l-0.291,0.407l0.192,0.676l-0.136,0.475l0.077,0.271
				l-0.633,0.274l0.269,0.946l0.279,0.269l1.182,0.466c0.489-0.184,1.159-0.685,2.01-1.502l0.27-0.002l0.609-0.479
				c0.145-0.36,0.41-0.859,0.794-1.494l-0.058-0.202l0.396-0.273c0.239-0.903,0.608-2.226,1.107-3.966l-0.077-0.271l0.532-0.748
				c-0.143-0.742-0.081-1.555,0.188-2.437c-0.09-0.157-0.145-0.585-0.162-1.284l0.483-0.206l-0.077-0.271l-0.212-0.27
				c0.046-0.315,0.159-0.79,0.34-1.423l0.203-0.002L123.571,179.476z"/>
			<path fill="#603913" d="M156.474,179.861l-0.126,0.271l0.355,1.25l-0.193,0.272l-0.186,1.253l0.336,0.471l-0.193,0.271
				c0.08,0.52,0.115,1.24,0.107,2.166l0.231,0.336c-0.278,0.611-0.549,1.526-0.812,2.746c-0.253,1.333-0.304,2.269-0.15,2.809
				l-0.295,0.746l0.413,0.979c0.786-0.727,1.328-1.441,1.625-2.142l0.773-0.378l1.124,0.264c0.044,0.473-0.181,1.151-0.674,2.034
				c-0.569,1.019-0.906,1.777-1.013,2.272l-0.387,0.309l0.058,0.202l-1.357,1.058c-0.763-0.063-1.737-0.474-2.922-1.231
				c-0.17-0.202-0.502-0.459-0.998-0.772l-0.548-0.74l-0.22-0.775l-0.405-0.472l0.04-0.576l-0.278-0.741
				c-0.269-0.946-0.169-2.283,0.3-4.012c0.468-1.729,0.48-3.257,0.035-4.585c0.221-0.813,0.266-1.806,0.136-2.978l-0.785-0.265
				l-0.194,0.271l0.058,0.203l-1.223,1.058l0.077,0.271l-0.922,0.209l0.077,0.271c-0.673,0.253-1.086,0.582-1.242,0.988l0.153,0.54
				c-0.235,0.205-0.784,0.379-1.646,0.52l0.134,0.474l-0.473,0.003l-0.16,0.271l-0.27,0.002l-0.137,0.474l0.163,0.573l-0.686,0.209
				l0.134,0.473l-0.151,0.779l0.268,1.183c-0.171,0.429-0.245,1.123-0.221,2.081c0.023,0.959-0.039,1.653-0.188,2.083
				c-0.352,0.272-0.653,0.76-0.905,1.46c-0.288,0.813-0.532,1.346-0.731,1.596c-0.759,0.186-1.922,0.464-3.486,0.835l-0.939-0.331
				l-1.087,0.345l-1.532-0.868l-0.948-1.313l-0.065-1.184l0.701-0.274c0.793,0.332,1.457,0.644,1.991,0.933l1.192-0.211l0.691-0.547
				l-0.21-1.452l0.213-0.205c-0.253-0.811-0.367-1.531-0.344-2.162c0.159-0.633,0.368-1.604,0.629-2.914
				c-0.083-1.083-0.026-2.673,0.168-4.771l-0.423-0.775l0.049-0.542l-0.607-0.469l-0.701,0.274l0.058,0.203l-0.937,0.276
				l-0.575,0.479c-0.968,0.165-1.77,0.361-2.403,0.592l-1.413-0.565l-0.481-0.742l0.136-0.474c2.399,0.028,4.705-0.755,6.915-2.348
				l0.541-0.004l1.319-1.193l0.807-0.141l0.839,0.333c1.278,1.006,1.931,1.836,1.959,2.49l-0.396,0.272l0.144,0.507l-0.296,0.746
				c0.096,0.18,0.144,0.508,0.143,0.981l0.289,0.539l0.583,0.266c0.772-0.298,1.551-0.811,2.338-1.538l-0.077-0.271l0.271-0.002
				l0.541-0.478l0.305-0.002l0.58-0.578l0.136-0.475l0.922-0.21l-0.076-0.27c0.573-0.364,1.096-0.627,1.57-0.789l0.126-0.271
				l0.574-0.004c0.599-0.275,1.013-0.605,1.242-0.99l0.743-0.005l0.347,0.504l0.304-0.002c0.517,0.472,1.021,1.133,1.512,1.987
				L156.474,179.861z"/>
			<path fill="#603913" d="M178.199,176.397l0.142,1.218l-0.685,0.208c-0.238-0.044-0.852-0.176-1.838-0.394
				c-0.727-0.177-1.327-0.263-1.799-0.259c-0.045,0-0.454,0.07-1.226,0.212l-0.126,0.271l-1.419,0.01l-0.552,0.681
				c0.054,0.586-0.025,1.264-0.235,2.032c0.253,0.651,0.374,1.396,0.363,2.23l-0.339,0.475l0.635,1.281l-0.415,0.206l-0.136,0.475
				l0.424,0.538l-0.368,0.612l0.085,1.014l-0.251,0.069l-0.186,1.017l0.058,0.203l-0.86,0.547l0.491,0.774l-0.406,0.476l0.008,0.745
				l-0.49,1.018l0.135,0.473l0.26,0.202l0.574-0.004l0.153,0.54l-0.213,0.205c0.302,0.427,0.584,0.943,0.846,1.55l1.275-0.279
				l0.636,0.334l0.31-0.341l0.598,0.199c0.421-0.183,1.072-0.436,1.951-0.758l0.532-0.747l0.138-1.423l-0.364-1.283
				c0.108-0.97,0.312-1.682,0.612-2.135l-0.637-0.334l0.407-0.477l-0.077-0.27l0.609-0.479l0.743-0.006
				c0.557,0.133,0.823,0.198,0.801,0.198l1.098,1.481l-0.253,0.779l0.211,0.743c-0.329,0.747-0.752,1.246-1.267,1.497l0.076,0.271
				l-0.475,0.95c0.127,0.766,0.013,1.398-0.342,1.897l-0.657,0.546l-0.329,0.746c-0.838,0.547-1.578,0.8-2.221,0.76l-0.117,0.542
				l-0.473,0.003l-0.347-0.269c-0.441,0.116-0.734,0.276-0.879,0.479l-1.139,0.279l-0.077-0.271
				c-1.109-0.174-1.95-0.234-2.523-0.186c-0.263-0.292-0.75-0.615-1.46-0.973c-0.79-0.399-1.322-0.723-1.595-0.97l-0.364-1.283
				l-0.26-0.2l-0.288-1.014c0.128-1.376,0.121-2.279-0.023-2.706l0.291-0.407c0.136-0.476,0.05-1.095-0.257-1.859l0.552-1.154
				c-0.08-0.202-0.165-1.059-0.255-2.57l0.416-0.679l-0.424-0.539c-0.002-0.879-0.012-2.187-0.031-3.923l0.474-0.004
				c0.126-0.271,0.128-0.858,0.008-1.759l-0.381-0.269l-1.139,0.278c-0.364,0.386-0.699,0.636-1.005,0.751l-0.8-0.197
				c-0.795,0.456-1.651,0.62-2.568,0.491l-0.018-1.015c0.435-0.454,0.974-0.864,1.614-1.229l0.473-0.003l0.136-0.476l0.743-0.005
				l0.812-0.479l0.647,0.132c0.833-0.163,1.549-0.382,2.148-0.657l0.051-1.015l0.473-0.004l0.668-1.223l-0.009-0.744
				c0.374-0.272,0.66-0.456,0.86-0.547l-0.008-0.745l0.82,0.266l0.193-0.272l-0.134-0.473l0.879-0.479l-0.134-0.473l0.262-0.746
				l0.473-0.003l0.328,0.201l0.415-0.206l0.479,1.688l-0.396,0.273l0.057,0.202l-0.193,0.272l0.211,0.743l-0.668,1.223
				c0.175,0.854,0.103,1.634-0.217,2.336c0.897,0.061,1.814,0.189,2.75,0.387c0.367-0.138,0.978-0.211,1.834-0.217
				c0.923-0.006,1.708,0.058,2.354,0.188L178.199,176.397z"/>
			<path fill="#603913" d="M195.827,190.928c0.153,0.382,0.155,0.945,0.006,1.691l-0.396,0.272l-0.137,0.475l-0.27,0.002
				l-0.319,0.544l-0.956,0.209c-0.022,0.159-0.105,0.386-0.247,0.679c-0.142,0.295-0.224,0.521-0.248,0.679l-0.638,0.613
				l-0.937,0.276l-0.125,0.271l-0.956,0.21l-0.194,0.271l-1.383-0.464c-0.988,0.096-2.031-0.076-3.126-0.52l-0.058-0.203
				c-0.257-0.269-0.465-0.448-0.626-0.537l-0.53-0.2c-0.609-0.717-1.017-1.437-1.221-2.156l0.108-0.813
				c0.29-0.249,0.636-1.176,1.038-2.781c0.269-1.039,0.535-2.089,0.797-3.15c-0.108-0.542-0.077-1.781,0.094-3.722l-0.134-0.473
				l0.193-0.272l-0.077-0.271l0.304-0.002l0.234-1.085l-0.375-1.08l-0.347-0.268c-0.635,0.071-1.138,0.323-1.512,0.754l0.076,0.271
				c-0.824,0.275-1.413,0.506-1.767,0.689l-0.388,0.544c-0.432,0.07-0.859,0.231-1.284,0.481l-0.56-0.063l-0.588-0.402l-0.288-0.539
				l-0.058-0.677c0.609-0.635,1.16-1,1.652-1.093c0.683-0.141,1.364-0.28,2.047-0.421c0.255-0.136,0.625-0.342,1.111-0.616
				c1.162-0.593,2.734-0.898,4.716-0.912c0.045,0,0.224,0.033,0.536,0.099c0.312,0.066,0.49,0.099,0.536,0.098
				c0.521,0.402,0.976,0.896,1.367,1.479l0.271-0.002c0.263,0.292,0.526,0.899,0.788,1.821c0.025,0.091,0.065,0.473,0.122,1.149
				c-0.126,0.114-0.373,0.521-0.74,1.224l-0.669,0.274l0.009,0.745l-0.27,0.001l-0.338,0.477c0.253,0.652,0.374,1.396,0.363,2.23
				l-0.202,0.001c0.069,0.564,0.03,1.061-0.118,1.489l-0.549,0.681c-0.048,1.737-0.03,2.673,0.054,2.808l-0.202,0.001
				c0.069,0.406,0.124,0.992,0.16,1.759l0.298,0.81c0.663-0.049,1.487-0.422,2.475-1.116c0.987-0.694,1.518-1.347,1.593-1.956
				l0.677-0.479l0.589-0.071L195.827,190.928z M191.794,165.039l-0.358,0.41c0.146,0.991,0,1.668-0.438,2.032l0.192,0.675
				l-0.368,0.611l-0.001,0.947L190,169.923c0.107,0.699,0.042,1.264-0.196,1.693c-0.412,0.297-0.754,0.683-1.025,1.158l-0.801,0.276
				l-1.011-1.415c-0.095-0.495-0.284-1.238-0.565-2.229c0.327-0.994,0.189-2.031-0.409-3.109c0.092-0.789,0.305-1.468,0.641-2.033
				l1.082-0.482l0.194-0.271c0.309-0.183,0.667-0.275,1.072-0.278l1.08-0.007c0.559,0.222,1.06,0.557,1.504,1.005L191.794,165.039z"
				/>
			<path fill="#603913" d="M260.561,181.252l0.324,1.621l-0.787,0.209c-0.184-0.089-0.85-0.13-1.999-0.122
				c-0.405,0.002-0.968-0.15-1.689-0.463c-0.655-0.716-1.162-1.231-1.522-1.545l-1.129-0.398c-0.497,0.477-0.804,1.066-0.922,1.766
				l0.135,0.946l-0.607,0.478l-0.396,1.221l0.316,0.878l-0.02,0.879l-0.53,0.275l0.336,0.944l-0.521,0.781
				c0.107,0.699,0.043,1.264-0.194,1.693l-0.665,0.274l0.115,0.88l0.307,0.606l0.018,1.015l-0.279,0.679l0.066,0.946l-0.572,1.088
				c-0.762,0.185-1.313,0.347-1.658,0.484c-0.576-0.357-1.304-0.533-2.182-0.527c-0.203,0.002-0.574,0.105-1.115,0.313
				c-0.539,0.207-0.929,0.288-1.166,0.245l-0.529-0.673l-0.163-0.812c0.3-0.294,0.699-0.793,1.199-1.496
				c-0.343-0.81-0.438-1.464-0.285-1.961l0.27-0.002l-0.037-0.608l0.3-0.138l0.029-0.608l0.271-0.002l0.128-1.22
				c0.174-0.339,0.5-0.781,0.977-1.325c-0.134-0.474,0.002-1.104,0.409-1.897l-0.229-0.812c0.237-1.309,0.18-2.346-0.174-3.111
				l-0.773-0.941l-0.734-0.197c-0.257,0.048-0.679,0.072-1.264,0.076l-0.608,0.478l-0.858-0.4l-0.705,0.141l-0.328-0.201
				l-0.945,0.007l-0.153-0.54c0.204-0.476,0.61-0.793,1.22-0.956l0.695,0.063c0.304-0.521,0.877-0.886,1.722-1.096l0.946-0.006
				l0.213-0.204l1.087,0.129c0.338-0.003,0.812-0.323,1.422-0.958c0.724,0.243,1.364,0.51,1.921,0.799
				c0.571,0.582,0.954,1.054,1.146,1.413l0.076,0.271l0.867,1.144l0.203-0.001c0.154-0.723,0.488-1.491,1.001-2.308
				c0.615-0.928,1.237-1.473,1.867-1.636l0.819,0.265l0.664,0.673c0.654,0.244,1.206,0.6,1.655,1.07l0.153,0.54l1.127,0.873
				l1.021,0.264l0.058,0.202L260.561,181.252z"/>
			<path fill="#603913" d="M280.314,181.456l-0.193,0.271l0.143,0.744l0.463,0.674l-0.041,0.812l0.423,1.013
				c-0.218,1.22-0.551,2.033-0.998,2.442c-0.046,0-0.205,0.034-0.479,0.104c-0.274,0.07-0.433,0.104-0.478,0.105
				c-0.046,0-0.561-0.064-1.544-0.192l-0.55-0.268c-0.521,0.072-1.771-0.062-3.75-0.397c-1.98-0.335-3.335-0.637-4.064-0.902
				l-0.729,0.412c-0.036,0.112-0.086,0.71-0.15,1.793c-0.065,1.083-0.085,1.67-0.06,1.76c0.058,0.202,0.151,0.495,0.283,0.878
				c0.131,0.383,0.226,0.675,0.283,0.878l1.607,2.086c0.693,0.221,1.097,0.332,1.21,0.331c0.067,0,0.132-0.013,0.193-0.035
				c0.061-0.023,0.125-0.035,0.193-0.036l2.084,0.188c0.479-0.138,0.988-0.412,1.526-0.821c0.663-0.523,1.114-0.843,1.353-0.957
				l0.453-0.071c0.41-0.385,0.681-0.86,0.814-1.426l1.303-0.415l0.481,0.741c0.047,0.563-0.728,1.968-2.324,4.211
				c-0.641,0.365-1.621,0.608-2.94,0.73c-1.454,0.123-2.453,0.298-2.996,0.527l-1.597-0.259l-0.261-0.202l-1.293-0.262
				c-1.365-0.757-2.816-2.056-4.354-3.895c-0.198-0.539-0.496-1.192-0.894-1.956c-0.002-0.406-0.084-1.251-0.246-2.536l0.193-0.272
				l-0.192-0.201l0.339-0.476l-0.018-1.015c0.313-0.251,0.487-0.748,0.524-1.492l-0.633-2.229l0.482-0.207l-0.025-1.759
				c1.101-1.924,2.494-3.174,4.181-3.75c0.113-0.001,0.285,0.01,0.517,0.031c0.231,0.021,0.403,0.031,0.517,0.03
				c0.602-0.185,0.891-0.277,0.869-0.277l0.906,0.332c0.258-0.046,0.608-0.162,1.053-0.345c0.344,0.021,0.874,0.141,1.592,0.361
				c0.717,0.221,1.247,0.342,1.591,0.361l0.887,0.738l0.752,0.266l0.472,0.47l1.062,0.399l0.713,0.604
				c0.183,0.246,0.407,0.64,0.674,1.18C279.907,180.816,280.131,181.209,280.314,181.456z M276.693,182.292l-0.347-0.268
				c-0.229-0.811-0.425-1.419-0.585-1.822c-0.424-0.539-1.516-1.367-3.276-2.482c-0.856,0.006-1.883,0.283-3.08,0.833l-0.185,0.543
				l-0.493,0.409l-0.098,0.609l-0.146,0.204l0.153,0.54l-0.31,0.341c-0.058,0.271-0.043,0.722,0.047,1.353l-0.271,0.002l0.105,0.608
				l0.433,0.809c1.601,0.712,4.229,1.145,7.882,1.3c-0.018-0.698,0.108-1.129,0.379-1.288L276.693,182.292z"/>
			<path fill="#603913" d="M301.29,181.314l-0.194,0.271l0.145,0.744l0.461,0.674l-0.04,0.812l0.423,1.013
				c-0.218,1.22-0.551,2.033-0.998,2.442c-0.046,0-0.205,0.034-0.479,0.104c-0.273,0.07-0.434,0.104-0.479,0.105
				c-0.045,0-0.56-0.063-1.543-0.192l-0.55-0.268c-0.521,0.072-1.771-0.061-3.751-0.396c-1.979-0.336-3.334-0.637-4.063-0.903
				l-0.729,0.412c-0.036,0.112-0.086,0.71-0.151,1.794c-0.064,1.082-0.084,1.669-0.059,1.759c0.058,0.202,0.151,0.495,0.283,0.878
				c0.131,0.383,0.226,0.675,0.283,0.878l1.607,2.086c0.694,0.221,1.098,0.332,1.211,0.331c0.066,0,0.132-0.013,0.192-0.035
				c0.062-0.023,0.126-0.035,0.193-0.036l2.084,0.188c0.479-0.137,0.987-0.411,1.526-0.821c0.663-0.523,1.114-0.842,1.353-0.957
				l0.454-0.071c0.408-0.385,0.68-0.86,0.813-1.426l1.305-0.415l0.48,0.741c0.047,0.563-0.728,1.968-2.324,4.211
				c-0.641,0.365-1.621,0.608-2.939,0.731c-1.455,0.122-2.453,0.297-2.998,0.526l-1.596-0.259l-0.261-0.202l-1.293-0.262
				c-1.365-0.757-2.816-2.056-4.354-3.895c-0.199-0.539-0.496-1.192-0.894-1.956c-0.003-0.406-0.085-1.251-0.246-2.536l0.193-0.271
				l-0.192-0.202l0.339-0.476l-0.018-1.015c0.313-0.25,0.487-0.748,0.524-1.492l-0.633-2.229l0.482-0.207l-0.025-1.759
				c1.101-1.924,2.494-3.174,4.182-3.75c0.112-0.001,0.284,0.01,0.516,0.031c0.231,0.021,0.404,0.031,0.518,0.03
				c0.601-0.185,0.89-0.277,0.868-0.276l0.906,0.331c0.257-0.046,0.608-0.162,1.053-0.345c0.344,0.021,0.874,0.141,1.591,0.361
				c0.718,0.221,1.248,0.342,1.592,0.361l0.887,0.738l0.752,0.266l0.473,0.471l1.061,0.398l0.713,0.604
				c0.183,0.247,0.406,0.64,0.674,1.18C300.883,180.674,301.106,181.066,301.29,181.314z M297.669,182.149l-0.347-0.268
				c-0.23-0.811-0.426-1.419-0.585-1.822c-0.424-0.538-1.517-1.366-3.276-2.481c-0.856,0.006-1.883,0.282-3.08,0.833l-0.184,0.542
				l-0.493,0.409l-0.099,0.609l-0.145,0.204l0.153,0.54l-0.31,0.341c-0.059,0.271-0.044,0.722,0.046,1.354l-0.271,0.001l0.105,0.608
				l0.433,0.81c1.601,0.711,4.228,1.144,7.881,1.299c-0.018-0.698,0.108-1.129,0.379-1.288L297.669,182.149z"/>
		</g>
	</g>
	<g>
		<g>
			<path fill="#603913" d="M79.109,135.327l-1.94-2.251c0,0-4.048-1.497-5.37-2.457c-3.404-0.226-4.75,0.183-5.756,0.416
				c-1.003,0.235-3.407,1.492-3.959,1.507c-1.222,0.884-2.591,1.116-3.704,1.409l-3.367,1.773c0,0-0.416,2.543-1.472,3.122
				c-0.175,0.603-1.248,1.881-2.151,2.889c-0.907,1.007-0.624,2.104-0.759,2.798c-0.304,0.146-0.57,0.288-0.869,0.429
				c0.224,0.74,0.353,1.506,0.386,2.28c0.125-0.089,0.277-0.169,0.4-0.259c1.576,0.906,2.756,2.121,3.543,3.647l0.449,1.816
				l1.991,1.586c0.037,0.063,0.096,0.173,0.174,0.328c0.081,0.156,0.139,0.265,0.176,0.323c0.976,1.122,1.523,1.793,1.641,2.012
				c0.734,1.336,1.28,2.361,1.634,3.081c0.468,0.544,0.865,0.967,1.184,1.264l0.068,0.777l1.127,0.581
				c2.72,5.498,4.531,8.938,5.434,10.326c0.023,0.259,0.072,0.659,0.151,1.206c0.081,0.547,0.132,0.95,0.154,1.209
				c0.021,0.259,0.009,0.665-0.038,1.221c-0.053,0.562-0.064,0.968-0.042,1.227c-0.023-0.259,0.174,0.506,0.589,2.291
				c-0.022,0.133-0.176,0.996-0.462,2.585c-0.193,1.117-0.245,2.004-0.16,2.648c-0.916,1.479-1.425,2.694-1.539,3.647
				c-0.512,0.501-1.112,1.645-1.803,3.429l-1.363,1.191l0.061,0.68c-0.547,1.218-1.312,2.133-2.303,2.74l-3.97,1.514
				c-0.444,0.171-0.692,0.257-0.759,0.259c-1.746,0.154-3.314,0.064-4.711-0.272l-1.721,0.443c-3.131-0.446-5.546-0.691-7.24-0.74
				c-1.208-0.742-2.547-1.209-4.03-1.409l-2.152-3.427l-0.548-2.934c1.135-2.276,1.701-4.053,1.687-5.319l0.999-0.867
				c0.806-1.601,1.433-2.602,1.89-2.999l1.507-0.619c0.174-0.241,0.789-0.881,1.838-1.914c0.78-0.754,1.309-1.451,1.578-2.093
				l1.422-0.513l0.329-0.711l1.652-1.221c1.38-0.216,2.679-0.23,3.899-0.046l0.419,1.431l-0.2,1.092l-1.336,1.484
				c-0.184,2.358-0.258,4.157-0.217,5.389l0.482,1.034l2.07,0.21l0.117,1.355c-1.498,0.752-2.274,1.178-2.33,1.278
				c-1.34,0.312-2.077,0.475-2.206,0.484c-0.191,0.014-0.879-0.021-2.063-0.113c-0.141-0.541-0.076-1.267,0.208-2.167l-0.724-2.675
				l-1.715-0.63c-1.072-0.003-2.127,0.446-3.152,1.347l-1.15,2.542l0.035,0.386c1.138,2.603,2.588,4.14,4.353,4.606
				c3.135-0.271,5.459-0.7,6.972-1.29c1.89-0.714,3.903-2.096,6.037-4.137l0.531-2.879l1.655-1.218l0.583-1.122l-0.09-1.068
				l0.563-1.416l-0.475-2.11c-1.411-1.601-2.46-2.81-3.152-3.633l-0.031-0.386l-2.23-0.979c-0.918-0.053-1.635-0.053-2.152-0.009
				c-0.741,0.066-1.898,0.294-3.458,0.691c-1.874,0.521-3.052,0.814-3.534,0.892l-1.361,1.192l-0.202,1.091
				c-3.827,2.774-6.195,4.672-7.096,5.693c-0.907,1.025-2.408,3.53-4.501,7.52l-0.521,4.148c0.216,2.49,1.117,4.608,2.699,6.358
				c2.429,0.962,4.271,1.615,5.544,1.964l0.033,0.386c1.722,1.088,4.212,2.009,7.466,2.769c3.257,0.763,5.87,1.055,7.842,0.888
				c-0.516,0.046,0.635-0.185,3.454-0.69c3.21-2.07,5.264-3.322,6.172-3.758c0.344-0.161,1.34-0.491,2.993-0.992
				c1.171-0.328,2.216-0.894,3.124-1.687l0.329-0.715c1.33-0.766,2.492-2.396,3.482-4.891l1.395-0.804l0.554-1.514l0.389-0.035
				l-0.1-1.117l1.234-1.568l0.139-2.847l-0.334,0.031c0.123-0.233,0.311-2.007,0.562-5.322c-0.102-0.838-0.445-2.039-1.019-3.599
				c-0.573-1.561-0.904-2.81-0.984-3.748c-1.743-2.096-2.889-3.674-3.44-4.733c-0.18-0.992-0.455-1.911-0.822-2.76l-0.739-0.619
				l-0.318-1.439l-1.384-1.348c-0.359-1.854-0.964-1.215-2.319-3.345c-1.399-2.254-1.395-2.406-2.939-3.316l-3.208-3.513
				l-2.547-3.068c0,0-2.581-3.854-3.458-3.909l0.976-3.133l1.277-1.569l2.515-1.94c1.614-1.278,3.431-0.894,4.799-1.631l3.493-0.147
				c1.199,0.746,2.795,0.612,4.59,1.703l1.551,1.481l0.764,2.273c-0.374,1.301-0.681,1.863-1.968,3.115l-4.101,1.376
				c-0.207-0.012-0.934-0.075-2.126-0.188c-0.276,1.088-1.018,2.067-2.391,2.585c-0.224,0.086-0.439,0.132-0.656,0.178
				c1.563,0.254,2.841,0.36,3.758,0.282c0.259-0.023,0.632-0.075,1.111-0.147c0.483-0.075,0.852-0.124,1.111-0.144
				c0,0,5.927-1.494,7.262-2.976l1.824-2.583c-0.288-1.439-0.214-2.582-0.208-2.875L79.109,135.327z"/>
		</g>
	</g>
</g>
</svg>
