<?xml version="1.0" encoding="UTF-8" standalone="no"?>
<!-- Generator: Adobe Illustrator 14.0.0, SVG Export Plug-In . SVG Version: 6.00 Build 43363)  -->

<svg
   xmlns:dc="http://purl.org/dc/elements/1.1/"
   xmlns:cc="http://creativecommons.org/ns#"
   xmlns:rdf="http://www.w3.org/1999/02/22-rdf-syntax-ns#"
   xmlns:svg="http://www.w3.org/2000/svg"
   xmlns="http://www.w3.org/2000/svg"
   xmlns:xlink="http://www.w3.org/1999/xlink"
   xmlns:sodipodi="http://sodipodi.sourceforge.net/DTD/sodipodi-0.dtd"
   xmlns:inkscape="http://www.inkscape.org/namespaces/inkscape"
   version="1.1"
   id="Layer_1"
   x="0px"
   y="0px"
   width="351px"
   height="280px"
   viewBox="0 0 351 280"
   enable-background="new 0 0 351 280"
   xml:space="preserve"
   inkscape:version="0.48.4 r9939"
   sodipodi:docname="shanti tree logo.svg"><metadata
     id="metadata53"><rdf:RDF><cc:Work
         rdf:about=""><dc:format>image/svg+xml</dc:format><dc:type
           rdf:resource="http://purl.org/dc/dcmitype/StillImage" /></cc:Work></rdf:RDF></metadata><defs
     id="defs51"><linearGradient
       id="linearGradient3068"><stop
         style="stop-color:#a17850;stop-opacity:1;"
         offset="0"
         id="stop3070" /><stop
         style="stop-color:#603913;stop-opacity:0;"
         offset="1"
         id="stop3072" /></linearGradient><linearGradient
       inkscape:collect="always"
       xlink:href="#linearGradient3068"
       id="linearGradient3074"
       x1="220.82143"
       y1="199.32143"
       x2="224.67856"
       y2="-4.4642854"
       gradientUnits="userSpaceOnUse" /><linearGradient
       inkscape:collect="always"
       xlink:href="#linearGradient3068"
       id="linearGradient3155"
       gradientUnits="userSpaceOnUse"
       x1="220.82143"
       y1="199.32143"
       x2="223.42818"
       y2="-50.311703"
       gradientTransform="matrix(-0.84826751,0,0,0.84826751,347.98251,22.697567)" /><linearGradient
       inkscape:collect="always"
       xlink:href="#linearGradient3068"
       id="linearGradient4282"
       gradientUnits="userSpaceOnUse"
       gradientTransform="matrix(-0.84826751,0,0,0.84826751,347.98251,22.697567)"
       x1="220.82143"
       y1="199.32143"
       x2="223.42818"
       y2="-50.311703" /></defs><sodipodi:namedview
     pagecolor="#ffffff"
     bordercolor="#666666"
     borderopacity="1"
     objecttolerance="10"
     gridtolerance="10"
     guidetolerance="10"
     inkscape:pageopacity="0"
     inkscape:pageshadow="2"
     inkscape:window-width="1855"
     inkscape:window-height="1056"
     id="namedview49"
     showgrid="false"
     inkscape:zoom="1"
     inkscape:cx="34.463899"
     inkscape:cy="75.398088"
     inkscape:window-x="1985"
     inkscape:window-y="24"
     inkscape:window-maximized="1"
     inkscape:current-layer="Layer_1"
     showguides="true"
     inkscape:guide-bbox="true"
     inkscape:snap-global="false" /><g
     id="g4193"
     transform="matrix(1.1648411,0,0,1.1648411,-5.9738668,-5.915461)"><path
       sodipodi:nodetypes="ccaccsscssssccscccccccccccccssccccaaccsscssccssccscssssccsccsccccsscccsscsccccccccsssscccccssccccccccsccsaasczsscsscccsccsc"
       id="path15"
       style="fill:url(#linearGradient4282);fill-opacity:1;fill-rule:evenodd"
       inkscape:connector-curvature="0"
       d="m 87.247799,121.35051 c 4.508438,1.28428 12.978181,5.06498 19.540881,9.28146 -1.05326,-6.27218 -0.96828,-10.83661 -3.1369,-15.72009 -2.50036,-5.63055 -10.051964,-7.20094 -11.020686,-14.83705 -0.508112,-3.975828 1.277491,-10.20211 7.189064,-10.410784 10.466772,-0.3673 6.397332,14.018044 -0.10337,10.128474 -0.483606,-0.289352 -0.79408,-0.591378 -1.069572,-1.395154 -0.511972,-1.493723 0.888128,-2.972974 2.716294,-2.280932 0.90079,0.874683 -0.22441,1.608375 -0.56242,1.139427 -0.32492,-0.450795 -1.22905,0.368394 -0.5386,1.315069 0.44697,0.612856 1.23777,1.129104 2.14057,0.777785 3.16222,-1.230531 3.31792,-5.388093 1.07183,-7.028566 -2.85074,-2.082093 -8.776969,-0.935342 -8.633211,6.338925 0.169654,8.655726 10.763661,10.455746 12.273581,17.597306 0.63561,-1.67389 1.23985,-2.37005 1.69984,-3.62184 0.87264,-2.37477 1.29503,-6.51061 1.99142,-7.32416 1.23791,2.65883 -1.82748,16.73882 -0.01,22.21693 1.99767,6.01337 11.73225,7.74638 17.7821,9.46158 -0.21716,-7.21621 -19.52797,-8.76515 -16.59296,-17.50994 0.95684,-2.84085 8.51745,-4.22776 8.84997,0 0.20952,2.64235 -5.31864,4.59507 -4.42541,0.47333 1.06966,0.19086 0.05,2.16902 2.21143,1.41916 1.65412,-0.98908 -0.0831,-3.04528 -1.10614,-3.31249 -7.35702,2.18175 -0.25618,9.85941 4.97933,9.93746 4.65445,-10.74671 -13.92228,-18.85394 -10.98728,-29.013637 0.71852,-0.12484 1.9259,-6.2447 1.03672,0.388277 -0.50048,5.96671 13.92554,17.00409 12.71422,24.3679 2.82812,-1.46072 3.5017,-3.94249 7.0474,-6.15418 3.4682,-1.33507 5.00676,-1.15819 2.98899,0.17771 -2.17292,1.43864 -6.63451,5.22269 -6.5305,9.39669 0.0726,2.9151 2.96978,5.23211 5.34323,7.46136 4.37885,-3.75043 -1.35822,0.53735 6.53177,-4.85866 4.16198,-2.51756 7.50805,-0.14739 11.28708,-5.80788 0,0 1.37204,-0.97476 1.3274,-0.4288 -2.09352,6.42478 -18.41318,8.85546 -15.27221,15.35534 1.82222,3.77085 9.63868,1.66548 12.4852,-1.40651 6.43784,-6.94778 9.52056,-19.40998 1.02346,-28.39737 -4.69468,-3.36351 -15.19971,-7.17437 -22.48346,-13.916459 -14.47854,-10.461361 -8.16371,-7.407009 -1.72885,-3.095006 5.90336,3.955862 9.77554,2.115019 9.61522,1.809117 -4.47923,-8.546606 -3.58216,-6.577497 -6.13791,-12.563153 -1.39323,-5.658206 -0.42322,-2.56257 2.34155,1.621267 2.21082,3.345574 4.09984,8.289769 5.9993,10.963805 4.12431,5.806145 4.8997,3.854791 5.93082,4.75823 5.25139,-19.008216 -4.91292,7.065049 14.52442,7.571169 4.95664,-7.110323 -2.17121,-15.478761 -1.30747,-20.852573 1.48979,-9.26883 3.06848,-6.995528 2.23393,-14.059481 -0.82085,-6.948018 -5.50869,-14.486251 -11.21121,-15.984374 -11.27607,-3.237107 4.29461,1.494511 9.15318,5.45898 3.19027,2.741346 3.93894,7.614183 4.62645,12.523623 1.0827,7.731396 -4.37431,10.048911 1.0679,20.234414 7.71126,-11.051223 9.77409,-15.758841 18.88717,-24.789818 8.01684,-7.94461 9.00355,-4.809208 17.79649,-10.503411 7.36238,-4.767793 4.8222,-3.166052 -7.2558,3.556999 -4.40644,2.452787 0.37764,-0.769606 -9.92808,9.391836 -6.11155,6.025988 -13.66387,16.676161 -14.05506,24.838801 20.78893,-5.64421 13.56434,-13.361483 14.56766,-14.619285 8.8152,9.799183 -4.24872,14.139895 -14.0719,19.127679 -8.65708,4.3957 -7.02196,16.14084 -8.2969,27.92073 10.70745,-3.42705 14.63469,-8.76957 14.63469,-8.76957 0,0 2.94513,-3.33843 3.8349,-7.26538 0.90006,-3.97237 -0.28908,-8.52601 -6.30204,-7.15244 -14.72741,10.56932 11.88433,-8.819984 10.80824,6.07039 -1.55318,11.63739 -13.41791,17.20701 -24.07854,25.16112 11.11994,-3.41767 21.59528,-11.70223 27.10847,-20.77209 -1.41216,-7.46464 2.86247,-8.99002 -4.04092,-13.33936 -4.81383,-3.032861 1.37988,-0.23033 4.40773,2.4351 4.07183,3.58447 1.98707,7.64902 2.74605,7.01374 4.01315,-5.37166 6.58416,-5.30673 6.03533,-9.50396 -0.19448,-1.50433 -4.49733,-3.529811 -5.60357,-5.401165 -3.37012,-6.39209 0.57557,-10.18749 -0.7206,-7.461884 -0.12725,0.267583 -0.31684,1.369638 -0.15515,2.351131 0.78359,4.756567 0.71476,4.47518 9.20757,8.389418 4.63483,-9.641617 1.62457,-2.782548 3.91029,-8.642057 1.37543,-3.525938 -0.99313,-7.047723 -3.47941,-10.548041 -11.58717,-24.12819 3.92812,12.8769 7.59122,1.91218 4.30813,-7.04082 18.94184,-16.011739 12.68677,-11.411602 -10.55889,11.037397 -12.34646,15.353296 -15.96135,24.34208 -4.45087,10.908 -3.02624,9.29437 -8.33677,16.50584 9.73641,-2.81794 14.45999,-14.89811 25.32581,-18.182042 13.10651,-3.049305 19.76722,-6.408462 8.41148,0.197078 6.05796,3.489145 12.41659,11.290544 10.82984,11.995354 -2.30135,-4.59211 -6.16693,-7.392129 -9.66318,-9.3828 -6.94704,-3.955472 -12.27136,-0.356807 -16.40833,3.39572 -2.80564,2.54493 -0.31764,4.60135 5.11417,4.36035 2.56025,-0.1136 5.4514,0.83884 8.82927,0.54978 3.36226,-0.28772 7.73733,4.76672 9.76988,8.64689 -13.09108,-14.18995 -19.93614,-11.86204 -29.48747,-5.83778 -2.98845,2.81794 -8.03649,4.19723 -12.1684,7.09406 -5.6783,3.98516 -13.69019,14.0295 -3.31842,16.56666 11.25067,-1.88328 17.3872,-17.96706 25.44124,-18.45745 5.71343,0.0831 18.24048,4.84425 16.54265,4.49364 -11.48688,-2.3721 -11.09827,-3.08109 -17.47066,-2.53584 -5.85065,0.50062 -8.95177,7.69888 -13.07519,11.80534 13.10002,0.15261 26.00874,8.20431 34.29715,-1.32923 0.14166,5.10911 -10.72041,6.93204 -19.62128,4.39826 7.24845,5.23297 14.53252,7.33243 15.69295,12.00129 -3.46034,-5.62717 -31.74158,-20.26389 -36.83093,-7.5411 4.69092,0.74733 14.94711,21.31273 37.131,14.20001 -9.57999,-0.91051 -8.56973,5.13431 -40.17882,-12.38556 -4.84361,-1.09596 -10.17277,-7.95506 -18.95454,2.18344 -0.0727,3.39085 5.24996,3.84385 10.4248,8.68097 5.1822,4.84401 9.72923,7.69283 19.60368,10.18941 39.40279,6.87949 -7.89952,0.94544 -15.11113,-2.29053 -6.03621,-2.1021 -14.0699,-10.9256 -18.22814,-9.10916 -9.03176,3.94535 -5.79097,17.6739 -4.97593,26.68565 0.53372,5.90121 2.45268,12.13532 6.3408,16.60653 2.65861,3.05733 3.56911,5.39951 10.64332,5.8702 8.02519,0.53396 32.76297,5.00138 35.18945,4.09007 -27.46648,-0.71576 -39.38206,0.147 -39.93986,-0.1819 -0.5578,-0.3289 -10.40348,2.38281 -16.79861,-2.07566 -11.69325,-8.15214 -13.92851,2.27328 -32.79786,-0.15448 -6.86036,-0.88267 -25.75023,0.60233 -34.629529,-0.29392 8.720489,-1.2747 19.375689,-1.19635 26.546489,-1.54437 17.12547,-0.83116 23.45349,-11.56063 24.56721,-20.24411 1.80167,-14.04735 0.55358,-21.2204 -8.75205,-26.01536 -16.93586,-6.70199 -15.19273,-3.83752 -26.20681,-2.11787 -12.639101,2.7292 -15.010739,5.74863 -23.916811,4.2916 11.067738,-2.10538 6.721889,-1.87973 12.388321,-5.14095 7.0667,-4.06711 14.58107,-4.38025 16.43366,-6.05826 -7.55937,-2.5063 -8.51534,-3.231 -14.18406,-7.33522 -4.848946,-3.56725 -9.368065,-7.03388 -12.461715,-9.3413 -0.795186,-0.59309 -1.050676,-0.85779 -3.146656,-1.78009 z"
       clip-rule="evenodd" /><path
       inkscape:transform-center-x="2.2327399"
       inkscape:transform-center-y="0.35580418"
       sodipodi:nodetypes="sssss"
       inkscape:connector-curvature="0"
       id="path3957"
       d="m 218.37368,136.54853 c -9.1947,-7.28212 -11.26759,-3.30841 -16.21971,-2.03345 -6.08475,1.56654 1.15815,-1.64931 6.78828,5.18689 6.71554,8.15411 11.35348,4.69801 17.11684,-1.65614 3.57236,-3.93861 -0.74278,4.0012 -7.68541,-1.4973 z"
       style="fill:#b0967d;fill-opacity:0.69803922" /><path
       inkscape:transform-center-x="1.210061"
       inkscape:transform-center-y="-0.083402697"
       sodipodi:nodetypes="sssss"
       inkscape:connector-curvature="0"
       id="path3957-2"
       d="m 238.76655,135.43415 c -5.10736,-5.57092 -6.85661,-3.27684 -10.16064,-2.99179 -4.0597,0.3502 0.91654,-0.92085 3.79084,3.9932 3.42839,5.86135 6.76363,4.16439 11.1274,0.75366 2.70487,-2.11413 -0.90119,2.45136 -4.7576,-1.75507 z"
       style="opacity:0.64319249;fill:#bd9062;fill-opacity:0.69803922" /><path
       inkscape:transform-center-x="-3.7716834"
       inkscape:transform-center-y="3.6599345"
       sodipodi:nodetypes="sssss"
       inkscape:connector-curvature="0"
       id="path3957-2-8"
       d="m 222.85373,119.56192 c -10.79823,-2.28416 -10.88021,1.93252 -14.51881,5.08135 -4.47085,3.86901 0.28489,-1.87491 7.89279,1.52682 9.07456,4.05739 11.53473,-0.79763 13.72911,-8.5661 1.36017,-4.81528 1.05032,3.68262 -7.10309,1.95793 z"
       style="opacity:0.78403751;fill:#c9a784;fill-opacity:0.69803922" /><path
       inkscape:transform-center-x="-0.53475776"
       inkscape:transform-center-y="1.3294986"
       sodipodi:nodetypes="cssssc"
       inkscape:connector-curvature="0"
       id="path3957-2-8-9"
       d="m 173.84433,151.72729 c 2.6111,7.04374 5.15403,5.5892 8.36896,6.56705 3.95026,1.20152 -1.22208,0.92754 -1.99361,-4.67353 -0.92032,-6.68081 -5.77882,-8.7038 -10.15506,-5.29442 -2.75778,2.14849 1.80809,-1.91765 3.77971,3.40089 z"
       style="fill:#bd9771;fill-opacity:0.69803922" /><path
       inkscape:transform-center-y="2.9478109"
       inkscape:transform-center-x="-7.7489836"
       sodipodi:nodetypes="cssssc"
       inkscape:connector-curvature="0"
       id="path3957-2-8-9-7"
       d="m 184.66609,142.21184 c 2.94068,10.02224 9.97465,6.0472 16.59028,7.34179 8.12873,1.59068 -2.65212,0.3722 -3.3975,-5.23853 -0.88919,-6.69226 -10.07184,-10.99627 -20.61722,-5.84868 -6.52779,3.18646 4.10809,-1.70894 7.42443,3.74539 z"
       style="fill:#d3a897;fill-opacity:0.69803922" /><path
       sodipodi:nodetypes="sssss"
       inkscape:connector-curvature="0"
       id="path3957-2-8-2"
       d="m 199.80686,117.79485 c -11.05763,2.04947 -8.84311,5.42555 -10.44195,9.22625 -1.96455,4.66998 -0.75881,-1.58999 8.00487,-1.61133 10.45308,-0.0255 10.05428,-4.75892 7.83225,-11.70962 -1.37731,-4.30837 2.95407,2.54719 -5.39517,4.0947 z"
       style="fill:#b7caa2;fill-opacity:0.69803922" /><path
       sodipodi:nodetypes="sssss"
       inkscape:connector-curvature="0"
       id="path3957-2-8-2-9"
       d="m 227.03815,98.694158 c -7.21439,-2.130627 -7.60073,0.229372 -10.33857,1.710542 -3.36405,1.81991 0.34187,-1.029833 5.28443,1.47722 5.89539,2.99031 7.95999,0.45899 10.07078,-3.72827 1.30835,-2.595478 0.43074,2.14927 -5.01664,0.540508 z"
       style="opacity:0.65258215;fill:#9d6f41;fill-opacity:0.69803922" /><path
       sodipodi:nodetypes="sssss"
       inkscape:connector-curvature="0"
       id="path3957-2-8-2-9-1"
       d="m 224.42959,108.82888 c -3.2552,-4.98349 -5.25926,-3.21344 -8.18798,-3.21952 -3.59859,-0.008 0.99053,-0.69482 2.44607,3.58164 1.73617,5.10083 4.99074,3.94097 9.50088,1.43843 2.79561,-1.55119 -1.30108,1.96231 -3.75897,-1.80055 z"
       style="opacity:0.83568073;fill:#bf9266;fill-opacity:0.69803922" /><path
       inkscape:transform-center-x="-1.1814947"
       inkscape:transform-center-y="-0.11878799"
       sodipodi:nodetypes="sssss"
       inkscape:connector-curvature="0"
       id="path3957-2-8-9-1"
       d="m 236.56672,96.162478 c 4.89696,4.282662 6.1527,2.137303 8.93055,1.564825 3.41321,-0.703409 -0.68615,0.88241 -3.62044,-3.05691 -3.5,-4.698714 -6.16273,-2.909465 -9.52726,0.454908 -2.08547,2.085424 0.51956,-2.196537 4.21715,1.037169 z"
       style="opacity:0.9201878;fill:#d5a474;fill-opacity:0.69803922" /><path
       inkscape:transform-center-y="6.8077985"
       inkscape:transform-center-x="10.280457"
       sodipodi:nodetypes="sssss"
       inkscape:connector-curvature="0"
       id="path3957-5"
       d="m 214.09592,86.244059 c -10.27051,6.259027 -7.23649,9.139455 -7.81721,13.870341 -0.71355,5.81292 -1.15132,-1.459949 7.40215,-4.670472 10.20242,-3.829462 8.59141,-8.852112 4.62762,-15.632405 -2.45697,-4.202705 3.54239,1.706537 -4.21256,6.432536 z"
       style="opacity:0.69136155;fill:#bdd396;fill-opacity:0.69804131" /><path
       inkscape:transform-center-x="2.1128789"
       inkscape:transform-center-y="0.20305228"
       sodipodi:nodetypes="sssss"
       inkscape:connector-curvature="0"
       id="path3957-5-8"
       d="m 232.98007,82.784181 c -8.43918,1.417252 -7.30526,4.506272 -9.04025,7.832715 -2.13182,4.087249 -0.32485,-1.444329 6.12811,-1.139729 7.69696,0.363321 8.09871,-3.867712 7.48434,-10.141116 -0.38085,-3.888527 1.79997,2.378001 -4.5722,3.44813 z"
       style="opacity:0.65258215;fill:#cba074;fill-opacity:0.69803922" /><path
       inkscape:transform-center-x="-1.6752068"
       inkscape:transform-center-y="-0.11961862"
       sodipodi:nodetypes="sssss"
       inkscape:connector-curvature="0"
       id="path3957-5-8-9"
       d="m 150.3279,59.963754 c 6.52179,0.02088 6.0457,2.467088 7.75687,4.737898 2.10257,2.790173 0.0681,-1.11852 -4.74929,-0.09775 -5.74613,1.217549 -6.56469,-1.892686 -6.86806,-6.653034 -0.18801,-2.95067 -1.06393,1.997111 3.86048,2.01289 z"
       style="opacity:0.36619717;fill:#9d6f41;fill-opacity:0.69803922" /><path
       sodipodi:nodetypes="sssss"
       inkscape:connector-curvature="0"
       id="path3957-5-0"
       d="m 154.63399,70.301771 c -8.11716,-1.409021 -6.92912,3.397086 -8.50777,7.380192 -1.93974,4.894074 -0.35696,-2.164363 5.89098,0.867472 7.45247,3.616347 7.71524,-2.178045 6.93493,-11.257564 -0.48369,-5.627901 1.8109,4.073818 -4.31814,3.0099 z"
       style="opacity:0.46478876;fill:#9d6f41;fill-opacity:0.69803922" /><path
       sodipodi:nodetypes="sssss"
       inkscape:connector-curvature="0"
       id="path3957-2-8-2-2"
       d="m 192.47065,87.002702 c -2.81948,7.853885 1.29101,8.088117 4.16493,10.896188 3.53123,3.45036 -1.81409,-0.286994 1.92154,-5.746554 4.45572,-6.512044 -0.14769,-8.523086 -7.60879,-10.458652 -4.62475,-1.199748 3.65122,-0.621221 1.52232,5.309018 z"
       style="opacity:0.82159627;fill:#d3a896;fill-opacity:0.69803922" /><path
       sodipodi:nodetypes="sssss"
       inkscape:connector-curvature="0"
       id="path3957-5-7-4-7"
       d="m 213.38653,110.38509 c -4.45076,-2.58066 -5.45528,0.004 -7.85347,1.54543 -2.94668,1.89342 0.56105,-1.12236 3.28597,1.79845 3.25011,3.48392 5.4966,0.76498 8.28862,-3.77512 1.73059,-2.81416 -0.36051,2.3798 -3.72111,0.43126 z"
       style="opacity:0.69136155;fill:#b3895e;fill-opacity:0.69803922" /><path
       inkscape:transform-center-x="-0.55467489"
       inkscape:transform-center-y="-0.93534874"
       sodipodi:nodetypes="sssss"
       inkscape:connector-curvature="0"
       id="path3957-5-7-4-9-8"
       d="m 177.47677,82.716128 c -6.04119,2.499903 -4.17528,6.071366 -4.44163,10.201583 -0.32732,5.07482 -0.71441,-1.689554 4.35125,-1.947079 6.04219,-0.307057 4.99135,-5.386883 2.50176,-12.802425 -1.54317,-4.596469 2.15008,2.660316 -2.41142,4.54791 z"
       style="opacity:0.69136155;fill:#cb9763;fill-opacity:0.5372549" /><path
       inkscape:transform-center-x="0.99016547"
       inkscape:transform-center-y="0.085729442"
       sodipodi:nodetypes="sssss"
       inkscape:connector-curvature="0"
       id="path3957-5-7-4-9-8-6-3"
       d="m 191.374,57.819323 c -0.55164,-6.3284 3.00653,-7.071707 6.1176,-9.847646 3.8226,-3.410815 -1.61356,0.484752 0.28311,4.649111 2.26238,4.967132 -2.13475,7.291647 -8.94939,9.929553 -4.22398,1.635125 2.96521,0.0473 2.54867,-4.731045 z"
       style="opacity:0.69136155;fill:#e1bb95;fill-opacity:0.69803922" /><path
       inkscape:transform-center-x="0.062541998"
       inkscape:transform-center-y="0.65219031"
       sodipodi:nodetypes="sssss"
       inkscape:connector-curvature="0"
       id="path3957-5-7-4-9-8-6-3-4-5"
       d="m 220.15063,69.185473 c 3.67781,-1.270724 2.84236,-3.728203 3.28262,-6.421865 0.54094,-3.309715 0.29753,1.152279 -2.65913,1.011366 -3.52667,-0.168132 -3.26844,3.22917 -2.33708,8.247019 0.57728,3.110269 -1.06336,-1.877038 1.71362,-2.836515 z"
       style="opacity:0.69136155;fill:#c3a383;fill-opacity:0.69803922" /><path
       inkscape:transform-center-x="-0.7428945"
       inkscape:transform-center-y="0.52217206"
       sodipodi:nodetypes="sssss"
       inkscape:connector-curvature="0"
       id="path3957-5-7-4-9-8-6-3-9"
       d="m 180.45348,63.699522 c -3.87611,-4.510451 -1.2826,-6.719276 -0.1612,-10.25173 1.37786,-4.340349 -1.09649,1.112881 2.74476,3.370185 4.5818,2.692418 2.13479,6.480906 -2.17764,11.625804 -2.67298,3.189032 2.52077,-1.338593 -0.40594,-4.74427 z"
       style="opacity:0.69136155;fill:#d2a87d;fill-opacity:0.69803922" /><path
       inkscape:transform-center-x="6.5054151"
       inkscape:transform-center-y="3.575407"
       sodipodi:nodetypes="sssss"
       inkscape:connector-curvature="0"
       id="path3957-5-7-4-9-8-1"
       d="m 149.69472,52.966408 c -4.80604,1.117671 -5.43837,-1.938365 -7.60934,-4.397953 -2.66748,-3.022095 0.39908,1.371119 3.53302,-0.713606 3.73801,-2.486658 5.58948,1.149444 7.72475,6.88103 1.32353,3.552674 -0.0195,-2.613373 -3.64843,-1.769444 z"
       style="opacity:0.69136155;fill:#dab692;fill-opacity:0.69803922" /><path
       sodipodi:nodetypes="sssss"
       inkscape:connector-curvature="0"
       id="path3957-5-7-4-9-9"
       d="m 171.93012,48.093715 c -1.7728,6.292416 -4.72015,5.305568 -8.03284,6.468377 -4.07033,1.428774 1.38766,0.306896 1.39475,-4.564466 0.008,-5.810385 4.13717,-5.930444 10.20214,-5.197454 3.75933,0.454366 -2.22545,-1.457612 -3.56404,3.293569 z"
       style="opacity:0.69136155;fill:#d9a26b;fill-opacity:0.69803922" /><path
       sodipodi:nodetypes="sssss"
       inkscape:connector-curvature="0"
       id="path3957-5-7-4-9-9-8"
       d="m 155.6237,91.867963 c 5.6235,5.414508 2.89851,7.972281 2.23196,12.125997 -0.81896,5.10367 1.11663,-1.29304 -4.01707,-4.042551 -6.12333,-3.279436 -3.89068,-7.708232 0.34803,-13.702005 2.62737,-3.715191 -2.80899,1.530261 1.43711,5.618559 z"
       style="opacity:0.69136155;fill:#cf9d6b;fill-opacity:0.69803922" /><path
       inkscape:transform-center-x="0.57499846"
       inkscape:transform-center-y="-0.62545413"
       sodipodi:nodetypes="sssss"
       inkscape:connector-curvature="0"
       id="path3957-5-7-4-9-8-6-3-4-5-1"
       d="m 196.23584,66.152905 c 3.25164,3.453074 5.56577,1.29551 8.78036,0.438017 3.94977,-1.053614 -1.13217,0.906932 -2.45395,-2.450329 -1.57655,-4.004546 -5.22407,-2.018717 -10.33651,1.525733 -3.16892,2.196975 1.55495,-2.120652 4.01011,0.486619 z"
       style="opacity:0.69136155;fill:#e1b486;fill-opacity:0.69803922" /><path
       inkscape:transform-center-x="-10.024721"
       inkscape:transform-center-y="-9.9957741"
       sodipodi:nodetypes="sssss"
       inkscape:connector-curvature="0"
       id="path3957-5-7-4-9-8-6-3-4-5-1-1"
       d="m 186.87733,75.379227 c 5.27462,3.756309 8.56335,0.621096 13.34742,-1.041164 5.8782,-2.04244 -1.62397,1.346803 -3.96497,-2.638933 -2.79222,-4.754187 -8.11853,-1.593282 -15.50727,3.794989 -4.57988,3.339847 2.14221,-2.951076 6.12483,-0.114839 z"
       style="opacity:0.69136155;fill:#cc9ede;fill-opacity:0.69803922" /><path
       inkscape:transform-center-x="-2.1582021"
       inkscape:transform-center-y="-7.0675957"
       sodipodi:nodetypes="sssss"
       inkscape:connector-curvature="0"
       id="path3957-5-7-4-9-8-6-3-4-5-1-1-6"
       d="m 204.06024,55.991706 c 3.80331,0.822107 4.36429,-1.712154 6.13836,-3.786358 2.1798,-2.548591 -0.34356,1.139405 -2.79792,-0.515236 -2.9275,-1.973681 -4.46958,1.064464 -6.27712,5.837202 -1.12041,2.958331 0.065,-2.156335 2.93671,-1.535587 z"
       style="opacity:0.69136155;fill:#ddc7af;fill-opacity:0.69803922" /><path
       inkscape:transform-center-x="-0.37376503"
       inkscape:transform-center-y="-0.41346859"
       sodipodi:nodetypes="sssss"
       inkscape:connector-curvature="0"
       id="path3957-5-7-4-9-8-6-3-1-8"
       d="m 173.14898,56.065735 c 3.06143,7.038664 -2.21884,9.025263 -6.0949,13.186341 -4.76302,5.112637 2.34293,-1.069248 -2.05887,-5.210006 -5.25051,-4.938924 0.78495,-8.996982 10.47434,-14.186372 6.00586,-3.216607 -4.6321,0.895432 -2.32048,6.210095 z"
       style="opacity:0.69136155;fill:#d7af86;fill-opacity:0.69803922" /><path
       inkscape:transform-center-x="-5.1381089"
       inkscape:transform-center-y="-8.2343478"
       sodipodi:nodetypes="sssss"
       inkscape:connector-curvature="0"
       id="path3957-5-7-4-9-8-6-3-4-5-1-1-1"
       d="m 185.40937,53.188895 c -5.20612,-2.424367 -3.48554,-5.231121 -3.61089,-8.62868 -0.15401,-4.174605 -0.66704,1.338354 3.74597,1.86608 5.26382,0.629408 4.2153,4.721878 1.85092,10.636287 -1.46552,3.666007 1.94487,-2.043169 -1.98605,-3.873687 z"
       style="opacity:0.69136155;fill:#d4a06b;fill-opacity:0.69803922" /><path
       inkscape:transform-center-x="6.3566771"
       inkscape:transform-center-y="-3.0470534"
       sodipodi:nodetypes="sssss"
       inkscape:connector-curvature="0"
       id="path3957-5-7-4-9-8-6-3-4-5-1-1-1-1"
       d="m 213.97084,70.524831 c 2.07131,-5.443329 0.0818,-6.231286 -1.07611,-8.756544 -1.42271,-3.102803 0.86181,0.484886 -1.44637,4.003894 -2.75322,4.197417 -0.67923,6.385513 2.79889,8.943489 2.15587,1.585564 -1.84036,-0.08085 -0.2764,-4.190865 z"
       style="opacity:0.69136155;fill:#cba074;fill-opacity:0.69803922" /><path
       inkscape:transform-center-x="8.9791431"
       inkscape:transform-center-y="-2.8064384"
       sodipodi:nodetypes="sssss"
       inkscape:connector-curvature="0"
       id="path3957-5-7-4-9-8-6-3-4-5-1-1-1-1-1"
       d="m 207.48825,79.492993 c 3.73211,-4.845149 0.9054,-5.580153 -0.47932,-7.859034 -1.70143,-2.800076 1.20636,0.446977 -2.63166,3.565036 -4.57796,3.719155 -1.80346,5.709504 2.98947,8.051779 2.97086,1.451865 -2.69639,-0.09945 0.12155,-3.757803 z"
       style="opacity:0.69136155;fill:#e8b989;fill-opacity:0.69803922" /><path
       sodipodi:nodetypes="sssss"
       inkscape:connector-curvature="0"
       id="path3957-5-7-4-9-8-6-3-4-5-1-1-1-2-7-0-2-7"
       d="m 159.82867,55.108306 c 5.06527,-3.728953 2.33867,-5.25965 1.48651,-7.906637 -1.04765,-3.252248 1.12974,0.785229 -3.60909,2.776345 -5.65287,2.375102 -3.29638,5.132085 1.05064,8.81113 2.69446,2.28045 -2.75252,-0.865249 1.07204,-3.68081 z"
       style="opacity:0.69136155;fill:#a29d97;fill-opacity:0.69803922" /><path
       inkscape:transform-center-x="0.02600588"
       inkscape:transform-center-y="2.0390432"
       sodipodi:nodetypes="sssss"
       inkscape:connector-curvature="0"
       id="path3957-5-7-4-9-8-6-3-4-5-1-1-14"
       d="m 169.48365,81.218384 c 7.25167,-3.292325 5.72366,-8.281114 6.70215,-13.984502 1.20225,-7.007799 0.53211,2.355499 -5.24711,2.573875 -6.89341,0.260377 -6.5357,7.31254 -4.93126,17.633265 0.99445,6.397237 -1.99913,-3.736726 3.47629,-6.222635 z"
       style="opacity:0.69136155;fill:#e59592;fill-opacity:0.69803922" /><path
       inkscape:transform-center-x="-1.0199493"
       inkscape:transform-center-y="-0.19712474"
       sodipodi:nodetypes="sssss"
       inkscape:connector-curvature="0"
       id="path3957-5-7-4-9-8-6-3-4-5-1-1-14-7-1"
       d="m 158.60669,45.020225 c -0.1003,3.645647 -2.62563,4.060287 -4.99592,5.646897 -2.91239,1.949494 1.15646,-0.273061 0.15846,-2.67778 -1.19046,-2.868302 2.03761,-4.190188 6.96682,-5.683478 3.05532,-0.925636 -2.0536,-0.03831 -2.12933,2.714382 z"
       style="opacity:0.69136155;fill:#deb78f;fill-opacity:0.69803922" /><path
       inkscape:transform-center-x="-1.2142197"
       inkscape:transform-center-y="-0.60006553"
       sodipodi:nodetypes="sssss"
       inkscape:connector-curvature="0"
       id="path3957-92"
       d="m 226.0546,146.45707 c 3.7083,1.71507 6.33789,2.71524 10.16765,1.32673 3.13701,-1.13737 -1.7238,-0.43219 -4.91237,-3.31641 -4.16043,-3.76336 -6.46293,-1.54454 -10.11682,0.94611 -2.3334,1.59054 0.59264,-0.93074 4.86154,1.04357 z"
       style="fill:#ce9760;fill-opacity:0.69803922" /><path
       inkscape:transform-center-x="0.050019486"
       inkscape:transform-center-y="-2.1581833"
       sodipodi:nodetypes="cssssc"
       inkscape:connector-curvature="0"
       id="path3957-2-8-9-1-2"
       d="m 214.73743,152.4534 c -1.73718,-8.43904 -5.98988,-7.26029 -10.49882,-8.95373 -5.54024,-2.08084 1.98353,-0.34539 1.41272,6.12645 -0.68077,7.71946 6.00275,8.16376 14.59911,7.4622 5.32845,-0.4349 -4.20122,1.73719 -5.51301,-4.63489 z"
       style="opacity:0.9201878;fill:#d5a474;fill-opacity:0.69803922" /><path
       sodipodi:nodetypes="cssssc"
       inkscape:connector-curvature="0"
       id="path3957-2-8-9-7-8"
       d="m 228.82213,154.53197 c -3.34818,-5.75752 -7.09776,-2.22428 -11.3914,-2.01767 -5.27563,0.25383 1.58546,-0.63465 2.90203,2.72586 1.57045,4.00829 7.91216,5.27391 13.65728,0.47949 3.55635,-2.96782 -2.28323,1.68421 -5.1679,-1.18766 z"
       style="fill:#bd946c;fill-opacity:0.69803922" /><path
       sodipodi:nodetypes="sssss"
       inkscape:connector-curvature="0"
       id="path3957-9-5"
       d="m 238.98852,119.85842 c -7.21816,0.12001 -6.62385,2.73792 -8.45542,5.20031 -2.25047,3.02562 -0.10623,-1.19924 5.25411,-0.17592 6.39369,1.22053 7.21414,-2.12932 7.41895,-7.24216 0.12692,-3.16921 1.23259,2.1272 -4.21761,2.2178 z"
       style="opacity:0.76995305;fill:#ca9662;fill-opacity:0.69803922" /><path
       inkscape:transform-center-x="-0.45007746"
       inkscape:transform-center-y="1.1557224"
       sodipodi:nodetypes="sssss"
       inkscape:connector-curvature="0"
       id="path3957-2-8-9-1-1"
       d="m 236.89793,109.4384 c 2.19763,6.12306 4.3379,4.85864 7.04374,5.70867 3.32474,1.04447 -1.02856,0.4376 -1.67792,-4.43134 -0.77459,-5.80757 -3.97132,-5.53831 -8.54702,-4.2337 -2.83623,0.8087 1.52179,-1.66699 3.1812,2.95636 z"
       style="opacity:0.9201878;fill:#d5a474;fill-opacity:0.69803922" /><path
       inkscape:transform-center-x="1.7564046"
       inkscape:transform-center-y="-0.16957108"
       sodipodi:nodetypes="sssss"
       inkscape:connector-curvature="0"
       id="path3957-5-8-7"
       d="m 224.91634,74.728984 c -6.8778,-0.02211 -6.63976,3.187744 -8.68869,6.151111 -2.51759,3.641131 0.0489,-1.466567 5.01745,-0.09209 5.92649,1.639449 7.12494,-2.43093 7.95825,-8.668018 0.51649,-3.866022 0.90622,2.625688 -4.28701,2.609 z"
       style="opacity:0.65258215;fill:#ce9660;fill-opacity:0.69803922" /><path
       sodipodi:nodetypes="sssss"
       inkscape:connector-curvature="0"
       id="path3957-5-7-4-9-9-8-8"
       d="m 169.82408,112.89579 c -8.41834,4.36551 -5.42243,7.2142 -5.42729,11.29106 -0.006,5.00923 -1.17642,-1.40197 6.05009,-3.28589 8.61956,-2.24693 6.65274,-6.81623 2.41395,-13.17799 -2.62743,-3.94328 3.31961,1.87657 -3.0368,5.17281 z"
       style="opacity:0.69136155;fill:#d58a71;fill-opacity:0.69803922" /><path
       sodipodi:nodetypes="sssss"
       inkscape:connector-curvature="0"
       id="path3957-5-7-4-9-9-8-8-1"
       d="m 185.14182,101.53912 c 5.20311,4.78142 6.63776,1.83107 9.68227,0.6781 3.74079,-1.41663 -0.77488,1.23891 -3.85019,-3.394227 -3.66803,-5.526302 -6.6248,-2.823738 -10.39494,2.011917 -2.33692,2.99732 0.6342,-2.906101 4.56288,0.70422 z"
       style="opacity:0.69136155;fill:#b88c5d;fill-opacity:0.69803922" /><path
       sodipodi:nodetypes="csssssssssscccccssssssssccscc"
       inkscape:connector-curvature="0"
       id="path3045-27-4-9-2-7"
       d="m 89.574776,151.31184 c -1.342602,-0.28911 -2.625818,-0.85075 -3.754612,-1.69259 -3.758614,-2.8031 -4.563989,-8.21098 -1.085884,-11.91518 2.796733,-2.97855 7.85793,-3.85685 10.993995,-1.24117 2.397409,1.99957 2.826107,5.76834 0.218573,8.14416 -0.920079,0.83834 -2.099264,1.35401 -3.340764,1.43616 -1.241501,0.0821 -2.584542,-0.28639 -3.434215,-1.26312 -0.523142,-0.60138 -0.780561,-1.41901 -0.710941,-2.23568 0.06963,-0.81667 0.587115,-1.69143 1.576826,-2.12187 0.64632,-0.28112 1.199092,-0.24045 1.75975,-0.0259 0.280327,0.1073 0.553273,0.27991 0.724919,0.66178 0.171645,0.38187 0.06515,0.873 -0.178956,1.2064 l -1.415818,-0.81311 c 0.01814,-0.0247 -0.05504,0.1618 0.0096,0.3055 0.06459,0.14371 0.120894,0.1719 0.08621,0.15862 -0.06936,-0.0265 -0.470656,-0.008 -0.318304,-0.0737 -0.348903,0.15176 -0.459557,0.34731 -0.491897,0.72668 -0.03233,0.37933 0.152563,0.88474 0.378889,1.1449 0.490946,0.56435 1.194197,0.75343 1.981116,0.70137 0.786919,-0.0521 1.638853,-0.37792 2.219725,-0.90717 1.797894,-1.63817 1.440748,-4.36875 -0.29012,-5.81241 -2.36627,-1.9736 -6.266857,-1.29234 -8.436863,1.01873 -2.772025,2.95223 -2.12685,7.39204 0.925331,9.6683 3.733595,2.78446 8.09001,0.85709 12.680352,-1.88189 1.475042,-0.88014 5.103992,-1.31445 5.137612,-1.35407 l -3.6675,2.17108 c -0.0399,0.047 -0.0904,0.0968 -0.13097,0.14299 -2.812939,3.20971 -7.408216,4.71845 -11.436025,3.85111 z"
       style="font-size:medium;font-style:normal;font-variant:normal;font-weight:normal;font-stretch:normal;text-indent:0;text-align:start;text-decoration:none;line-height:normal;letter-spacing:normal;word-spacing:normal;text-transform:none;direction:ltr;block-progression:tb;writing-mode:lr-tb;text-anchor:start;baseline-shift:baseline;color:#000000;fill:#cdad92;fill-opacity:1;stroke:none;stroke-width:1px;marker:none;visibility:visible;display:inline;overflow:visible;enable-background:accumulate;font-family:Sans;-inkscape-font-specification:Sans" /><path
       sodipodi:nodetypes="csssscssccscccccscccsssccc"
       inkscape:connector-curvature="0"
       id="path3045-27-4-6-5"
       d="m 119.30364,108.95663 c 0.19075,-0.41532 0.46618,-0.78554 0.82197,-1.07863 1.1847,-0.97592 3.00752,-0.73467 3.9668,0.75844 0.77135,1.2006 0.69467,2.95063 -0.38417,3.73897 -0.82471,0.60266 -2.08553,0.39084 -2.67376,-0.69095 -0.20756,-0.38172 -0.29121,-0.81859 -0.2289,-1.23538 0.0623,-0.41678 0.27902,-0.82481 0.6588,-1.01329 0.23383,-0.11605 0.51916,-0.12427 0.78071,-0.0249 0.26155,0.0995 0.5099,0.35193 0.57934,0.71838 0.0453,0.23931 -0.008,0.41765 -0.11791,0.58228 -0.0551,0.0823 -0.13108,0.15609 -0.26804,0.17687 -0.13695,0.0208 -0.28961,-0.0603 -0.38089,-0.17198 l 0.36702,-0.39036 c 0.007,0.008 -0.0489,-0.0333 -0.1004,-0.0255 -0.0516,0.008 -0.0648,0.0238 -0.0579,0.0136 0.0137,-0.0203 0.0362,-0.15439 0.0469,-0.098 -0.0244,-0.12918 -0.0803,-0.18396 -0.20184,-0.23016 -0.12149,-0.0462 -0.29972,-0.0326 -0.40088,0.0176 -0.21944,0.1089 -0.33163,0.32292 -0.37113,0.5871 -0.0395,0.26418 0.006,0.57543 0.13672,0.81642 0.40559,0.7459 1.39209,0.98676 1.91787,0.44893 0.7627,-0.78021 0.75386,-1.07586 0.60653,-1.64666 -0.16631,-0.64429 -0.22004,-0.86265 -0.60051,-1.15949 -4.43963,-3.46391 -3.39984,5.16175 -4.05509,4.03579 -0.84564,-1.2276 -0.6134,-2.88316 -0.0411,-4.12913 z"
       style="font-size:medium;font-style:normal;font-variant:normal;font-weight:normal;font-stretch:normal;text-indent:0;text-align:start;text-decoration:none;line-height:normal;letter-spacing:normal;word-spacing:normal;text-transform:none;direction:ltr;block-progression:tb;writing-mode:lr-tb;text-anchor:start;baseline-shift:baseline;color:#000000;fill:#ac9393;fill-opacity:1;stroke:none;stroke-width:1px;marker:none;visibility:visible;display:inline;overflow:visible;enable-background:accumulate;font-family:Sans;-inkscape-font-specification:Sans" /><path
       sodipodi:nodetypes="csssscssccscccccsscssccscccccc"
       inkscape:connector-curvature="0"
       id="path3045-27-4-1"
       d="m 84.921333,120.43353 c -1.097475,0.0601 -2.164777,0.35549 -3.126038,0.90522 -3.200771,1.83046 -4.1962,6.23023 -1.63991,9.78681 2.055507,2.85983 6.065888,4.27386 8.754336,2.51579 2.055218,-1.34397 2.642411,-4.42805 0.700134,-6.75994 -0.685349,-0.82283 -1.599679,-1.41157 -2.592,-1.64731 -0.992385,-0.23548 -2.09526,-0.10944 -2.840922,0.59035 -0.4591,0.43085 -0.718606,1.07778 -0.715256,1.76799 0.0033,0.6902 0.362847,1.48916 1.130414,1.98134 0.501251,0.3214 0.948052,0.36198 1.412389,0.25858 0.232171,-0.0517 0.462612,-0.15881 0.625131,-0.45404 0.16252,-0.29522 0.108573,-0.71901 -0.06611,-1.02982 l -1.190049,0.4871 c 0.01296,0.0231 -0.03381,-0.14228 0.02736,-0.25339 0.06116,-0.11111 0.108212,-0.12701 0.0795,-0.12061 -0.05745,0.0128 -0.378674,-0.0573 -0.260521,0.0186 -0.270592,-0.17351 -0.346914,-0.35144 -0.348469,-0.67205 -0.0015,-0.3206 0.179571,-0.71702 0.37819,-0.90342 0.430847,-0.40433 1.008123,-0.46721 1.6371,-0.31779 0.62908,0.14901 1.29257,0.53583 1.725246,1.0553 1.339214,1.60785 0.876369,3.8361 -0.607445,4.80641 -1.987628,1.29978 -4.996513,0.27941 -6.617847,-1.849 l -0.09602,-0.13684 c -2.037345,-2.83458 -1.232983,-6.44892 1.366198,-7.93534 3.179464,-1.81826 5.776284,-1.43654 9.424334,1.65249 0.991611,0.83732 1.196748,0.97966 1.762679,1.31389 l 0.667896,0.5228 c -0.02896,-0.0445 -0.619211,-0.78786 -0.648868,-0.83192 -2.053641,-3.05474 -5.64903,-4.93156 -8.941448,-4.75114 z"
       style="font-size:medium;font-style:normal;font-variant:normal;font-weight:normal;font-stretch:normal;text-indent:0;text-align:start;text-decoration:none;line-height:normal;letter-spacing:normal;word-spacing:normal;text-transform:none;direction:ltr;block-progression:tb;writing-mode:lr-tb;text-anchor:start;baseline-shift:baseline;color:#000000;fill:#cbbcc4;fill-opacity:1;stroke:none;stroke-width:1px;marker:none;visibility:visible;display:inline;overflow:visible;enable-background:accumulate;font-family:Sans;-inkscape-font-specification:Sans" /><path
       sodipodi:nodetypes="sccssssssssscccssccssssccss"
       inkscape:connector-curvature="0"
       id="path3045-27-4-7"
       d="m 85.294415,101.22297 c -1.025633,0.42077 -1.972335,1.04977 -2.778358,1.85861 l -0.07548,0.0618 c -2.733479,2.81178 -2.784158,7.2706 0.446282,9.72093 2.597586,1.97031 6.796227,1.91653 9.046143,-0.65161 1.719975,-1.96326 1.647879,-5.05076 -0.729315,-6.56593 -0.838812,-0.53464 -1.851652,-0.77162 -2.866734,-0.65151 -1.015083,0.12013 -2.062278,0.617 -2.642027,1.52784 -0.356949,0.56079 -0.474528,1.25525 -0.327223,1.89995 0.147305,0.6447 0.663967,1.26888 1.5138,1.46589 0.554976,0.12865 0.998338,0.0132 1.428728,-0.24297 0.215194,-0.12809 0.417142,-0.30744 0.513717,-0.63949 0.09658,-0.33206 -0.04438,-0.71009 -0.279268,-0.94095 l -1.056685,0.8644 c -0.390308,0.0973 -0.661115,-0.12007 -0.703206,-0.78906 -0.06842,-0.29946 0.02514,-0.7326 0.179572,-0.97521 0.334982,-0.52628 0.883756,-0.78333 1.527161,-0.85947 0.630434,-0.0746 1.329531,0.0829 1.855963,0.40641 l 0.04356,-0.0113 c 1.639092,1.04472 1.653612,3.28869 0.411833,4.70611 -1.697636,1.93776 -4.933956,1.97569 -6.94944,0.44692 -2.574638,-1.9529 -2.599033,-5.82321 -0.379315,-8.10653 2.715285,-2.79307 6.976524,-2.79946 9.847634,-0.20475 0.755729,0.68298 0.713091,0.8853 1.456027,1.9835 l 1.47859,1.53721 c -0.520556,-1.32341 -0.92706,-3.34079 -1.929889,-4.38542 -2.357403,-2.45567 -5.865031,-2.754615 -9.03207,-1.45536 z"
       style="font-size:medium;font-style:normal;font-variant:normal;font-weight:normal;font-stretch:normal;text-indent:0;text-align:start;text-decoration:none;line-height:normal;letter-spacing:normal;word-spacing:normal;text-transform:none;direction:ltr;block-progression:tb;writing-mode:lr-tb;text-anchor:start;baseline-shift:baseline;color:#000000;fill:#c1c1d9;fill-opacity:1;stroke:none;stroke-width:1px;marker:none;visibility:visible;display:inline;overflow:visible;enable-background:accumulate;font-family:Sans;-inkscape-font-specification:Sans" /><path
       sodipodi:nodetypes="csssssssscsccsssscccc"
       inkscape:connector-curvature="0"
       id="path3045-27-4-7-2-0"
       d="m 131.79513,117.60057 c -1.12599,-0.33723 -2.19118,-0.9225 -3.11437,-1.75909 -3.07399,-2.7856 -3.54327,-7.82522 -0.45054,-11.06805 2.48686,-2.60758 6.8095,-3.15663 9.36344,-0.57655 1.95239,1.97236 2.16711,5.47761 -0.13569,7.53798 -0.81256,0.72703 -1.83193,1.14239 -2.88701,1.15389 -1.05508,0.0115 -2.17843,-0.3988 -2.85983,-1.34555 -0.41952,-0.58293 -0.60541,-1.35191 -0.51424,-2.10304 0.0912,-0.75115 0.56406,-1.53271 1.41954,-1.87917 0.55867,-0.22624 1.02539,-0.15999 1.49195,0.0674 0.23329,0.11367 0.45772,0.2874 0.58809,0.64923 0.13038,0.36182 0.0208,0.81018 -0.19914,1.10562 -1.39207,-0.9927 -2.01547,-0.0343 -1.54086,1.248 0.39371,0.54705 0.98208,0.75827 1.65085,0.75099 0.66875,-0.008 1.40338,-0.26421 1.91637,-0.7232 1.5878,-1.42064 1.39279,-3.9627 -0.0168,-5.38672 -1.92704,-1.94675 -5.25861,-1.51957 -7.18818,0.50366 -2.46488,2.58453 -2.0932,6.72118 0.40305,8.98322 7.03397,3.83242 11.25293,-2.25062 10.74822,-0.54893 -0.35781,1.06533 -4.70924,4.57312 -8.67482,3.3901 z"
       style="font-size:medium;font-style:normal;font-variant:normal;font-weight:normal;font-stretch:normal;text-indent:0;text-align:start;text-decoration:none;line-height:normal;letter-spacing:normal;word-spacing:normal;text-transform:none;direction:ltr;block-progression:tb;writing-mode:lr-tb;text-anchor:start;baseline-shift:baseline;color:#000000;fill:#c7acac;fill-opacity:1;stroke:none;stroke-width:1px;marker:none;visibility:visible;display:inline;overflow:visible;enable-background:accumulate;font-family:Sans;-inkscape-font-specification:Sans" /><path
       sodipodi:nodetypes="csssssssscsccsccsscssccsccccc"
       inkscape:connector-curvature="0"
       id="path3045-27-4-1-9"
       d="m 89.292606,119.73801 c -0.129584,-0.8467 -0.0689,-1.7302 0.209404,-2.59789 0.926685,-2.8892 4.234332,-4.75934 7.450113,-3.72482 2.585799,0.83185 4.347197,3.51144 3.394957,5.99415 -0.72797,1.89793 -3.064336,3.12506 -5.215716,2.24508 -0.759134,-0.31051 -1.370676,-0.85387 -1.716534,-1.54585 -0.34586,-0.69199 -0.42417,-1.55962 0.0072,-2.30203 0.265587,-0.4571 0.73369,-0.8178 1.278291,-0.99033 0.5446,-0.17253 1.23237,-0.10283 1.744121,0.35383 0.3342,0.29823 0.438232,0.62643 0.431615,1.00445 -0.0034,0.189 -0.05056,0.39075 -0.257092,0.58876 -0.206503,0.19801 -0.549254,0.26464 -0.822426,0.21113 l 0.192044,-1.02513 c 0.02027,0.004 -0.117619,0.0105 -0.195334,0.085 -0.07772,0.0745 -0.08266,0.1142 -0.08225,0.0908 7.91e-4,-0.0467 -0.106163,-0.27237 -0.02738,-0.20208 -0.18041,-0.16099 -0.332978,-0.17367 -0.585948,-0.0935 -0.252969,0.0802 -0.536241,0.31792 -0.65114,0.51566 -0.249243,0.42898 -0.205705,0.88227 0.01351,1.32088 0.219223,0.43862 0.63083,0.84334 1.110089,1.03938 1.48339,0.60676 3.165191,-0.30909 3.690752,-1.67935 0.70402,-1.83552 -0.585542,-3.85623 -2.524783,-4.54469 l -0.123338,-0.0381 c -2.562958,-0.82451 -5.282292,0.70166 -6.034805,3.04783 -0.920516,2.86997 1.14623,5.92368 4.206954,6.79639 0.03351,0.009 0.382092,0.13481 0.415748,0.14383 -0.659395,-0.0722 -1.460939,-0.36303 -0.162096,0.0388 -2.739119,-0.78106 -5.357138,-2.19235 -5.745888,-4.73245 z"
       style="font-size:medium;font-style:normal;font-variant:normal;font-weight:normal;font-stretch:normal;text-indent:0;text-align:start;text-decoration:none;line-height:normal;letter-spacing:normal;word-spacing:normal;text-transform:none;direction:ltr;block-progression:tb;writing-mode:lr-tb;text-anchor:start;baseline-shift:baseline;color:#000000;fill:#d9d9d9;fill-opacity:1;stroke:none;stroke-width:1px;marker:none;visibility:visible;display:inline;overflow:visible;enable-background:accumulate;font-family:Sans;-inkscape-font-specification:Sans" /><path
       sodipodi:nodetypes="csssssssscsccccssssscccc"
       inkscape:connector-curvature="0"
       id="path3045-27-4-7-2-0-1"
       d="m 153.4121,123.77173 c 0.5256,-1.22194 0.79734,-2.55989 0.75527,-3.94414 -0.14009,-4.60922 -4.05576,-8.46237 -9.01686,-7.95133 -3.9892,0.41093 -7.56144,3.84404 -7.22079,7.85486 0.26044,3.06612 3.06426,5.64774 6.45928,5.02546 1.19796,-0.21956 2.28164,-0.83404 3.05016,-1.75561 0.76853,-0.9216 1.23018,-2.19121 0.92118,-3.43767 -0.19021,-0.76744 -0.70552,-1.45605 -1.405,-1.88843 -0.69949,-0.43238 -1.69923,-0.54925 -2.60687,-0.0322 -0.59273,0.33771 -0.87248,0.79408 -1.01607,1.36032 -0.072,0.28308 -0.0867,0.59939 0.12495,0.9612 0.2116,0.36181 0.6688,0.57131 1.07633,0.5792 l 0.14347,-1.5915 c 0.41382,0.43401 0.76183,0.0264 1.30679,0.10729 0.32492,0.20083 0.62886,0.64665 0.71115,0.97866 0.17853,0.72021 -0.0663,1.38269 -0.55346,1.96684 -0.48712,0.58415 -1.23229,1.05593 -1.98859,1.19455 -2.3409,0.42907 -4.34604,-1.4778 -4.53405,-3.69147 -0.25705,-3.02629 2.49954,-5.66954 5.59481,-5.98838 3.95396,-0.40729 7.17775,2.74358 7.29151,6.48649 0.13915,4.57856 -4.43882,6.89292 -9.19848,8.78434 4.76418,-0.54439 0.36488,1.54208 0.65142,2.3367 2.59956,-1.43432 6.46478,-2.97425 9.45367,-7.35532 z"
       style="font-size:medium;font-style:normal;font-variant:normal;font-weight:normal;font-stretch:normal;text-indent:0;text-align:start;text-decoration:none;line-height:normal;letter-spacing:normal;word-spacing:normal;text-transform:none;direction:ltr;block-progression:tb;writing-mode:lr-tb;text-anchor:start;baseline-shift:baseline;color:#000000;fill:#aa8679;fill-opacity:1;stroke:none;stroke-width:1px;marker:none;visibility:visible;display:inline;overflow:visible;enable-background:accumulate;font-family:Sans;-inkscape-font-specification:Sans" /><path
       sodipodi:nodetypes="csssssssscsccsssscccc"
       inkscape:connector-curvature="0"
       id="path3045-27-4-7-2-0-9"
       d="m 129.56328,100.17054 c -0.26338,-0.8649 -0.71056,-1.680272 -1.34314,-2.383426 -2.10633,-2.341303 -5.86051,-2.649368 -8.23858,-0.229109 -1.91219,1.94613 -2.27268,5.286255 -0.32501,7.228615 1.48891,1.48487 4.09885,1.61299 5.60603,-0.18531 0.53182,-0.63454 0.8295,-1.42527 0.82635,-2.23923 -0.003,-0.81395 -0.32083,-1.67605 -1.03269,-2.19151 -0.43829,-0.317365 -1.0124,-0.452519 -1.57017,-0.374165 -0.55776,0.07838 -1.13393,0.451485 -1.38217,1.115055 -0.1621,0.43335 -0.10764,0.79265 0.0668,1.15009 0.0872,0.17872 0.21868,0.35011 0.48948,0.44668 0.27062,0.0967 0.60294,0.008 0.82027,-0.16544 -0.75394,-1.06313 -0.0478,-1.55425 0.91131,-1.20188 0.41132,0.29783 0.57496,0.74942 0.57697,1.26534 0.002,0.51592 -0.18097,1.08532 -0.51674,1.48592 -1.03919,1.23994 -2.93241,1.11672 -4.00738,0.0446 -1.46957,-1.46558 -1.18874,-4.03995 0.29494,-5.549959 1.89529,-1.928918 4.97669,-1.686492 6.68712,0.214781 2.92898,5.384618 -1.54941,8.703968 -0.28912,8.296468 0.78854,-0.2874 3.34972,-3.68138 2.42569,-6.72756 z"
       style="font-size:medium;font-style:normal;font-variant:normal;font-weight:normal;font-stretch:normal;text-indent:0;text-align:start;text-decoration:none;line-height:normal;letter-spacing:normal;word-spacing:normal;text-transform:none;direction:ltr;block-progression:tb;writing-mode:lr-tb;text-anchor:start;baseline-shift:baseline;color:#000000;fill:#d1c2c2;fill-opacity:1;stroke:none;stroke-width:1px;marker:none;visibility:visible;display:inline;overflow:visible;enable-background:accumulate;font-family:Sans;-inkscape-font-specification:Sans" /><path
       sodipodi:nodetypes="csssssssscsccsssscccc"
       inkscape:connector-curvature="0"
       id="path3045-27-4-7-2-0-9-0"
       d="m 136.31289,149.79149 c -0.85698,0.28813 -1.65917,0.75854 -2.34386,1.41106 -2.27983,2.1727 -2.47994,5.93419 0.008,8.24176 2.00025,1.8555 5.34934,2.1199 7.23496,0.11725 1.44149,-1.53095 1.49459,-4.1435 -0.34625,-5.5984 -0.64956,-0.51338 -1.44852,-0.78822 -2.26204,-0.7617 -0.81352,0.0268 -1.66616,0.36885 -2.16095,1.09522 -0.30464,0.44722 -0.42326,1.02498 -0.32891,1.58027 0.0944,0.55527 0.48387,1.1205 1.1543,1.34957 0.43782,0.14958 0.79541,0.0848 1.14769,-0.0998 0.17615,-0.0923 0.3437,-0.22865 0.43244,-0.50211 0.0889,-0.27328 -0.01,-0.60291 -0.18893,-0.81517 -1.04104,0.78416 -1.55224,0.0925 -1.22756,-0.87641 0.28589,-0.41971 0.73259,-0.59625 1.24825,-0.61308 0.51565,-0.0165 1.09006,0.14972 1.50014,0.47384 1.26928,1.00314 1.20049,2.89913 0.15971,4.00445 -1.42276,1.51106 -4.00414,1.30429 -5.55614,-0.13541 -1.98256,-1.83909 -1.82875,-4.92618 0.0226,-6.69053 5.29826,-3.08243 8.74488,1.29876 8.30134,0.0507 -0.30993,-0.77997 -3.77607,-3.24261 -6.79446,-2.23146 z"
       style="font-size:medium;font-style:normal;font-variant:normal;font-weight:normal;font-stretch:normal;text-indent:0;text-align:start;text-decoration:none;line-height:normal;letter-spacing:normal;word-spacing:normal;text-transform:none;direction:ltr;block-progression:tb;writing-mode:lr-tb;text-anchor:start;baseline-shift:baseline;color:#000000;fill:#b89481;fill-opacity:1;stroke:none;stroke-width:1px;marker:none;visibility:visible;display:inline;overflow:visible;enable-background:accumulate;font-family:Sans;-inkscape-font-specification:Sans" /><path
       sodipodi:nodetypes="cssssssscsccsssssccc"
       inkscape:connector-curvature="0"
       id="path3045-27-4-7-2-0-19"
       d="m 111.09697,106.52886 c 0.0784,-3.08421 -2.08797,-5.88374 -5.02077,-5.83164 -2.35826,0.0419 -4.57688,2.12499 -4.51657,4.82151 0.0461,2.0614 1.60351,3.9476 3.62002,3.73006 0.71154,-0.0768 1.3697,-0.42372 1.8534,-0.994 0.48368,-0.57027 0.79922,-1.39067 0.66113,-2.24052 -0.0851,-0.52326 -0.36379,-1.01282 -0.75971,-1.34212 -0.39592,-0.32928 -0.97923,-0.46552 -1.53059,-0.17326 -0.36002,0.19086 -0.54032,0.47913 -0.64444,0.84865 -0.0517,0.18485 -0.0718,0.39496 0.0395,0.64877 0.11173,0.25379 0.37309,0.42022 0.61223,0.44923 0.16238,-1.26105 0.89742,-1.11773 1.28763,-0.2115 0.0797,0.49106 -0.0872,0.9189 -0.39382,1.28037 -0.30657,0.36147 -0.76086,0.63293 -1.21007,0.68138 -1.3904,0.15001 -2.50206,-1.23936 -2.53535,-2.72765 -0.0456,-2.03463 1.66633,-3.6381 3.49613,-3.6706 1.32691,-0.0236 3.03075,0.82483 3.67235,2.46297 0.48858,1.24753 0.0315,3.15447 0.004,4.23721 1.08662,-1.30845 0.72478,0.42876 1.12798,0.56283 0.0571,-1.14941 0.21,-1.5319 0.23651,-2.53167 z"
       style="font-size:medium;font-style:normal;font-variant:normal;font-weight:normal;font-stretch:normal;text-indent:0;text-align:start;text-decoration:none;line-height:normal;letter-spacing:normal;word-spacing:normal;text-transform:none;direction:ltr;block-progression:tb;writing-mode:lr-tb;text-anchor:start;baseline-shift:baseline;color:#000000;fill:#ac9393;fill-opacity:1;stroke:none;stroke-width:1px;marker:none;visibility:visible;display:inline;overflow:visible;enable-background:accumulate;font-family:Sans;-inkscape-font-specification:Sans" /><path
       sodipodi:nodetypes="csssssssscsccsssscccc"
       inkscape:connector-curvature="0"
       id="path3045-27-4-7-2-0-9-08"
       d="m 113.32201,83.568748 c -0.97917,0.08747 -1.94482,0.363185 -2.83036,0.840919 -2.94867,1.590744 -4.08033,5.178873 -2.00659,7.961225 1.6675,2.237272 5.15426,3.238227 7.64332,1.723951 1.90278,-1.157605 2.59774,-3.668862 1.00136,-5.483768 -0.56335,-0.640391 -1.34336,-1.08371 -2.2125,-1.239213 -0.8692,-0.155258 -1.85693,-0.01472 -2.55919,0.576614 -0.43238,0.364093 -0.69939,0.895662 -0.73508,1.452933 -0.0357,0.557269 0.23919,1.189854 0.89412,1.560342 0.4277,0.241925 0.82272,0.259001 1.24141,0.159158 0.20934,-0.04988 0.42033,-0.144302 0.58131,-0.388641 0.16106,-0.244136 0.13684,-0.584471 -8.5e-4,-0.829322 -1.2956,0.52555 -1.6686,-0.256268 -1.08748,-1.119683 0.40576,-0.341682 0.9226,-0.412728 1.47351,-0.314183 0.55084,0.09885 1.11931,0.387279 1.47494,0.791589 1.10076,1.251347 0.56431,3.067114 -0.80949,3.902887 -1.87809,1.142565 -4.56484,0.368182 -5.85868,-1.36773 -1.65273,-2.217498 -0.73497,-5.164633 1.65948,-6.456389 6.3718,-1.797322 8.95565,3.201157 8.7904,1.897091 -0.13801,-0.822251 -3.21152,-3.972224 -6.6594,-3.667685 z"
       style="font-size:medium;font-style:normal;font-variant:normal;font-weight:normal;font-stretch:normal;text-indent:0;text-align:start;text-decoration:none;line-height:normal;letter-spacing:normal;word-spacing:normal;text-transform:none;direction:ltr;block-progression:tb;writing-mode:lr-tb;text-anchor:start;baseline-shift:baseline;color:#000000;fill:#c3baba;fill-opacity:1;stroke:none;stroke-width:1px;marker:none;visibility:visible;display:inline;overflow:visible;enable-background:accumulate;font-family:Sans;-inkscape-font-specification:Sans" /><path
       sodipodi:nodetypes="csssssssscsccsssscccc"
       inkscape:connector-curvature="0"
       id="path3045-27-4-7-2-0-9-08-3"
       d="m 116.45573,83.668665 c -0.11622,-1.045596 -0.016,-2.130482 0.32953,-3.189082 1.15072,-3.524921 4.95632,-5.721549 8.55431,-4.348032 2.8931,1.104438 4.78831,4.455886 3.62322,7.479968 -0.8906,2.311815 -3.57541,3.747953 -5.97576,2.597957 -0.84698,-0.405828 -1.51881,-1.093393 -1.88503,-1.95545 -0.36596,-0.862185 -0.42371,-1.931774 0.0904,-2.831478 0.31658,-0.553937 0.85855,-0.982956 1.4803,-1.178087 0.62173,-0.195183 1.39667,-0.08782 1.95881,0.489986 0.3671,0.377346 0.47297,0.78433 0.45195,1.249124 -0.0105,0.232365 -0.071,0.479071 -0.31156,0.716197 -0.24051,0.237094 -0.63033,0.308287 -0.93719,0.233888 0.30968,-1.49967 -0.65529,-1.666978 -1.50335,-0.81645 -0.29708,0.519838 -0.264,1.078814 -0.0319,1.625228 0.23244,0.546265 0.68291,1.057185 1.21764,1.313383 1.65502,0.792978 3.58876,-0.280864 4.23182,-1.949941 0.87906,-2.281802 -0.58481,-4.863404 -2.82955,-5.720351 -2.86753,-1.094656 -5.99587,0.697304 -6.93031,3.559703 -0.63367,7.15222 8.23224,9.188611 6.72274,9.385863 -0.95919,0.08915 -7.84409,-2.981566 -8.25591,-6.662446 z"
       style="font-size:medium;font-style:normal;font-variant:normal;font-weight:normal;font-stretch:normal;text-indent:0;text-align:start;text-decoration:none;line-height:normal;letter-spacing:normal;word-spacing:normal;text-transform:none;direction:ltr;block-progression:tb;writing-mode:lr-tb;text-anchor:start;baseline-shift:baseline;color:#000000;fill:#a7a7a7;fill-opacity:1;stroke:none;stroke-width:1px;marker:none;visibility:visible;display:inline;overflow:visible;enable-background:accumulate;font-family:Sans;-inkscape-font-specification:Sans" /><path
       sodipodi:nodetypes="csssssssscsccsssscccc"
       inkscape:connector-curvature="0"
       id="path3045-27-4-7-2-0-9-08-4"
       d="m 115.75349,73.451065 c -0.80072,-0.659012 -1.77066,-1.166661 -2.87412,-1.46333 -3.67429,-0.987862 -7.91769,0.868878 -9.04555,4.492922 -0.90699,2.914052 0.69561,6.246254 3.96037,6.951374 2.49576,0.53903 5.3945,-0.83232 5.95163,-3.376603 0.19652,-0.8978 0.0468,-1.807967 -0.44213,-2.567993 -0.48918,-0.759889 -1.34667,-1.385381 -2.42392,-1.461105 -0.66328,-0.04661 -1.36472,0.15493 -1.92112,0.54696 -0.55645,0.391994 -0.95692,1.070469 -0.82957,1.833371 0.0833,0.498209 0.35643,0.80339 0.75822,1.038293 0.20086,0.11748 0.44533,0.20273 0.79577,0.13841 0.35031,-0.06411 0.65639,-0.337601 0.78837,-0.623463 -1.44945,-0.56425 -0.97884,-1.427377 0.26853,-1.64561 0.62245,0.04374 1.06877,0.372907 1.37868,0.854631 0.3096,0.481911 0.45171,1.119218 0.32757,1.686018 -0.38407,1.75431 -2.50489,2.720718 -4.30681,2.331531 -2.46336,-0.532047 -3.69528,-3.102016 -2.99161,-5.363064 0.89896,-2.888299 4.37566,-4.422039 7.35934,-3.619857 6.37921,3.366225 3.51642,9.031863 4.63617,7.930347 0.68126,-0.719555 1.42635,-5.359573 -1.3899,-7.682702 z"
       style="font-size:medium;font-style:normal;font-variant:normal;font-weight:normal;font-stretch:normal;text-indent:0;text-align:start;text-decoration:none;line-height:normal;letter-spacing:normal;word-spacing:normal;text-transform:none;direction:ltr;block-progression:tb;writing-mode:lr-tb;text-anchor:start;baseline-shift:baseline;color:#000000;fill:#dfcdcd;fill-opacity:1;stroke:none;stroke-width:1px;marker:none;visibility:visible;display:inline;overflow:visible;enable-background:accumulate;font-family:Sans;-inkscape-font-specification:Sans" /><path
       sodipodi:nodetypes="csssssssscsccsssscccc"
       inkscape:connector-curvature="0"
       id="path3045-27-4-7-2-0-9-08-4-6"
       d="m 112.0651,58.709854 c -0.0455,-0.572232 -0.21702,-1.136141 -0.52482,-1.652758 -1.02489,-1.720213 -3.41032,-2.373611 -5.29945,-1.154878 -1.51903,0.979942 -2.23521,3.020657 -1.25534,4.472356 0.74908,1.10977 2.41989,1.510294 3.6554,0.572869 0.43594,-0.330811 0.74297,-0.787794 0.85857,-1.296299 0.11547,-0.508512 0.0346,-1.085633 -0.35164,-1.494829 -0.23783,-0.251946 -0.5899,-0.406802 -0.96225,-0.426416 -0.37236,-0.01963 -0.79923,0.142518 -1.05583,0.526273 -0.16751,0.250639 -0.18427,0.481572 -0.12304,0.726111 0.0305,0.12231 0.0909,0.24542 0.25223,0.338958 0.16118,0.09367 0.3892,0.0787 0.55486,-0.0025 -0.33434,-0.756225 0.1937,-0.976071 0.76361,-0.638296 0.22319,0.236437 0.26384,0.538423 0.1905,0.860723 -0.0735,0.322266 -0.27399,0.655277 -0.54927,0.864084 -0.85187,0.646396 -2.0595,0.336902 -2.60031,-0.464362 -0.73934,-1.095337 -0.1854,-2.667844 0.9932,-3.4282 1.50563,-0.971286 3.46507,-0.441491 4.29733,0.955392 1.11744,3.720968 -2.26114,5.242954 -1.38648,5.143345 0.55195,-0.08254 2.70035,-1.886583 2.54261,-3.90158 z"
       style="font-size:medium;font-style:normal;font-variant:normal;font-weight:normal;font-stretch:normal;text-indent:0;text-align:start;text-decoration:none;line-height:normal;letter-spacing:normal;word-spacing:normal;text-transform:none;direction:ltr;block-progression:tb;writing-mode:lr-tb;text-anchor:start;baseline-shift:baseline;color:#000000;fill:#cecece;fill-opacity:1;stroke:none;stroke-width:1px;marker:none;visibility:visible;display:inline;overflow:visible;enable-background:accumulate;font-family:Sans;-inkscape-font-specification:Sans" /><path
       sodipodi:nodetypes="csssssssscsccsssscccc"
       inkscape:connector-curvature="0"
       id="path3045-27-4-7-2-0-9-08-4-6-8"
       d="m 107.95118,66.654411 c -0.0444,-0.987652 0.12778,-2.005333 0.54239,-2.99043 1.38051,-3.280168 5.30784,-5.225404 8.78817,-3.817687 2.79854,1.131856 4.45447,4.346361 3.09343,7.154793 -1.0404,2.146919 -3.80341,3.412414 -6.10947,2.253383 -0.81371,-0.409017 -1.43454,-1.077479 -1.74001,-1.900478 -0.30531,-0.823009 -0.29047,-1.831392 0.28076,-2.661564 0.35173,-0.511154 0.91892,-0.897485 1.54951,-1.061218 0.63059,-0.163728 1.39289,-0.03791 1.91216,0.52378 0.33907,0.366856 0.41678,0.753207 0.3645,1.189928 -0.0255,0.218453 -0.10267,0.448604 -0.35777,0.663966 -0.25479,0.215527 -0.64672,0.269994 -0.94642,0.190171 0.40875,-1.401293 -0.53833,-1.589625 -1.43784,-0.816432 -0.33008,0.479682 -0.33498,1.006736 -0.14129,1.52836 0.19394,0.521522 0.60685,1.016692 1.12059,1.274881 1.59002,0.79921 3.58277,-0.149376 4.33394,-1.699505 1.02691,-2.119024 -0.25263,-4.595276 -2.42399,-5.473542 -2.77378,-1.121858 -6.00125,0.464231 -7.1223,3.127846 -1.11177,6.710115 4.97237,8.111 3.46005,8.248298 -0.95854,0.05317 -5.00566,-2.257628 -5.1663,-5.73458 z"
       style="font-size:medium;font-style:normal;font-variant:normal;font-weight:normal;font-stretch:normal;text-indent:0;text-align:start;text-decoration:none;line-height:normal;letter-spacing:normal;word-spacing:normal;text-transform:none;direction:ltr;block-progression:tb;writing-mode:lr-tb;text-anchor:start;baseline-shift:baseline;color:#000000;fill:#d4d4d4;fill-opacity:1;stroke:none;stroke-width:1px;marker:none;visibility:visible;display:inline;overflow:visible;enable-background:accumulate;font-family:Sans;-inkscape-font-specification:Sans" /><path
       sodipodi:nodetypes="ssccccsccccccccccccssscscccccccccscsssccccccccccccccsccsscccs"
       inkscape:connector-curvature="0"
       id="path3045-27-4-9-2-7-1"
       d="m 128.0251,63.385006 c -1.49106,-0.01338 -2.99417,0.463196 -4.24134,1.537485 -2.29224,1.974482 -2.92219,5.579097 -0.84827,7.819966 1.58539,1.713062 4.51123,2.028275 6.3355,0.185558 0.64373,-0.6502 1.03628,-1.477166 1.08684,-2.359244 0.0506,-0.882075 -0.2364,-1.856951 -1.00732,-2.465277 -0.47465,-0.374561 -1.11348,-0.549456 -1.74955,-0.503659 -0.63608,0.0458 -1.31864,0.411803 -1.64352,1.113351 -0.21211,0.458141 -0.17351,0.846438 0,1.245893 0.0867,0.199738 0.23051,0.406445 0.53017,0.530167 0.29966,0.123708 0.67046,0.03946 0.92779,-0.132541 l -0.6362,-1.007318 c -0.0191,0.01272 0.12582,-0.04654 0.23858,0 0.11283,0.0466 0.11682,0.104254 0.10603,0.07953 -0.016,-0.03706 -0.008,-0.228117 -0.0265,-0.265084 0.11265,-0.220156 0.24889,-0.297848 0.53017,-0.3181 0.29546,-0.0213 0.69593,0.10306 0.90129,0.265084 0.44543,0.351503 0.58869,0.87235 0.55667,1.431451 -0.0321,0.559102 -0.25636,1.153494 -0.66271,1.563993 -1.25785,1.270561 -3.38827,0.998217 -4.53293,-0.238575 -1.56482,-1.690815 -1.08935,-4.458875 0.68922,-5.990889 2.27202,-1.957026 5.74657,-1.463991 7.55488,0.715726 1.47545,1.778483 1.28429,3.728638 0.39763,5.80533 -0.46196,0.463184 -0.87439,0.975519 -1.19288,1.510977 -0.63552,1.068449 -0.98173,2.263753 -1.06033,3.472595 -0.003,0.03517 0.003,0.07158 0,0.106033 -0.0109,0.212393 -0.0326,0.42324 -0.0265,0.636201 -6e-4,0.04676 1.3e-4,0.118083 0,0.15905 -6.3e-4,0.205062 0.008,0.338662 0,0.344609 l 0.0265,-0.05302 c 0.14065,1.615604 0.79649,3.221479 1.9086,4.559438 0.032,0.03856 0.0465,0.09448 0.0795,0.132542 l 1.82908,3.340053 c 0.82104,0.975117 -0.87627,-2.876495 -1.32542,-4.135304 -1.21009,-3.391366 -1.33626,-6.692139 0.66271,-8.959826 0.10961,-0.124352 0.21835,-0.252184 0.34461,-0.371117 0.23086,-0.21747 0.47883,-0.437853 0.76874,-0.6362 2.73024,-1.867935 6.85017,-1.538748 8.85379,1.060334 1.56845,2.034627 1.29593,5.057443 -1.00731,6.46804 -1.68482,1.031811 -4.22273,0.814237 -5.27517,-0.821759 -0.33994,-0.528554 -0.42489,-1.232588 -0.29159,-1.829077 0.13325,-0.596488 0.47066,-1.087107 1.08684,-1.351926 0.28409,-0.122058 0.75544,-0.171876 1.08685,-0.07953 0.31716,0.08837 0.46888,0.215693 0.53016,0.477151 -0.0332,0.0344 -0.10289,0.20333 -0.13254,0.238575 -0.0198,0.02348 0.0424,-0.0042 0.18556,-0.02651 0.14307,-0.02239 0.28298,0.07095 0.26508,0.05302 l -1.06033,0.901284 c 0.24199,0.242074 0.65354,0.403996 1.03383,0.344608 0.38026,-0.0594 0.60891,-0.20776 0.76874,-0.397625 0.3196,-0.379724 0.47443,-0.792649 0.37111,-1.325418 -0.15837,-0.815836 -0.82397,-1.365211 -1.53748,-1.563993 -0.7135,-0.19879 -1.49056,-0.149645 -2.14718,0.132542 -1.06645,0.458301 -1.69835,1.391683 -1.9086,2.332735 -0.21022,0.941063 -0.0349,1.919652 0.50366,2.75687 1.52633,2.372709 5.00927,2.72807 7.34282,1.298909 3.05255,-1.869484 3.42639,-5.807404 1.40494,-8.429658 -2.27221,-2.947539 -6.59633,-3.52147 -9.88762,-1.908602 0.0418,-0.682725 -0.0515,-1.456517 -0.29159,-2.412261 -0.24008,-0.955604 -0.68314,-1.871212 -1.35193,-2.677344 -1.25258,-1.50987 -3.14601,-2.342043 -5.06309,-2.359244 z"
       style="font-size:medium;font-style:normal;font-variant:normal;font-weight:normal;font-stretch:normal;text-indent:0;text-align:start;text-decoration:none;line-height:normal;letter-spacing:normal;word-spacing:normal;text-transform:none;direction:ltr;block-progression:tb;writing-mode:lr-tb;text-anchor:start;baseline-shift:baseline;color:#000000;fill:#c0b6ac;fill-opacity:1;stroke:none;stroke-width:1px;marker:none;visibility:visible;display:inline;overflow:visible;enable-background:accumulate;font-family:Sans;-inkscape-font-specification:Sans" /><path
       sodipodi:nodetypes="csssssssssscccccssssssssccscc"
       inkscape:connector-curvature="0"
       id="path3045-27-4-9-2-7-1-1"
       d="m 138.45306,86.298472 c 0.3853,-0.868891 0.95063,-1.664291 1.68815,-2.321223 2.45577,-2.187424 6.30244,-2.065254 8.38017,0.733038 1.67069,2.250106 1.57766,5.767501 -0.66257,7.558575 -1.71257,1.369231 -4.37501,1.194785 -5.65554,-0.853781 -0.45187,-0.722847 -0.64503,-1.58058 -0.53014,-2.427004 0.1149,-0.84642 0.55512,-1.705862 1.34721,-2.158174 0.48772,-0.278498 1.08806,-0.351406 1.64252,-0.204132 0.55446,0.147267 1.08715,0.603403 1.24762,1.323027 0.10478,0.469942 3.4e-4,0.837309 -0.22541,1.188617 -0.11284,0.175657 -0.26983,0.338307 -0.55732,0.406995 -0.28749,0.06868 -0.612,-0.06342 -0.80853,-0.268833 l 0.75735,-0.853813 c 0.0146,0.01522 -0.10413,-0.05697 -0.21233,-0.03109 -0.10821,0.02586 -0.13545,0.0603 -0.12148,0.03858 0.028,-0.04349 0.0703,-0.316107 0.0949,-0.205364 -0.0566,-0.253694 -0.17637,-0.352266 -0.43393,-0.420682 -0.25754,-0.06843 -0.6322,-0.0059 -0.84319,0.114504 -0.45768,0.261358 -0.68549,0.711859 -0.75832,1.248361 -0.0728,0.536504 0.0344,1.150455 0.31974,1.6068 0.88295,1.412494 2.81839,1.507526 4.05485,0.518989 1.69032,-1.351435 1.759,-4.062774 0.46269,-5.808648 -1.65594,-2.23022 -4.81179,-2.341315 -6.806,-0.56502 -2.43942,2.172862 -1.71041,5.344427 -0.45313,8.773332 0.40399,1.10184 0.20204,3.599852 0.22503,3.627353 l -0.99261,-2.737444 c -0.0271,-0.03249 -0.0544,-0.07278 -0.0807,-0.105788 -1.82814,-2.289448 -2.23498,-5.570463 -1.07906,-8.177153 z"
       style="font-size:medium;font-style:normal;font-variant:normal;font-weight:normal;font-stretch:normal;text-indent:0;text-align:start;text-decoration:none;line-height:normal;letter-spacing:normal;word-spacing:normal;text-transform:none;direction:ltr;block-progression:tb;writing-mode:lr-tb;text-anchor:start;baseline-shift:baseline;color:#000000;fill:#b29b88;fill-opacity:1;stroke:none;stroke-width:1px;marker:none;visibility:visible;display:inline;overflow:visible;enable-background:accumulate;font-family:Sans;-inkscape-font-specification:Sans" /><path
       sodipodi:nodetypes="csssssssscsccsssscccc"
       inkscape:connector-curvature="0"
       id="path3045-27-4-7-2-0-9-08-4-6-5"
       d="m 131.4205,61.369394 c 0.38358,-0.901709 0.97011,-1.745905 1.75545,-2.466483 2.61501,-2.399361 6.89431,-2.610961 9.34677,0.0058 1.97209,2.103987 2.05026,5.627684 -0.34577,7.61223 -1.83169,1.517091 -4.79822,1.573697 -6.32647,-0.362736 -0.53919,-0.683319 -0.79813,-1.523812 -0.71412,-2.379802 0.0842,-0.855961 0.52859,-1.753114 1.38508,-2.273943 0.52741,-0.320662 1.1905,-0.445573 1.81403,-0.34651 0.62354,0.09905 1.23881,0.508699 1.45424,1.214089 0.1407,0.46061 0.0435,0.836872 -0.1892,1.207554 -0.11645,0.185357 -0.28205,0.361693 -0.59806,0.455148 -0.31583,0.09376 -0.68315,-0.01022 -0.91204,-0.198479 0.95824,-1.095543 0.20765,-1.633198 -0.91275,-1.291336 -0.49492,0.300928 -0.72471,0.770961 -0.77786,1.313515 -0.0528,0.542574 0.0977,1.146881 0.43812,1.578258 1.05368,1.335223 3.20858,1.262244 4.53107,0.166874 1.80787,-1.497373 1.74418,-4.213339 0.21409,-5.845871 -1.95463,-2.085389 -5.46595,-1.922676 -7.58949,0.02569 -3.84653,5.575456 0.89427,9.200591 -0.49184,8.734234 -0.86406,-0.325848 -3.42768,-3.972059 -2.08116,-7.148145 z"
       style="font-size:medium;font-style:normal;font-variant:normal;font-weight:normal;font-stretch:normal;text-indent:0;text-align:start;text-decoration:none;line-height:normal;letter-spacing:normal;word-spacing:normal;text-transform:none;direction:ltr;block-progression:tb;writing-mode:lr-tb;text-anchor:start;baseline-shift:baseline;color:#000000;fill:#dbcccc;fill-opacity:1;stroke:none;stroke-width:1px;marker:none;visibility:visible;display:inline;overflow:visible;enable-background:accumulate;font-family:Sans;-inkscape-font-specification:Sans" /><path
       sodipodi:nodetypes="csssssssscsccsssscccc"
       inkscape:connector-curvature="0"
       id="path3045-27-4-7-2-0-9-08-4-6-5-1"
       d="m 120.86012,62.427035 c -0.56217,-0.669034 -0.99278,-1.458931 -1.24066,-2.337864 -0.82533,-2.926687 0.80439,-6.096078 3.93512,-6.718401 2.51726,-0.500566 5.37715,0.979824 5.96175,3.568167 0.44693,1.978686 -0.75512,4.136494 -2.95132,4.390969 -0.77496,0.08974 -1.55817,-0.0906 -2.20958,-0.524263 -0.65133,-0.433818 -1.18421,-1.144591 -1.24191,-1.987601 -0.0354,-0.519067 0.14312,-1.050347 0.48481,-1.455508 0.34165,-0.405189 0.92906,-0.668962 1.58556,-0.516263 0.42871,0.0997 0.68971,0.333654 0.88929,0.6626 0.0998,0.164521 0.17156,0.360533 0.11366,0.628525 -0.0576,0.268004 -0.29532,0.486871 -0.54276,0.569273 -0.47598,-1.166783 -1.22299,-0.861485 -1.41984,0.0932 0.0333,0.487102 0.31378,0.857309 0.72673,1.132134 0.41308,0.274602 0.96119,0.429923 1.45042,0.373192 1.51433,-0.175406 2.36193,-1.756751 2.03926,-3.185354 -0.44108,-1.952957 -2.64684,-3.091543 -4.60002,-2.703221 -2.495,0.496121 -3.841,3.091972 -3.17023,5.468922 2.85564,5.197259 7.7576,3.369156 6.80055,4.162488 -0.62477,0.479225 -4.62809,0.732605 -6.61,-1.620662 z"
       style="font-size:medium;font-style:normal;font-variant:normal;font-weight:normal;font-stretch:normal;text-indent:0;text-align:start;text-decoration:none;line-height:normal;letter-spacing:normal;word-spacing:normal;text-transform:none;direction:ltr;block-progression:tb;writing-mode:lr-tb;text-anchor:start;baseline-shift:baseline;color:#000000;fill:#bad3d3;fill-opacity:1;stroke:none;stroke-width:1px;marker:none;visibility:visible;display:inline;overflow:visible;enable-background:accumulate;font-family:Sans;-inkscape-font-specification:Sans" /><path
       sodipodi:nodetypes="csssssssscsccsssscccc"
       inkscape:connector-curvature="0"
       id="path3045-27-4-7-2-0-9-08-4-6-5-1-8"
       d="m 106.04273,63.005161 c -0.77159,-0.266143 -1.61395,-0.36271 -2.48313,-0.254337 -2.89416,0.360933 -5.285019,3.107222 -4.926575,6.269979 0.288071,2.543113 2.471455,4.640301 4.988225,4.185455 1.92398,-0.347698 3.5245,-2.303776 3.10809,-4.452087 -0.14698,-0.758018 -0.54103,-1.41937 -1.12575,-1.859766 -0.58481,-0.440265 -1.3858,-0.662498 -2.16622,-0.390895 -0.48064,0.167505 -0.90926,0.539584 -1.17562,1.015132 -0.26641,0.47552 -0.33231,1.12577 -6e-4,1.679523 0.21659,0.361629 0.50539,0.514811 0.86214,0.57394 0.17841,0.02957 0.37712,0.02076 0.60281,-0.136895 0.22583,-0.157315 0.35403,-0.463853 0.35578,-0.726652 -1.19709,0.0067 -1.1406,-0.808553 -0.33379,-1.361319 0.45103,-0.157189 0.869,-0.03836 1.23956,0.240715 0.37045,0.279383 0.67257,0.730979 0.76529,1.209569 0.28718,1.481269 -0.89557,2.883685 -2.28468,3.134732 -1.89895,0.343196 -3.580046,-1.275554 -3.803615,-3.24874 -0.285535,-2.520612 1.669365,-4.7804 4.019995,-5.073127 5.54894,0.656466 5.33693,5.938593 5.77364,4.738647 0.25006,-0.768405 -0.69964,-4.603058 -3.41508,-5.543331 z"
       style="font-size:medium;font-style:normal;font-variant:normal;font-weight:normal;font-stretch:normal;text-indent:0;text-align:start;text-decoration:none;line-height:normal;letter-spacing:normal;word-spacing:normal;text-transform:none;direction:ltr;block-progression:tb;writing-mode:lr-tb;text-anchor:start;baseline-shift:baseline;color:#000000;fill:#e2c0c0;fill-opacity:1;stroke:none;stroke-width:1px;marker:none;visibility:visible;display:inline;overflow:visible;enable-background:accumulate;font-family:Sans;-inkscape-font-specification:Sans" /><path
       sodipodi:nodetypes="sccssssssssscccssccssssccss"
       inkscape:connector-curvature="0"
       id="path3045-27-4-7-9"
       d="m 87.658668,81.981912 c 0.09809,-0.665791 0.340501,-1.316879 0.7194,-1.912713 l 0.02665,-0.05367 c 1.328353,-2.031103 4.13436,-2.73785 6.208478,-1.214075 1.667784,1.225263 2.319491,3.697447 1.065949,5.407771 -0.958283,1.307478 -2.918805,1.733959 -4.263338,0.568932 -0.474427,-0.411088 -0.789401,-0.969503 -0.879348,-1.583456 -0.08995,-0.61395 0.05266,-1.303952 0.532883,-1.78248 0.295667,-0.29463 0.714793,-0.469075 1.145764,-0.480515 0.430971,-0.01144 0.909311,0.196997 1.172435,0.665817 0.171831,0.30616 0.171364,0.583881 0.07996,0.875356 -0.0457,0.145739 -0.125929,0.291485 -0.319745,0.398578 -0.193812,0.107095 -0.455433,0.08177 -0.639502,-0.02103 l 0.373027,-0.751374 c -0.0023,-0.243825 -0.183743,-0.369753 -0.612863,-0.292878 -0.200187,0.0053 -0.458291,0.125988 -0.586206,0.253455 -0.277474,0.276496 -0.350095,0.637578 -0.293084,1.02673 0.05586,0.381303 0.269417,0.767667 0.559587,1.027487 l 0,0.02727 c 0.927065,0.803294 2.34577,0.471102 3.037626,-0.472865 0.945839,-1.290496 0.441294,-3.19553 -0.852756,-4.146218 -1.653058,-1.214436 -4.099881,-0.641103 -5.178568,1.008251 -1.31951,2.017583 -0.62768,4.519311 1.478883,5.810286 0.554487,0.339808 0.675222,0.284066 1.489702,0.553322 l 1.211699,0.634325 c -0.920312,-0.104546 -2.260009,-0.0368 -3.083115,-0.466709 -1.934916,-1.010613 -2.6964,-3.023713 -2.393517,-5.0796 z"
       style="font-size:medium;font-style:normal;font-variant:normal;font-weight:normal;font-stretch:normal;text-indent:0;text-align:start;text-decoration:none;line-height:normal;letter-spacing:normal;word-spacing:normal;text-transform:none;direction:ltr;block-progression:tb;writing-mode:lr-tb;text-anchor:start;baseline-shift:baseline;color:#000000;fill:#d5c3c3;fill-opacity:1;stroke:none;stroke-width:1px;marker:none;visibility:visible;display:inline;overflow:visible;enable-background:accumulate;font-family:Sans;-inkscape-font-specification:Sans" /><path
       sodipodi:nodetypes="sccssssssssscccssccssssccss"
       inkscape:connector-curvature="0"
       id="path3045-27-4-7-9-0"
       d="m 91.778931,86.82789 c -0.694453,-0.381451 -1.477784,-0.624489 -2.306367,-0.707536 l -0.06931,-0.01412 c -2.850644,-0.250489 -5.509894,1.74211 -5.555711,4.654788 -0.03683,2.342073 1.819074,4.65993 4.315529,4.751085 1.908444,0.06964 3.703272,-1.369884 3.566666,-3.38273 -0.04821,-0.710254 -0.348066,-1.382673 -0.860118,-1.8945 -0.51205,-0.511824 -1.260891,-0.870808 -2.051491,-0.781403 -0.486768,0.05504 -0.948602,0.304204 -1.26592,0.678575 -0.317318,0.374372 -0.462039,0.945493 -0.209351,1.508862 0.165016,0.367911 0.425919,0.56291 0.764423,0.686902 0.169246,0.06201 0.363068,0.09336 0.601425,-0.0034 0.238356,-0.09663 0.400707,-0.346593 0.435202,-0.582259 l -0.97034,-0.197706 c -0.227116,-0.173631 -0.216207,-0.42322 0.16119,-0.749906 0.147417,-0.173881 0.444228,-0.318011 0.65482,-0.341822 0.456812,-0.05166 0.847259,0.13798 1.17182,0.462397 0.318022,0.317873 0.528604,0.779237 0.565958,1.219548 l 0.02559,0.01917 c 0.09419,1.387868 -1.226731,2.413008 -2.604582,2.362697 -1.883657,-0.06879 -3.312125,-1.856976 -3.28354,-3.674206 0.03652,-2.321385 2.315074,-4.089139 4.629937,-3.88573 2.831669,0.248823 4.686752,2.623072 4.399432,5.40073 -0.07563,0.731131 -0.213816,0.799043 -0.540596,1.711236 l -0.26683,1.521546 c 0.556598,-0.890206 1.5732,-2.031313 1.755381,-3.064206 0.428264,-2.428066 -0.918817,-4.520298 -3.063212,-5.698175 z"
       style="font-size:medium;font-style:normal;font-variant:normal;font-weight:normal;font-stretch:normal;text-indent:0;text-align:start;text-decoration:none;line-height:normal;letter-spacing:normal;word-spacing:normal;text-transform:none;direction:ltr;block-progression:tb;writing-mode:lr-tb;text-anchor:start;baseline-shift:baseline;color:#000000;fill:#c3bab1;fill-opacity:1;stroke:none;stroke-width:1px;marker:none;visibility:visible;display:inline;overflow:visible;enable-background:accumulate;font-family:Sans;-inkscape-font-specification:Sans" /><path
       sodipodi:nodetypes="sccssssssssscccssccssssccss"
       inkscape:connector-curvature="0"
       id="path3045-27-4-7-9-02"
       d="m 105.51777,85.856978 c 0.0284,-0.651927 -0.0956,-1.325154 -0.37189,-1.979531 l -0.0172,-0.05715 c -0.97996,-2.239616 -3.75032,-3.590125 -6.197953,-2.658282 -1.968133,0.749289 -3.126743,2.922397 -2.161657,4.841197 0.737772,1.466849 2.686565,2.346943 4.30786,1.575689 0.57208,-0.272147 1.00769,-0.722116 1.22088,-1.279323 0.21329,-0.557187 0.20017,-1.242827 -0.20401,-1.811231 -0.24888,-0.34997 -0.64922,-0.616662 -1.0937,-0.732489 -0.44447,-0.115869 -0.98101,-0.03579 -1.345368,0.342308 -0.237948,0.246905 -0.291499,0.509113 -0.253997,0.806194 0.019,0.148651 0.07354,0.305639 0.25353,0.453895 0.17996,0.148252 0.456095,0.188121 0.666975,0.136012 l -0.23982,-0.799661 c 0.0507,-0.229283 0.26272,-0.303987 0.69249,-0.126895 0.20644,0.05385 0.4504,0.230525 0.55807,0.38194 0.23358,0.328435 0.23829,0.686733 0.10314,1.039911 -0.13241,0.346073 -0.42929,0.658447 -0.78081,0.832819 l -0.005,0.02567 c -1.117903,0.531783 -2.52349,-0.127317 -3.056151,-1.186349 -0.728187,-1.447796 0.167066,-3.121791 1.694142,-3.703172 1.950749,-0.742668 4.374909,0.394464 5.170659,2.213134 0.97342,2.224706 -0.23255,4.415901 -2.66831,5.120247 -0.64116,0.185391 -0.75541,0.103387 -1.65226,0.158864 l -1.379899,0.303036 c 0.974354,0.125669 2.349739,0.516073 3.286909,0.311154 2.20309,-0.481708 3.38576,-2.19503 3.47359,-4.208093 z"
       style="font-size:medium;font-style:normal;font-variant:normal;font-weight:normal;font-stretch:normal;text-indent:0;text-align:start;text-decoration:none;line-height:normal;letter-spacing:normal;word-spacing:normal;text-transform:none;direction:ltr;block-progression:tb;writing-mode:lr-tb;text-anchor:start;baseline-shift:baseline;color:#000000;fill:#ceb9b9;fill-opacity:1;stroke:none;stroke-width:1px;marker:none;visibility:visible;display:inline;overflow:visible;enable-background:accumulate;font-family:Sans;-inkscape-font-specification:Sans" /><path
       sodipodi:nodetypes="csssssssscsccsssscccc"
       inkscape:connector-curvature="0"
       id="path3045-27-4-7-2-0-9-08-4-6-6-3"
       d="m 139.085,53.712023 c 0.0517,-0.710209 -0.0476,-1.434279 -0.31711,-2.126373 -0.89745,-2.304501 -3.60456,-3.560812 -6.06883,-2.427252 -1.9815,0.91145 -3.20706,3.276579 -2.31341,5.243307 0.68315,1.503496 2.58982,2.313398 4.22738,1.399963 0.5778,-0.322352 1.02608,-0.824003 1.25695,-1.425337 0.23074,-0.601377 0.24139,-1.324331 -0.14097,-1.899707 -0.23539,-0.35429 -0.6242,-0.611293 -1.06195,-0.706408 -0.43776,-0.09513 -0.97371,0.02218 -1.3487,0.443671 -0.24481,0.275302 -0.30729,0.55522 -0.27985,0.866694 0.0137,0.155762 0.0625,0.318219 0.23645,0.463685 0.17375,0.145628 0.44683,0.170769 0.65818,0.102857 -0.25676,-0.990904 0.40975,-1.159645 1.02298,-0.636778 0.22092,0.33246 0.21338,0.710436 0.0669,1.091561 -0.14658,0.381062 -0.44572,0.751048 -0.81057,0.954495 -1.12909,0.62987 -2.50349,0.01997 -2.9967,-1.065567 -0.67427,-1.483939 0.27254,-3.306034 1.80999,-4.013258 1.96399,-0.903392 4.18894,0.120085 4.91771,1.991435 0.63794,4.775001 -3.64787,5.996065 -2.59268,6.040881 0.66951,0.0041 3.54913,-1.797486 3.73401,-4.297877 z"
       style="font-size:medium;font-style:normal;font-variant:normal;font-weight:normal;font-stretch:normal;text-indent:0;text-align:start;text-decoration:none;line-height:normal;letter-spacing:normal;word-spacing:normal;text-transform:none;direction:ltr;block-progression:tb;writing-mode:lr-tb;text-anchor:start;baseline-shift:baseline;color:#000000;fill:#c3bcc7;fill-opacity:1;stroke:none;stroke-width:1px;marker:none;visibility:visible;display:inline;overflow:visible;enable-background:accumulate;font-family:Sans;-inkscape-font-specification:Sans" /><g
       transform="translate(-2,0)"
       id="g4169"><flowRoot
         xml:space="preserve"
         id="flowRoot3110-6-8"
         style="font-size:46.77364349px;font-style:normal;font-variant:normal;font-weight:bold;font-stretch:normal;line-height:125%;letter-spacing:0px;word-spacing:0px;fill:#916f6f;fill-opacity:1;stroke:none;font-family:EQ Feel Good;-inkscape-font-specification:EQ Feel Good Bold"
         transform="matrix(1.1290391,0,0,0.67921476,96.091173,102.83351)"><flowRegion
           id="flowRegion3112-3-9"><rect
             id="rect3114-0-6"
             width="316.27631"
             height="59.785713"
             x="70.071426"
             y="75.89286"
             style="font-size:46.77364349px;font-style:normal;font-variant:normal;font-weight:bold;font-stretch:normal;fill:#916f6f;stroke:none;font-family:EQ Feel Good;-inkscape-font-specification:EQ Feel Good Bold" /></flowRegion><flowPara
           id="flowPara3116-2-4">T</flowPara></flowRoot><flowRoot
         xml:space="preserve"
         id="flowRoot3110-6"
         style="font-size:46.77364349px;font-style:normal;font-variant:normal;font-weight:bold;font-stretch:normal;line-height:125%;letter-spacing:0px;word-spacing:0px;fill:#916f6f;fill-opacity:1;stroke:#ffffff;stroke-width:0.42593914;stroke-miterlimit:4;stroke-opacity:1;stroke-dasharray:none;font-family:EQ Feel Good;-inkscape-font-specification:EQ Feel Good Bold"
         transform="matrix(1.1882508,0,0,0.75125471,104.94096,94.387906)"><flowRegion
           id="flowRegion3112-3"><rect
             id="rect3114-0"
             width="316.27631"
             height="59.785713"
             x="70.071426"
             y="75.89286"
             style="font-size:46.77364349px;font-style:normal;font-variant:normal;font-weight:bold;font-stretch:normal;fill:#916f6f;stroke:#ffffff;stroke-width:0.42593914;stroke-miterlimit:4;stroke-opacity:1;stroke-dasharray:none;font-family:EQ Feel Good;-inkscape-font-specification:EQ Feel Good Bold" /></flowRegion><flowPara
           id="flowPara3116-2">r</flowPara></flowRoot><flowRoot
         xml:space="preserve"
         id="flowRoot3110-6-0"
         style="font-size:46.77364349px;font-style:normal;font-variant:normal;font-weight:bold;font-stretch:normal;line-height:125%;letter-spacing:0px;word-spacing:0px;fill:#916f6f;fill-opacity:1;stroke:#916f6f;stroke-width:0.28824788;stroke-miterlimit:4;stroke-opacity:1;stroke-dasharray:none;font-family:EQ Feel Good;-inkscape-font-specification:EQ Feel Good Bold"
         transform="matrix(0.62211471,0,0,0.64987104,153.72047,106.00789)"><flowRegion
           id="flowRegion3112-3-47"><rect
             id="rect3114-0-0"
             width="316.27631"
             height="59.785713"
             x="70.071426"
             y="75.89286"
             style="font-size:46.77364349px;font-style:normal;font-variant:normal;font-weight:bold;font-stretch:normal;fill:#916f6f;stroke:#916f6f;stroke-width:0.28824788;stroke-miterlimit:4;stroke-opacity:1;stroke-dasharray:none;font-family:EQ Feel Good;-inkscape-font-specification:EQ Feel Good Bold" /></flowRegion><flowPara
           id="flowPara3116-2-2">ee</flowPara></flowRoot></g><g
       transform="matrix(1,0,0,1.0653644,4,-12.021453)"
       id="g4183"><flowRoot
         xml:space="preserve"
         id="flowRoot3110-6-2"
         style="font-size:46.77364349px;font-style:normal;font-variant:normal;font-weight:bold;font-stretch:normal;line-height:125%;letter-spacing:0px;word-spacing:0px;fill:#916f6f;fill-opacity:1;stroke:none;font-family:EQ Feel Good;-inkscape-font-specification:EQ Feel Good Bold"
         transform="matrix(0.66001727,0,0,0.70915674,28.60927,98.982274)"><flowRegion
           id="flowRegion3112-3-4"><rect
             id="rect3114-0-7"
             width="316.27631"
             height="59.785713"
             x="70.071426"
             y="75.89286"
             style="font-size:46.77364349px;font-style:normal;font-variant:normal;font-weight:bold;font-stretch:normal;fill:#916f6f;stroke:none;font-family:EQ Feel Good;-inkscape-font-specification:EQ Feel Good Bold" /></flowRegion><flowPara
           id="flowPara3116-2-1">S</flowPara></flowRoot><flowRoot
         xml:space="preserve"
         id="flowRoot3110-6-2-2"
         style="font-size:46.77364349px;font-style:normal;font-variant:normal;font-weight:bold;font-stretch:normal;line-height:125%;letter-spacing:0px;word-spacing:0px;fill:#916f6f;fill-opacity:1;stroke:#916f6f;stroke-width:0.32479161;stroke-miterlimit:4;stroke-opacity:1;stroke-dasharray:none;font-family:EQ Feel Good;-inkscape-font-specification:EQ Feel Good Bold"
         transform="matrix(0.63534028,0,0,0.63803614,44.237738,107.56777)"><flowRegion
           id="flowRegion3112-3-4-7"><rect
             id="rect3114-0-7-1"
             width="316.27631"
             height="59.785713"
             x="70.071426"
             y="75.89286"
             style="font-size:46.77364349px;font-style:normal;font-variant:normal;font-weight:bold;font-stretch:normal;fill:#916f6f;stroke:#916f6f;stroke-width:0.32479161;stroke-miterlimit:4;stroke-opacity:1;stroke-dasharray:none;font-family:EQ Feel Good;-inkscape-font-specification:EQ Feel Good Bold" /></flowRegion><flowPara
           id="flowPara3116-2-1-6">hanti</flowPara></flowRoot></g></g><flowRoot
     xml:space="preserve"
     id="flowRoot3083"
     style="font-size:40px;font-style:normal;font-variant:normal;font-weight:normal;font-stretch:normal;line-height:125%;letter-spacing:0px;word-spacing:0px;fill:#6c5353;fill-opacity:1;stroke:none;font-family:UPC-Orchid;-inkscape-font-specification:UPC-Orchid"
     transform="matrix(0.87429498,0,0,0.68685944,35.151488,59.138055)"><flowRegion
       id="flowRegion3085"><rect
         id="rect3087"
         width="452"
         height="67"
         x="91"
         y="233"
         style="font-style:normal;font-variant:normal;font-weight:normal;font-stretch:normal;fill:#6c5353;font-family:UPC-Orchid;-inkscape-font-specification:UPC-Orchid" /></flowRegion><flowPara
       id="flowPara3089"></flowPara></flowRoot></svg>